{"glyphs":{"0":{"ha":935,"x_min":0,"x_max":0,"o":"m 879 604 b 475 0 882 365 764 0 b 460 0 469 0 465 0 b 56 593 167 12 52 346 b 461 1275 60 841 152 1275 b 879 604 783 1275 878 854 m 473 1107 b 220 593 277 1101 220 753 b 476 155 220 427 264 155 b 719 593 650 155 719 407 b 473 1107 719 796 650 1111 "},"1":{"ha":270,"x_min":0,"x_max":0,"o":"m 216 91 b 129 -5 216 30 171 -5 b 54 91 91 -5 54 24 l 56 1183 b 136 1284 56 1251 95 1284 b 216 1185 175 1284 216 1251 l 216 91 "},"2":{"ha":842,"x_min":0,"x_max":0,"o":"m 157 3 b 76 178 66 3 26 107 b 590 1019 509 793 578 935 b 574 1090 594 1051 589 1074 b 502 1116 557 1108 532 1116 b 180 933 396 1116 251 1006 b 133 911 165 917 149 911 b 87 1058 76 911 27 1001 b 528 1279 202 1168 362 1279 b 722 1206 606 1279 674 1253 b 784 1016 765 1161 789 1097 b 277 167 777 918 678 743 l 686 170 b 684 5 815 171 826 7 b 157 3 491 4 350 3 "},"3":{"ha":834,"x_min":0,"x_max":0,"o":"m 500 690 b 769 256 724 613 811 467 b 427 -4 742 119 605 -4 b 64 220 270 -4 136 80 b 141 339 30 288 90 339 b 194 311 163 339 182 330 b 431 151 247 225 326 151 b 601 260 509 151 585 199 b 349 563 646 425 564 534 b 326 746 262 574 259 708 b 533 1055 483 837 564 981 b 442 1111 519 1089 484 1111 b 229 996 368 1111 277 1046 b 149 955 201 966 174 955 b 110 1114 81 955 46 1053 b 476 1286 208 1207 336 1286 b 685 1188 571 1286 648 1245 b 500 690 787 1034 673 808 "},"4":{"ha":758,"x_min":0,"x_max":0,"o":"m 216 608 b 56 747 113 608 56 620 l 56 1183 b 136 1284 56 1251 95 1284 b 216 1185 175 1284 216 1251 l 216 758 l 544 758 l 544 1183 b 624 1284 544 1251 583 1284 b 704 1185 663 1284 704 1251 l 704 91 b 617 -5 704 30 659 -5 b 543 91 579 -5 543 24 l 543 608 l 216 608 "},"5":{"ha":857,"x_min":0,"x_max":0,"o":"m 803 384 b 399 -4 802 151 627 -4 b 64 282 235 -4 91 109 b 146 361 57 323 104 361 b 210 302 175 361 202 345 b 419 144 240 152 362 144 b 652 358 502 144 642 190 b 422 631 663 517 575 631 b 210 572 361 631 290 613 b 163 560 194 564 178 560 b 68 692 110 560 66 609 l 56 1122 b 160 1279 53 1222 94 1279 l 689 1279 b 686 1120 791 1279 810 1124 b 216 1118 566 1116 340 1124 b 216 746 206 1116 212 1057 b 433 784 296 772 368 784 b 803 384 671 784 804 618 "},"6":{"ha":887,"x_min":0,"x_max":0,"o":"m 57 623 b 541 1275 66 897 218 1275 b 708 1223 601 1275 659 1259 b 669 1069 791 1162 742 1069 b 624 1081 655 1069 639 1073 b 532 1107 591 1099 560 1107 b 406 1057 488 1107 448 1089 b 205 564 286 966 199 762 b 540 741 292 667 403 741 b 831 391 735 741 845 595 b 460 1 821 199 671 1 b 392 8 438 1 415 4 b 57 623 109 64 46 343 m 256 355 b 456 157 282 218 368 157 b 671 358 551 157 648 231 b 524 567 697 506 620 567 b 256 355 404 567 283 472 "},"7":{"ha":867,"x_min":0,"x_max":0,"o":"m 617 1109 l 125 1105 b 133 1271 35 1104 24 1270 l 741 1280 b 798 1105 788 1282 837 1204 l 368 26 b 304 -11 358 1 332 -11 b 217 98 251 -11 190 31 "},"8":{"ha":895,"x_min":0,"x_max":0,"o":"m 841 382 b 438 4 833 160 658 4 b 57 361 231 4 72 145 b 206 726 47 488 94 625 b 115 956 142 791 113 875 b 454 1276 119 1119 245 1276 b 789 971 654 1276 785 1131 b 678 720 792 884 757 795 b 841 382 793 635 845 507 m 667 382 b 442 631 671 521 579 631 b 433 631 439 631 435 631 b 222 362 293 627 212 496 b 445 157 232 255 302 157 b 667 382 576 157 663 254 m 618 966 b 457 1123 617 1061 551 1123 b 286 966 365 1123 296 1058 b 460 785 278 878 331 785 b 618 966 564 785 621 878 "},"9":{"ha":826,"x_min":0,"x_max":0,"o":"m 770 103 b 684 7 770 42 726 7 b 609 103 646 7 609 37 l 610 500 b 418 453 551 468 486 453 b 54 860 220 453 47 600 b 452 1282 61 1070 208 1282 b 617 1240 509 1282 568 1268 b 690 1297 631 1278 661 1297 b 770 1198 730 1297 770 1263 l 770 103 m 214 869 b 426 612 206 696 316 612 b 610 718 498 612 570 648 l 610 1002 b 433 1126 578 1077 515 1126 b 214 869 313 1126 221 1008 "},"\u0000":{"ha":0,"x_min":0,"x_max":0,"o":""},"\r":{"ha":347,"x_min":0,"x_max":0,"o":""}," ":{"ha":339,"x_min":0,"x_max":0,"o":""},"!":{"ha":313,"x_min":0,"x_max":0,"o":"m 151 -28 b 160 179 12 -24 31 182 b 151 -28 292 178 296 -31 m 231 331 b 153 252 231 278 193 252 b 71 332 113 252 71 281 l 71 1208 b 145 1282 71 1259 107 1282 b 231 1208 187 1282 231 1255 "},"\"":{"ha":583,"x_min":0,"x_max":0,"o":"m 245 1059 b 193 692 289 966 290 765 b 153 680 182 684 168 680 b 71 788 94 680 22 741 b 95 991 140 856 110 951 b 191 1086 75 1047 140 1086 b 245 1059 216 1086 236 1078 m 499 1059 b 446 692 543 966 544 765 b 407 680 435 684 422 680 b 324 788 347 680 275 741 b 349 991 393 856 363 951 b 445 1086 328 1047 393 1086 b 499 1059 469 1086 490 1078 "},"#":{"ha":892,"x_min":0,"x_max":0,"o":"m 119 495 b 119 654 28 495 38 654 l 222 654 l 222 781 l 119 781 b 119 940 28 781 38 940 l 222 940 l 222 1043 b 297 1111 222 1089 259 1111 b 381 1038 338 1111 381 1085 l 381 940 l 509 940 l 509 1043 b 583 1111 509 1089 545 1111 b 667 1038 624 1111 667 1085 l 667 940 l 769 940 b 764 781 865 940 856 781 l 667 781 l 667 654 l 769 654 b 764 495 865 654 856 495 l 667 495 l 667 393 b 591 328 667 349 629 328 b 509 393 551 328 509 351 l 509 495 l 381 495 l 381 393 b 305 328 381 349 343 328 b 222 393 264 328 222 351 l 222 495 l 119 495 m 509 654 l 509 781 l 381 781 l 381 654 "},"$":{"ha":926,"x_min":0,"x_max":0,"o":"m 378 16 b 60 290 252 58 109 178 b 176 433 35 346 121 433 b 217 399 195 433 210 423 b 373 209 239 323 292 250 l 374 608 b 90 972 216 670 71 799 b 377 1253 110 1157 252 1237 l 377 1328 b 467 1409 377 1383 422 1409 b 560 1329 513 1409 560 1382 l 560 1260 b 830 1059 669 1249 780 1179 b 727 956 849 1013 776 956 b 692 975 712 956 699 962 b 559 1084 647 1061 614 1078 l 556 730 b 811 161 815 629 960 385 b 560 7 758 81 659 30 l 560 -81 b 464 -152 560 -126 511 -152 b 378 -83 420 -152 378 -130 l 378 16 m 652 231 b 555 537 739 339 680 480 l 553 175 b 652 231 591 182 627 199 m 376 1080 b 269 947 305 1059 267 1012 b 376 800 271 888 304 829 l 376 1080 "},"%":{"ha":905,"x_min":0,"x_max":0,"o":"m 658 468 b 673 468 663 468 669 468 b 684 31 930 468 952 31 b 658 468 415 31 396 450 m 825 1180 b 193 20 620 798 425 388 b 149 -5 182 3 165 -5 b 60 104 98 -5 37 61 l 684 1246 b 730 1274 694 1265 712 1274 b 825 1180 781 1274 845 1218 m 227 1232 b 241 1232 232 1232 237 1232 b 252 795 499 1232 517 800 b 227 1232 -16 789 -35 1214 m 675 178 b 671 319 743 178 741 319 b 675 178 601 319 593 178 m 244 941 b 240 1082 315 941 298 1082 b 244 941 170 1082 161 941 "},"&":{"ha":949,"x_min":0,"x_max":0,"o":"m 642 68 b 385 -3 566 23 473 -3 b 91 164 262 -3 145 47 b 278 734 -12 382 126 582 b 425 1284 156 930 113 1284 b 469 690 732 1284 636 887 l 680 297 b 746 500 723 349 741 418 b 822 571 749 548 785 571 b 894 498 860 571 897 545 b 772 161 887 385 863 297 l 815 99 b 723 -15 853 43 777 -15 b 681 8 704 -15 689 -8 b 642 68 675 19 642 68 m 355 586 b 222 247 259 498 161 391 b 399 146 252 179 323 146 b 562 201 456 146 515 165 b 355 586 528 263 366 574 m 396 844 b 422 1157 469 903 557 1157 b 396 844 289 1157 339 916 "},"'":{"ha":330,"x_min":0,"x_max":0,"o":"m 245 1059 b 193 692 289 966 290 765 b 153 680 182 684 168 680 b 71 788 94 680 22 741 b 95 991 140 856 110 951 b 191 1086 75 1047 140 1086 b 245 1059 216 1086 236 1078 "},"(":{"ha":552,"x_min":0,"x_max":0,"o":"m 464 -58 b 395 -214 517 -99 472 -214 b 315 -172 370 -214 343 -202 b 60 685 159 -9 28 327 b 332 1427 79 906 146 1161 b 415 1474 355 1459 385 1474 b 472 1325 477 1474 530 1408 b 237 675 321 1114 251 867 b 464 -58 217 359 331 45 "},")":{"ha":552,"x_min":0,"x_max":0,"o":"m 88 -58 b 313 675 221 45 335 359 b 80 1325 301 867 231 1114 b 137 1474 22 1408 75 1474 b 220 1427 165 1474 197 1459 b 492 685 404 1161 473 906 b 237 -172 524 327 393 -9 b 156 -214 209 -202 180 -214 b 88 -58 80 -214 35 -99 "},"*":{"ha":853,"x_min":0,"x_max":0,"o":"m 340 186 b 288 155 328 164 309 155 b 203 266 235 155 174 214 l 288 411 l 119 411 b 119 570 28 411 38 570 l 288 570 l 202 716 b 282 826 170 773 228 826 b 343 791 305 826 330 815 l 425 650 l 509 795 b 564 829 522 818 543 829 b 643 711 617 829 675 768 l 562 570 l 730 570 b 724 411 826 570 817 411 l 562 411 l 646 267 b 562 159 678 212 614 159 b 507 187 540 159 519 167 l 425 332 l 340 186 "},"+":{"ha":724,"x_min":0,"x_max":0,"o":"m 119 411 b 119 570 28 411 38 570 l 281 570 l 281 731 b 355 799 281 777 317 799 b 439 726 396 799 439 773 l 439 570 l 601 570 b 595 411 697 570 688 411 l 439 411 l 439 250 b 363 184 439 205 401 184 b 281 250 323 184 281 208 l 281 411 l 119 411 "},",":{"ha":330,"x_min":0,"x_max":0,"o":"m 247 203 b 194 -164 290 110 292 -90 b 155 -176 183 -172 170 -176 b 72 -68 95 -176 23 -115 b 96 136 141 0 111 95 b 193 231 76 191 140 231 b 247 203 216 231 237 222 "},"-":{"ha":724,"x_min":0,"x_max":0,"o":"m 119 411 b 119 570 28 411 38 570 l 601 570 b 595 411 697 570 688 411 l 119 411 "},".":{"ha":326,"x_min":0,"x_max":0,"o":"m 263 141 b 195 8 285 81 251 27 b 155 1 182 4 168 1 b 62 65 114 1 79 22 b 148 209 41 122 62 197 b 263 141 208 217 250 184 "},"/":{"ha":883,"x_min":0,"x_max":0,"o":"m 825 1180 b 193 20 620 798 425 388 b 149 -5 182 3 165 -5 b 60 104 98 -5 37 61 l 684 1246 b 730 1274 694 1265 712 1274 b 825 1180 781 1274 845 1218 "},":":{"ha":336,"x_min":0,"x_max":0,"o":"m 160 481 b 178 483 167 483 172 483 b 190 277 298 483 328 305 b 165 274 182 275 174 274 b 160 481 49 274 22 463 m 148 821 b 165 822 155 822 160 822 b 178 616 286 822 316 644 b 153 613 170 614 161 613 b 148 821 37 613 9 802 "},";":{"ha":350,"x_min":0,"x_max":0,"o":"m 267 203 b 214 -164 311 110 312 -90 b 175 -176 203 -172 190 -176 b 92 -68 115 -176 43 -115 b 117 136 161 0 132 95 b 213 231 96 191 160 231 b 267 203 236 231 258 222 m 148 551 b 165 552 155 552 160 552 b 178 346 286 552 316 374 b 153 343 170 345 161 343 b 148 551 37 343 9 532 "},"<":{"ha":538,"x_min":0,"x_max":0,"o":"m 91 376 b 121 598 35 406 45 560 l 388 730 b 416 736 399 735 408 736 b 448 582 484 736 511 613 l 227 475 l 444 366 b 400 216 519 328 463 216 b 374 222 391 216 382 218 "},"=":{"ha":724,"x_min":0,"x_max":0,"o":"m 119 267 b 119 426 28 267 38 426 l 601 426 b 595 267 697 426 688 267 l 119 267 m 119 553 b 119 712 28 553 38 712 l 601 712 b 595 553 697 712 688 553 l 119 553 "},">":{"ha":538,"x_min":0,"x_max":0,"o":"m 164 222 b 138 216 156 218 148 216 b 95 366 76 216 19 328 l 312 475 l 91 582 b 122 736 27 613 54 736 b 151 730 130 736 140 735 l 418 598 b 448 376 494 560 503 406 l 164 222 "},"?":{"ha":770,"x_min":0,"x_max":0,"o":"m 480 141 b 412 8 502 81 468 27 b 372 1 399 4 385 1 b 279 65 331 1 296 22 b 365 209 258 122 279 197 b 480 141 425 217 467 184 m 441 419 b 366 354 442 377 404 354 b 294 422 331 354 294 376 l 292 560 b 393 741 290 658 293 731 b 551 958 483 749 555 819 b 389 1131 548 1044 477 1131 b 197 964 293 1131 197 1069 b 129 911 197 930 163 911 b 56 978 92 911 57 932 b 380 1279 53 1142 208 1278 b 713 964 564 1280 689 1139 b 438 590 735 796 600 620 l 441 419 "},"@":{"ha":1278,"x_min":0,"x_max":0,"o":"m 1006 84 b 663 4 891 30 774 4 b 57 576 321 4 81 237 b 689 1280 33 918 248 1284 b 1222 719 974 1278 1204 1053 b 929 336 1237 437 1073 336 b 761 423 854 336 785 389 b 575 342 700 366 635 342 b 330 633 439 342 327 465 b 586 941 332 830 456 941 b 731 892 635 941 685 925 b 802 949 736 932 769 949 b 886 879 842 949 886 924 b 960 494 886 728 850 479 b 1062 745 1040 505 1074 604 b 671 1120 1040 983 864 1122 b 236 594 368 1119 220 848 b 665 163 250 370 392 161 b 977 250 783 163 878 198 b 997 255 983 254 990 255 b 1006 84 1055 255 1088 122 m 598 791 b 476 639 511 791 481 713 b 591 490 472 564 503 488 b 719 566 635 490 684 514 l 715 735 b 598 791 694 762 646 791 "},"A":{"ha":1002,"x_min":0,"x_max":0,"o":"m 381 1196 b 498 1284 404 1256 450 1284 b 625 1187 551 1284 604 1249 b 945 84 731 878 845 395 b 856 1 959 43 906 1 b 783 60 825 1 795 18 l 674 445 l 320 445 b 210 53 279 296 221 92 b 126 4 202 23 163 4 b 58 99 83 4 41 31 b 381 1196 99 260 323 1044 m 499 1059 b 363 601 498 1051 425 807 l 635 601 l 499 1059 "},"B":{"ha":863,"x_min":0,"x_max":0,"o":"m 182 1 b 56 151 71 1 56 49 l 58 1101 b 203 1278 58 1229 65 1278 b 690 954 571 1278 690 1161 b 589 718 690 852 640 761 b 755 572 659 685 718 635 b 807 365 789 518 808 442 b 610 56 806 224 724 115 b 182 1 487 -9 289 0 m 216 163 b 313 159 244 161 278 159 b 647 368 461 159 647 189 b 359 597 647 563 498 597 b 216 589 308 597 256 591 m 213 751 b 534 958 346 749 525 774 b 293 1116 543 1090 403 1116 b 216 1112 264 1116 237 1114 "},"C":{"ha":876,"x_min":0,"x_max":0,"o":"m 818 305 b 418 -1 762 134 601 -1 b 54 627 167 -1 50 308 b 434 1275 60 928 174 1234 b 483 1279 450 1278 467 1279 b 803 977 640 1279 776 1157 b 719 879 811 917 764 879 b 652 930 690 879 662 895 b 484 1114 614 1062 555 1114 b 221 616 274 1114 224 769 b 418 167 218 388 288 164 b 686 384 540 170 621 262 b 732 411 696 403 713 411 b 818 305 780 411 837 361 "},"D":{"ha":882,"x_min":0,"x_max":0,"o":"m 328 22 b 179 5 279 9 229 5 b 56 160 72 5 54 33 l 68 1133 b 187 1283 69 1230 76 1293 b 290 1274 222 1280 256 1278 b 826 738 586 1233 810 1085 b 328 22 844 345 612 85 m 228 160 b 665 699 444 180 665 376 b 243 1118 665 952 509 1107 "},"E":{"ha":760,"x_min":0,"x_max":0,"o":"m 625 5 b 190 1 480 1 335 1 b 62 187 62 1 64 43 l 56 1119 b 182 1283 54 1240 90 1284 b 625 1279 269 1283 412 1279 b 636 1122 732 1279 727 1123 b 216 1124 519 1120 251 1126 l 216 720 l 502 720 b 506 560 593 720 571 555 b 216 560 488 562 397 562 l 216 161 b 632 161 239 160 543 161 b 625 5 728 161 731 8 "},"F":{"ha":760,"x_min":0,"x_max":0,"o":"m 216 73 b 138 -1 216 23 178 -1 b 62 73 100 -1 62 23 l 56 1119 b 182 1283 54 1240 90 1284 b 625 1279 269 1283 412 1279 b 636 1122 732 1279 727 1123 b 216 1124 519 1120 251 1126 l 216 720 l 502 720 b 506 560 593 720 571 555 b 216 560 488 562 397 562 l 216 73 "},"G":{"ha":937,"x_min":0,"x_max":0,"o":"m 545 595 b 811 595 633 595 723 595 b 875 404 903 595 883 477 b 515 1 844 127 665 3 b 54 639 168 -1 46 350 b 519 1275 65 983 240 1264 b 532 1275 524 1275 528 1275 b 875 979 700 1275 857 1135 b 788 910 880 937 831 910 b 719 954 757 910 727 924 b 524 1115 696 1040 648 1115 b 214 636 349 1115 214 882 b 509 160 214 331 320 160 b 705 439 609 160 707 259 b 545 435 675 439 585 435 b 545 595 434 435 456 595 "},"H":{"ha":823,"x_min":0,"x_max":0,"o":"m 217 91 b 130 -5 217 30 172 -5 b 56 91 92 -5 56 24 l 57 1183 b 137 1284 57 1251 96 1284 b 217 1185 176 1284 217 1251 l 217 711 l 609 711 l 609 1183 b 689 1284 609 1251 648 1284 b 769 1185 728 1284 769 1251 l 769 91 b 682 -5 769 30 724 -5 b 608 91 644 -5 608 24 l 608 560 l 217 560 l 217 91 "},"I":{"ha":882,"x_min":0,"x_max":0,"o":"m 141 0 b 137 157 30 0 26 157 l 359 157 l 363 1122 l 141 1122 b 137 1279 30 1122 26 1279 l 747 1279 b 745 1122 860 1279 849 1122 l 524 1122 l 521 157 l 747 157 b 745 0 860 157 849 0 l 141 0 "},"J":{"ha":1084,"x_min":0,"x_max":0,"o":"m 56 365 b 136 444 54 415 95 444 b 214 370 172 444 209 420 b 393 160 224 286 267 152 b 564 1122 602 174 576 860 l 343 1122 b 339 1279 232 1122 228 1279 l 949 1279 b 947 1122 1062 1279 1051 1122 l 724 1122 b 382 0 739 777 787 0 b 56 365 224 0 60 152 "},"K":{"ha":883,"x_min":0,"x_max":0,"o":"m 817 123 b 741 -5 854 65 796 -5 b 678 37 718 -5 694 7 l 369 600 l 232 448 l 232 92 b 142 1 232 33 187 1 b 56 94 99 1 56 31 l 60 1192 b 144 1282 60 1251 102 1282 b 224 1192 184 1282 224 1252 b 227 675 224 1053 224 815 l 694 1251 b 753 1283 713 1274 734 1283 b 808 1145 808 1283 850 1199 l 480 735 b 817 123 480 727 671 345 "},"L":{"ha":787,"x_min":0,"x_max":0,"o":"m 658 163 b 658 3 747 163 764 3 l 190 3 b 54 140 68 3 54 76 l 56 1180 b 136 1282 56 1248 95 1282 b 216 1183 175 1282 216 1248 l 216 163 l 658 163 "},"M":{"ha":1131,"x_min":0,"x_max":0,"o":"m 214 79 b 130 0 216 27 172 0 b 54 80 91 0 52 26 b 73 1176 62 221 64 1035 b 191 1283 77 1248 133 1283 b 328 1194 247 1283 305 1252 l 566 600 l 802 1194 b 939 1283 825 1252 884 1283 b 1058 1176 998 1283 1053 1248 b 1076 80 1067 1035 1067 221 b 1000 0 1078 26 1039 0 b 917 79 959 0 916 27 b 911 1016 918 184 913 921 l 647 362 b 566 309 633 327 600 309 b 484 362 532 309 499 327 l 218 1016 b 214 79 217 921 212 184 "},"N":{"ha":936,"x_min":0,"x_max":0,"o":"m 214 81 b 130 3 216 31 172 3 b 58 77 94 3 58 26 l 54 1153 b 184 1276 54 1229 118 1276 b 315 1187 235 1276 286 1249 l 719 281 l 707 1184 b 787 1280 707 1249 746 1280 b 871 1184 829 1280 871 1248 l 880 99 b 757 0 882 42 819 0 b 646 72 713 0 669 22 l 212 1031 b 214 81 205 917 210 258 "},"O":{"ha":935,"x_min":0,"x_max":0,"o":"m 473 0 b 56 587 220 3 56 266 b 463 1275 56 924 187 1275 b 879 604 783 1275 878 854 b 473 0 882 298 724 -3 m 473 1107 b 220 597 311 1103 220 837 b 476 155 220 377 288 155 b 719 593 650 155 719 407 b 473 1107 719 796 650 1111 "},"P":{"ha":823,"x_min":0,"x_max":0,"o":"m 217 91 b 130 -5 217 30 172 -5 b 56 91 92 -5 56 24 l 57 1149 b 267 1280 57 1274 171 1280 b 768 888 518 1280 784 1187 b 217 500 751 598 469 486 l 217 91 m 217 666 b 273 661 231 663 250 661 b 609 901 389 661 606 711 b 300 1120 612 1073 450 1120 b 217 1116 271 1120 243 1119 l 217 666 "},"Q":{"ha":933,"x_min":0,"x_max":0,"o":"m 477 0 b 54 587 175 0 54 335 b 461 1275 54 924 186 1275 b 878 604 781 1275 876 854 b 779 201 879 457 844 312 l 837 121 b 770 -3 876 68 826 -3 b 715 28 751 -3 731 7 l 678 77 b 477 0 621 30 553 0 m 472 1107 b 218 597 309 1103 218 837 b 475 155 218 377 286 155 b 589 199 519 155 557 171 l 434 408 b 495 534 391 467 439 534 b 557 499 517 534 540 524 l 675 339 b 718 593 704 419 718 513 b 472 1107 718 796 648 1111 "},"R":{"ha":830,"x_min":0,"x_max":0,"o":"m 217 91 b 130 -5 217 30 172 -5 b 56 91 92 -5 56 24 l 57 1149 b 267 1280 57 1274 171 1280 b 768 888 518 1280 784 1187 b 414 515 755 673 597 555 l 758 127 b 692 -5 804 76 751 -5 b 639 20 674 -5 655 1 l 217 495 l 217 91 m 217 666 b 285 659 239 661 262 659 b 609 901 431 659 606 746 b 300 1120 612 1073 450 1120 b 217 1116 271 1120 243 1119 l 217 666 "},"S":{"ha":888,"x_min":0,"x_max":0,"o":"m 477 -3 b 71 275 285 -3 163 118 b 138 412 35 336 85 412 b 195 373 157 412 179 400 b 469 153 296 208 384 167 b 492 152 477 152 486 152 b 671 331 586 152 670 239 b 522 536 671 414 613 496 b 54 954 328 623 61 703 b 433 1279 50 1153 251 1279 b 783 1062 568 1279 738 1199 b 716 929 811 975 764 929 b 640 986 685 929 654 948 b 431 1119 612 1073 518 1119 b 218 954 338 1119 206 1062 b 574 688 236 800 458 741 b 833 317 765 600 844 486 b 477 -3 819 132 670 -3 "},"T":{"ha":882,"x_min":0,"x_max":0,"o":"m 363 1122 l 141 1122 b 137 1279 30 1122 26 1279 l 747 1279 b 745 1122 860 1279 849 1122 l 524 1122 l 521 98 b 439 3 521 35 480 3 b 359 98 399 3 359 34 "},"U":{"ha":837,"x_min":0,"x_max":0,"o":"m 779 1190 b 416 -1 779 883 845 -1 b 61 1195 -9 -1 56 883 b 142 1279 62 1252 102 1279 b 222 1195 182 1279 222 1251 b 406 168 222 1006 178 171 b 616 1194 682 163 612 990 b 696 1276 617 1249 656 1276 b 779 1190 736 1276 779 1246 "},"V":{"ha":937,"x_min":0,"x_max":0,"o":"m 589 81 b 472 0 574 28 522 0 b 366 66 427 0 384 22 b 61 1175 305 216 106 1032 b 130 1280 39 1245 84 1280 b 208 1225 163 1280 197 1263 b 469 233 239 1118 465 248 l 731 1213 b 807 1280 743 1259 776 1280 b 878 1157 853 1280 898 1234 l 589 81 "},"W":{"ha":1411,"x_min":0,"x_max":0,"o":"m 589 81 b 472 0 574 28 522 0 b 366 66 427 0 384 22 b 61 1175 305 216 106 1032 b 130 1280 39 1245 84 1280 b 208 1225 163 1280 197 1263 b 469 233 239 1118 465 248 l 628 826 b 705 890 639 869 671 890 b 783 827 738 890 772 868 l 941 233 b 1203 1225 945 248 1173 1118 b 1282 1280 1214 1263 1248 1280 b 1350 1175 1328 1280 1371 1245 b 1044 66 1305 1032 1105 216 b 939 0 1027 22 983 0 b 822 81 888 0 837 28 l 705 517 l 589 81 "},"X":{"ha":886,"x_min":0,"x_max":0,"o":"m 817 142 b 754 7 853 75 808 7 b 675 64 727 7 697 23 l 444 486 l 210 64 b 132 7 189 23 159 7 b 69 142 77 7 33 75 l 351 652 l 80 1145 b 136 1282 37 1222 83 1282 b 218 1225 165 1282 197 1264 l 444 818 l 667 1225 b 750 1282 689 1264 722 1282 b 807 1145 804 1282 849 1222 l 534 652 l 817 142 "},"Y":{"ha":949,"x_min":0,"x_max":0,"o":"m 563 85 b 472 1 563 31 517 1 b 384 85 427 1 384 30 l 387 625 l 68 1145 b 146 1279 30 1207 84 1279 b 231 1221 175 1279 208 1263 l 475 795 l 720 1221 b 804 1279 743 1263 776 1279 b 883 1145 867 1279 921 1207 l 564 625 "},"Z":{"ha":948,"x_min":0,"x_max":0,"o":"m 167 5 b 83 190 20 5 47 134 l 658 1107 l 141 1105 b 130 1272 34 1105 30 1268 b 773 1278 296 1279 610 1275 b 854 1065 907 1280 921 1165 l 273 174 l 793 171 b 793 5 929 170 922 5 "},"[":{"ha":524,"x_min":0,"x_max":0,"o":"m 245 1291 b 233 4 236 1134 212 170 l 395 8 b 404 -175 495 0 490 -171 b 206 -184 227 -182 229 -183 b 56 9 119 -190 52 -137 b 60 1284 58 102 58 547 b 210 1463 60 1419 126 1469 l 399 1461 b 385 1289 494 1457 490 1279 l 247 1291 "},"\\":{"ha":883,"x_min":0,"x_max":0,"o":"m 58 1180 b 153 1274 38 1217 102 1274 b 199 1246 172 1274 189 1265 l 823 104 b 724 3 846 60 785 3 b 674 18 707 3 689 7 "},"]":{"ha":524,"x_min":0,"x_max":0,"o":"m 278 -12 b 290 1275 288 145 312 1109 l 129 1271 b 119 1454 28 1279 34 1450 b 317 1463 297 1461 294 1462 b 468 1270 404 1469 472 1416 b 464 -5 465 1177 465 732 b 313 -184 464 -140 397 -190 l 125 -182 b 138 -9 30 -178 34 0 l 277 -12 "},"^":{"ha":479,"x_min":0,"x_max":0,"o":"m 133 608 b 241 682 156 656 199 682 b 339 618 279 682 317 662 l 418 465 b 347 387 442 418 393 387 b 285 420 320 387 294 397 l 233 538 l 176 408 b 129 387 170 393 151 387 b 60 454 88 387 39 412 "},"_":{"ha":724,"x_min":0,"x_max":0,"o":"m 119 7 b 119 165 28 7 38 165 l 601 165 b 595 7 697 165 688 7 l 119 7 "},"`":{"ha":430,"x_min":0,"x_max":0,"o":"m 72 1032 b 146 1160 22 1078 90 1160 b 184 1145 160 1160 174 1156 l 354 986 b 281 861 410 935 340 861 b 239 878 266 861 251 867 l 72 1032 "},"a":{"ha":772,"x_min":0,"x_max":0,"o":"m 718 96 b 628 7 718 41 671 7 b 551 99 589 7 551 35 b 324 16 490 53 401 16 b 349 817 -47 16 -31 819 b 551 739 407 817 481 792 b 637 833 556 800 597 833 b 718 727 678 833 718 799 l 718 96 m 551 528 b 368 654 498 612 430 654 b 359 654 365 654 362 654 b 366 171 168 642 161 168 b 551 298 430 172 500 217 "},"b":{"ha":808,"x_min":0,"x_max":0,"o":"m 212 54 b 132 -5 198 16 164 -5 b 56 91 92 -5 56 24 l 57 1183 b 137 1284 57 1251 96 1284 b 217 1185 176 1284 217 1251 l 221 803 b 384 834 279 825 334 834 b 750 326 629 834 776 602 b 388 12 730 118 557 12 b 212 54 327 12 266 26 m 221 237 b 382 178 263 198 323 178 b 587 340 477 178 571 231 b 366 663 612 511 511 663 b 224 617 321 663 274 650 "},"c":{"ha":762,"x_min":0,"x_max":0,"o":"m 397 -3 b 56 401 171 -3 58 197 b 407 834 53 612 168 826 b 416 834 410 834 412 834 b 701 601 529 834 675 760 b 618 514 711 544 662 514 b 553 555 589 514 562 526 b 416 669 528 640 480 669 b 216 407 278 669 218 526 b 393 157 213 281 271 157 b 597 271 492 157 530 206 b 629 285 606 281 617 285 b 686 136 681 285 741 201 b 397 -3 620 57 481 -3 "},"d":{"ha":796,"x_min":0,"x_max":0,"o":"m 742 91 b 655 -4 742 31 697 -4 b 582 75 621 -4 587 20 b 365 9 510 31 435 9 b 56 354 195 9 54 134 b 431 796 57 604 214 796 b 579 768 479 796 528 787 l 582 1183 b 662 1284 582 1251 621 1284 b 742 1185 701 1284 742 1251 l 742 91 m 218 358 b 388 182 218 232 298 182 b 579 263 458 182 534 214 l 579 568 b 435 632 532 613 481 632 b 218 358 316 632 218 507 "},"e":{"ha":772,"x_min":0,"x_max":0,"o":"m 385 -7 b 54 411 165 -7 54 202 b 404 836 54 623 170 836 b 707 511 586 836 707 682 b 632 396 707 467 688 397 l 218 382 b 403 142 224 274 282 142 b 582 250 481 142 537 191 b 646 285 601 274 624 285 b 693 156 701 285 747 216 b 385 -7 632 88 543 -7 m 541 557 b 411 690 532 643 473 690 b 236 545 324 690 262 623 b 339 543 258 544 294 543 b 541 557 403 543 480 545 "},"f":{"ha":732,"x_min":0,"x_max":0,"o":"m 361 81 b 279 1 362 27 321 1 b 197 76 237 1 195 27 b 199 644 201 264 201 454 l 136 644 b 134 804 34 644 24 804 l 198 804 b 464 1278 201 1016 235 1278 b 677 1013 606 1278 686 1179 b 600 960 675 979 636 960 b 534 1009 567 960 536 975 b 476 1119 532 1063 519 1119 b 355 804 362 1119 357 880 l 486 804 b 486 644 575 804 591 644 l 357 644 b 361 81 358 457 355 269 "},"g":{"ha":781,"x_min":0,"x_max":0,"o":"m 563 100 b 363 15 502 41 423 16 b 350 817 -50 1 -42 819 b 552 739 408 817 483 792 b 639 833 557 800 598 833 b 719 727 680 833 719 799 b 712 0 720 484 739 217 b 358 -353 688 -190 562 -353 b 95 -189 248 -353 144 -292 b 184 -90 71 -137 130 -90 b 243 -121 208 -90 231 -98 b 357 -195 267 -163 294 -194 b 563 100 465 -195 562 -85 m 552 528 b 369 654 499 612 431 654 b 361 654 366 654 363 654 b 368 171 170 642 163 168 b 552 298 431 172 502 217 "},"h":{"ha":750,"x_min":0,"x_max":0,"o":"m 457 642 b 380 670 437 662 410 670 b 217 585 315 670 263 629 l 217 91 b 130 -5 217 30 172 -5 b 56 91 92 -5 56 24 l 57 1183 b 137 1284 57 1251 96 1284 b 217 1185 176 1284 217 1251 l 217 780 b 407 842 274 817 339 842 b 581 765 477 842 532 812 b 693 68 709 639 699 244 b 604 -4 692 22 646 -4 b 528 65 563 -4 526 18 b 457 642 532 148 536 566 "},"i":{"ha":324,"x_min":0,"x_max":0,"o":"m 241 75 b 156 1 241 28 198 1 b 81 75 118 1 81 24 l 81 753 b 164 833 81 804 123 833 b 241 754 203 833 241 807 l 241 75 m 161 1114 b 171 906 307 1116 302 909 b 161 1114 42 903 23 1111 "},"j":{"ha":326,"x_min":0,"x_max":0,"o":"m 96 762 b 183 836 94 806 140 836 b 256 762 220 836 254 814 b 259 31 269 519 279 274 b -7 -342 243 -153 186 -342 b -243 -155 -126 -342 -224 -273 b -160 -77 -251 -109 -203 -77 b -90 -129 -129 -77 -99 -94 b -20 -183 -81 -164 -50 -183 b 102 47 76 -183 95 -22 b 96 762 123 266 106 544 m 161 1114 b 171 906 307 1116 302 909 b 161 1114 42 903 23 1111 "},"k":{"ha":711,"x_min":0,"x_max":0,"o":"m 643 141 b 576 1 680 65 632 1 b 492 65 547 1 515 20 l 267 518 l 231 494 b 228 71 229 363 231 109 b 140 -5 224 20 180 -5 b 61 65 100 -5 62 18 b 61 1191 56 315 52 853 b 140 1283 62 1253 100 1283 b 225 1191 180 1283 222 1249 b 228 680 231 1051 225 819 l 448 827 b 530 857 479 849 507 857 b 563 712 608 857 629 757 l 414 612 b 643 141 414 604 559 319 "},"l":{"ha":270,"x_min":0,"x_max":0,"o":"m 216 91 b 129 -5 216 30 171 -5 b 54 91 91 -5 54 24 l 56 1183 b 136 1284 56 1251 95 1284 b 216 1185 175 1284 216 1251 l 216 91 "},"m":{"ha":1073,"x_min":0,"x_max":0,"o":"m 214 75 b 129 1 214 28 171 1 b 54 75 91 1 54 24 l 54 753 b 138 834 54 806 98 834 b 209 785 170 834 198 819 b 357 833 250 812 301 833 b 549 734 420 833 488 807 b 746 833 604 803 688 833 b 983 628 872 833 945 738 b 1017 339 1015 536 1016 435 b 1016 77 1017 283 1016 133 b 929 4 1016 31 971 4 b 859 71 892 4 859 24 b 859 330 859 125 860 274 b 830 583 857 414 856 503 b 742 666 814 632 777 666 b 631 528 677 666 642 575 b 620 90 608 418 623 182 b 536 24 618 46 576 24 b 456 87 495 24 456 45 b 433 582 457 144 463 453 b 334 667 420 635 377 667 b 221 544 286 667 236 631 b 214 75 195 408 214 91 "},"n":{"ha":741,"x_min":0,"x_max":0,"o":"m 500 480 b 376 659 488 553 471 659 b 217 574 312 659 263 618 l 217 91 b 130 -5 217 30 172 -5 b 56 91 92 -5 56 24 l 57 747 b 145 837 57 807 103 837 b 217 769 182 837 217 815 b 403 831 274 806 334 831 b 669 500 583 831 647 650 b 684 68 692 347 686 172 b 594 -4 682 22 636 -4 b 518 65 553 -4 517 18 b 500 480 521 122 524 330 "},"o":{"ha":799,"x_min":0,"x_max":0,"o":"m 400 7 b 56 389 179 7 56 182 b 399 827 47 593 164 827 b 419 827 406 827 412 827 b 400 7 857 803 854 7 m 412 670 b 213 391 326 681 213 610 b 397 152 213 285 259 151 b 412 670 656 155 629 637 "},"p":{"ha":793,"x_min":0,"x_max":0,"o":"m 210 776 b 392 821 266 806 328 821 b 735 514 555 821 716 719 b 369 23 761 235 606 23 b 220 49 321 23 271 31 l 216 -248 b 134 -347 214 -313 175 -347 b 56 -245 95 -347 56 -313 l 54 741 b 129 836 54 807 91 836 b 210 776 161 836 197 814 m 222 231 b 355 190 269 202 313 190 b 575 499 495 190 600 327 b 384 656 560 608 473 656 b 220 594 324 656 263 635 l 222 231 "},"q":{"ha":779,"x_min":0,"x_max":0,"o":"m 724 -269 b 639 -342 724 -315 681 -342 b 564 -269 601 -342 564 -319 l 564 49 b 396 1 506 19 442 1 b 54 397 170 1 57 193 b 406 830 52 608 167 821 b 412 830 408 830 410 830 b 572 789 461 830 519 817 b 647 833 586 818 617 833 b 724 754 686 833 724 807 l 724 -269 m 564 576 b 411 665 533 643 469 665 b 214 403 283 662 217 532 b 392 161 212 277 270 161 b 564 244 475 161 515 195 "},"r":{"ha":661,"x_min":0,"x_max":0,"o":"m 217 96 b 129 5 217 41 171 5 b 54 96 90 5 54 33 l 54 726 b 140 833 54 796 96 833 b 212 781 168 833 197 817 l 212 783 b 378 833 256 817 323 833 b 391 833 382 833 387 833 b 605 571 534 829 613 709 b 528 518 604 537 564 518 b 463 567 495 518 464 533 b 380 678 458 629 442 677 b 220 505 304 680 231 597 b 217 96 202 368 217 203 "},"s":{"ha":716,"x_min":0,"x_max":0,"o":"m 213 600 b 659 259 218 438 694 627 b 368 0 646 130 545 0 b 87 107 270 0 159 43 b 122 262 33 155 62 262 b 168 240 136 262 152 255 b 350 156 216 198 298 156 b 503 270 444 156 498 214 b 56 609 519 464 39 245 b 347 834 64 769 203 834 b 555 785 416 834 494 818 b 509 636 678 719 612 586 b 342 675 456 661 400 675 b 213 600 271 675 210 658 "},"t":{"ha":651,"x_min":0,"x_max":0,"o":"m 406 91 b 319 -5 406 30 361 -5 b 244 91 281 -5 244 24 l 245 644 l 95 644 b 94 804 -7 644 -16 804 l 245 804 l 245 1183 b 326 1284 245 1251 285 1284 b 406 1185 365 1284 406 1251 l 406 804 l 563 804 b 563 644 652 804 669 644 l 406 644 l 406 91 "},"u":{"ha":785,"x_min":0,"x_max":0,"o":"m 731 96 b 644 5 731 41 686 5 b 572 79 610 5 578 27 b 377 8 514 35 445 7 b 60 761 35 20 47 444 b 141 837 62 811 102 837 b 218 768 179 837 216 814 b 217 491 221 715 212 604 b 372 174 225 335 266 171 b 571 453 507 176 571 316 l 571 753 b 654 836 571 806 613 836 b 731 754 693 836 731 808 l 731 96 "},"v":{"ha":783,"x_min":0,"x_max":0,"o":"m 509 85 b 392 0 490 28 441 0 b 283 72 347 0 302 24 b 60 718 221 224 106 568 b 136 838 39 785 87 838 b 206 781 163 838 191 822 b 391 235 244 680 387 250 l 562 769 b 646 842 578 821 612 842 b 720 713 697 842 746 789 l 509 85 "},"w":{"ha":1238,"x_min":0,"x_max":0,"o":"m 509 85 b 392 0 490 28 441 0 b 283 72 347 0 302 24 b 60 718 221 224 106 568 b 136 838 39 785 87 838 b 206 781 163 838 191 822 b 391 235 244 680 387 250 l 530 670 b 620 758 544 712 571 758 b 708 670 670 758 694 712 l 848 235 b 1032 781 852 250 994 680 b 1103 838 1047 822 1076 838 b 1179 718 1152 838 1199 785 b 955 72 1133 568 1017 224 b 846 0 936 24 891 0 b 730 85 798 0 749 28 l 618 414 l 509 85 "},"x":{"ha":730,"x_min":0,"x_max":0,"o":"m 663 119 b 587 1 700 66 644 1 b 526 37 566 1 543 12 l 365 277 l 203 37 b 142 1 187 12 164 1 b 66 119 87 1 31 66 l 269 420 l 73 711 b 144 834 34 770 88 834 b 209 796 167 834 191 823 l 365 564 l 521 796 b 586 834 538 823 563 834 b 656 711 643 834 697 770 l 461 420 l 663 119 "},"y":{"ha":856,"x_min":0,"x_max":0,"o":"m 463 -285 b 387 -345 449 -328 418 -345 b 300 -251 335 -345 283 -301 l 397 62 l 64 716 b 138 836 33 777 85 836 b 205 791 164 836 189 822 l 468 275 l 636 787 b 707 840 648 825 677 840 b 798 739 758 840 815 792 l 463 -285 "},"z":{"ha":726,"x_min":0,"x_max":0,"o":"m 170 -1 b 85 190 23 -3 45 137 l 465 677 l 149 670 b 138 827 38 667 26 825 b 544 829 292 830 381 826 b 625 616 678 831 707 720 l 267 156 l 568 159 b 568 3 692 160 696 4 "},"{":{"ha":686,"x_min":0,"x_max":0,"o":"m 232 426 b 56 566 178 481 53 480 b 252 757 58 690 311 621 b 553 1432 165 956 307 1412 b 583 1291 647 1440 655 1303 b 430 757 435 1265 346 947 b 323 553 461 685 441 620 b 445 334 396 483 434 400 b 551 -73 468 194 387 -68 b 544 -237 629 -77 629 -244 b 286 278 235 -213 296 69 b 232 426 283 332 274 382 "},"|":{"ha":270,"x_min":0,"x_max":0,"o":"m 216 91 b 129 -5 216 30 171 -5 b 54 91 91 -5 54 24 l 56 1183 b 136 1284 56 1251 95 1284 b 216 1185 175 1284 216 1251 l 216 91 "},"}":{"ha":686,"x_min":0,"x_max":0,"o":"m 434 757 b 631 553 374 620 650 689 b 454 426 620 479 507 481 b 400 278 412 382 403 332 b 142 -237 391 69 452 -213 b 136 -73 57 -244 57 -76 b 241 334 300 -66 218 194 b 363 553 252 400 290 483 b 256 757 245 620 225 685 b 103 1291 340 947 251 1265 b 125 1432 34 1303 39 1432 b 133 1432 127 1432 130 1432 b 434 757 380 1412 521 956 "},"~":{"ha":857,"x_min":0,"x_max":0,"o":"m 137 416 b 54 492 92 416 54 448 b 286 681 57 600 190 681 b 556 593 395 681 463 581 b 722 726 655 608 640 726 b 788 688 751 726 774 709 b 770 555 814 648 800 604 b 534 420 719 475 633 420 b 286 514 423 420 381 514 b 137 416 195 514 212 416 "},"¡":{"ha":315,"x_min":0,"x_max":0,"o":"m 83 907 b 160 986 83 960 121 986 b 243 906 201 986 243 958 l 243 30 b 168 -43 243 -20 206 -43 b 83 30 126 -43 83 -16 m 163 1267 b 153 1059 302 1264 283 1057 b 163 1267 22 1062 19 1270 "},"¢":{"ha":762,"x_min":0,"x_max":0,"o":"m 476 125 b 389 28 476 64 431 28 b 315 125 351 28 315 58 l 315 145 b 56 540 144 187 58 362 b 316 959 53 722 140 906 l 316 985 b 396 1086 316 1053 357 1086 b 476 987 437 1086 476 1053 l 476 966 b 701 739 575 944 680 871 b 618 652 711 682 662 652 b 553 693 589 652 562 665 b 476 795 537 749 510 780 l 476 312 b 597 410 521 331 553 366 b 629 423 606 419 617 423 b 686 274 681 423 741 339 b 476 148 639 217 552 170 l 476 125 m 316 776 b 216 545 251 728 217 636 b 316 316 214 450 247 355 "},"£":{"ha":732,"x_min":0,"x_max":0,"o":"m 581 165 b 575 7 677 165 667 7 l 313 7 b 198 121 254 7 195 30 b 199 644 201 294 201 469 l 136 644 b 134 804 34 644 24 804 l 198 804 b 464 1278 201 1016 235 1278 b 677 1013 606 1278 686 1179 b 600 960 675 979 636 960 b 534 1009 567 960 536 975 b 476 1119 532 1063 519 1119 b 355 804 362 1119 357 880 l 486 804 b 486 644 575 804 591 644 l 357 644 b 359 165 358 486 357 326 "},"¤":{"ha":562,"x_min":0,"x_max":0,"o":"m 262 850 b 355 834 297 852 330 846 l 395 892 b 442 920 408 911 426 920 b 494 830 484 920 522 873 l 444 755 b 438 490 491 675 491 564 l 499 400 b 442 313 525 361 484 313 b 399 338 427 313 411 320 l 343 422 b 288 414 327 416 308 414 b 220 422 263 412 240 416 l 163 338 b 119 313 151 320 136 313 b 64 400 79 313 38 361 l 123 488 b 113 765 64 566 60 685 l 69 830 b 119 920 39 873 79 920 b 168 892 137 920 155 911 l 203 838 b 262 850 221 844 241 848 m 279 560 b 275 700 350 560 334 700 b 279 560 205 700 197 560 "},"¥":{"ha":949,"x_min":0,"x_max":0,"o":"m 564 609 l 715 609 b 709 450 811 609 802 450 l 564 450 l 563 323 l 715 323 b 709 164 811 323 802 164 l 563 164 l 563 85 b 472 1 563 31 517 1 b 384 85 427 1 384 30 l 384 164 l 233 164 b 233 323 142 164 152 323 l 385 323 l 385 450 l 233 450 b 233 609 142 450 152 609 l 387 609 l 387 625 l 68 1145 b 146 1279 30 1207 84 1279 b 231 1221 175 1279 208 1263 l 475 795 l 720 1221 b 804 1279 743 1263 776 1279 b 883 1145 867 1279 921 1207 l 564 625 "},"§":{"ha":715,"x_min":0,"x_max":0,"o":"m 212 994 b 439 869 214 914 324 878 b 658 617 586 859 671 783 b 608 488 655 570 637 525 b 658 311 646 454 667 400 b 366 52 646 182 544 52 b 85 159 269 52 157 95 b 121 313 31 206 61 313 b 167 292 134 313 151 307 b 349 208 214 250 297 208 b 502 321 442 208 498 266 b 422 397 507 384 467 397 b 340 391 393 397 363 392 b 54 624 227 384 46 442 b 142 802 58 701 92 761 b 54 1004 88 838 50 897 b 346 1229 62 1164 202 1229 b 553 1180 415 1229 492 1213 b 507 1031 677 1114 610 981 b 340 1070 454 1055 399 1070 b 212 994 271 1070 210 1053 m 363 712 b 350 712 359 712 354 712 b 328 547 205 712 134 562 b 354 545 336 547 346 545 b 363 712 538 545 574 700 "},"¨":{"ha":625,"x_min":0,"x_max":0,"o":"m 148 1084 b 165 1085 155 1085 160 1085 b 178 879 286 1085 316 907 b 153 876 170 878 161 876 b 148 1084 37 876 9 1065 m 449 1084 b 467 1085 456 1085 461 1085 b 479 879 587 1085 617 907 b 454 876 471 878 463 876 b 449 1084 338 876 311 1065 "},"©":{"ha":1206,"x_min":0,"x_max":0,"o":"m 1150 644 b 614 37 1160 308 960 35 b 56 644 266 38 52 304 b 602 1251 58 948 248 1251 b 1150 644 943 1251 1141 960 m 602 273 b 294 636 399 273 297 452 b 617 1025 293 829 404 1025 b 876 815 719 1025 852 959 b 800 736 884 764 841 736 b 743 773 774 736 750 749 b 620 876 720 850 677 876 b 439 640 495 876 441 747 b 600 416 437 528 490 416 b 783 518 688 416 722 460 b 812 530 791 526 802 530 b 863 396 859 530 911 454 b 602 273 803 326 678 273 m 1016 644 b 625 1119 1013 884 886 1116 b 194 644 357 1122 195 903 b 627 172 193 408 334 172 b 1016 644 891 172 1017 408 "},"«":{"ha":1020,"x_min":0,"x_max":0,"o":"m 91 179 b 121 401 35 209 45 363 l 388 533 b 416 540 399 538 408 540 b 448 385 483 540 510 416 l 227 278 l 444 170 b 400 19 519 132 463 19 b 374 26 391 19 382 22 m 572 179 b 602 401 517 209 526 363 l 869 533 b 898 540 880 538 890 540 b 929 385 964 540 991 416 l 708 278 l 925 170 b 882 19 1001 132 944 19 b 856 26 872 19 864 22 "},"®":{"ha":1206,"x_min":0,"x_max":0,"o":"m 1150 644 b 614 37 1160 308 960 35 b 56 644 266 38 52 304 b 602 1251 58 948 248 1251 b 1150 644 943 1251 1141 960 m 532 324 b 469 269 532 289 500 269 b 415 324 442 269 415 285 l 416 949 b 543 1027 416 1024 486 1027 b 836 796 689 1027 846 971 b 627 575 829 669 735 598 l 830 346 b 749 270 857 316 796 270 b 709 288 732 270 719 275 l 532 511 l 532 324 m 1016 644 b 625 1119 1013 884 886 1116 b 194 644 357 1122 195 903 b 627 172 193 408 334 172 b 1016 644 891 172 1017 408 m 532 697 b 587 690 551 693 568 690 b 718 807 658 690 720 724 b 532 905 716 891 632 916 l 532 697 "},"¯":{"ha":724,"x_min":0,"x_max":0,"o":"m 119 890 b 119 1048 28 890 38 1048 l 601 1048 b 595 890 697 1048 688 890 l 119 890 "},"°":{"ha":513,"x_min":0,"x_max":0,"o":"m 241 1232 b 256 1232 247 1232 252 1232 b 267 795 514 1232 532 800 b 241 1232 -1 789 -20 1214 m 259 941 b 255 1082 330 941 313 1082 b 259 941 184 1082 176 941 "},"±":{"ha":724,"x_min":0,"x_max":0,"o":"m 119 168 b 119 327 28 168 38 327 l 601 327 b 595 168 697 327 688 168 l 119 168 m 119 600 b 119 758 28 600 38 758 l 281 758 l 281 920 b 355 987 281 966 317 987 b 439 914 396 987 439 962 l 439 758 l 601 758 b 595 600 697 758 688 600 l 439 600 l 439 438 b 363 373 439 393 401 373 b 281 438 323 373 281 396 l 281 600 l 119 600 "},"´":{"ha":430,"x_min":0,"x_max":0,"o":"m 245 1145 b 283 1160 256 1156 270 1160 b 358 1032 340 1160 408 1078 l 191 878 b 149 861 179 867 164 861 b 76 986 90 861 20 935 l 245 1145 "},"·":{"ha":336,"x_min":0,"x_max":0,"o":"m 148 587 b 165 589 155 589 160 589 b 178 382 286 589 316 411 b 153 380 170 381 161 380 b 148 587 37 380 9 568 "},"¸":{"ha":387,"x_min":0,"x_max":0,"o":"m 164 -12 b 134 -373 407 -24 376 -381 b 122 -259 65 -373 64 -255 b 129 -134 252 -269 243 -123 b 56 69 53 -141 56 -107 l 167 69 l 164 -12 "},"»":{"ha":1019,"x_min":0,"x_max":0,"o":"m 164 26 b 138 19 156 22 148 19 b 95 170 76 19 19 132 l 312 278 l 91 385 b 122 540 27 416 54 540 b 151 533 130 540 140 538 l 418 401 b 448 179 494 363 502 209 l 164 26 m 646 26 b 620 19 637 22 629 19 b 576 170 557 19 500 132 l 793 278 l 572 385 b 604 540 509 416 536 540 b 632 533 612 540 621 538 l 899 401 b 929 179 975 363 983 209 l 646 26 "},"¿":{"ha":769,"x_min":0,"x_max":0,"o":"m 330 780 b 403 845 328 822 366 845 b 476 777 439 845 475 823 l 479 639 b 377 458 480 541 477 468 b 220 241 288 450 216 380 b 381 68 222 155 292 68 b 574 235 477 68 574 130 b 642 288 574 269 608 288 b 715 221 678 288 713 267 b 391 -80 716 57 563 -79 b 57 235 205 -81 80 58 b 332 609 34 403 171 579 l 330 780 m 289 1057 b 358 1191 269 1118 301 1171 b 397 1198 372 1195 385 1198 b 491 1134 438 1198 473 1177 b 406 990 513 1077 490 1002 b 289 1057 345 982 304 1015 "},"À":{"ha":1002,"x_min":0,"x_max":0,"o":"m 381 1196 b 498 1284 404 1256 450 1284 b 625 1187 551 1284 604 1249 b 945 84 731 878 845 395 b 856 1 959 43 906 1 b 783 60 825 1 795 18 l 674 445 l 320 445 b 210 53 279 296 221 92 b 126 4 202 23 163 4 b 58 99 83 4 41 31 b 381 1196 99 260 323 1044 m 358 1477 b 433 1605 308 1523 376 1605 b 471 1590 446 1605 460 1600 l 640 1431 b 567 1306 696 1379 628 1306 b 525 1322 552 1306 537 1312 l 358 1477 m 499 1059 b 363 601 498 1051 425 807 l 635 601 l 499 1059 "},"Á":{"ha":1002,"x_min":0,"x_max":0,"o":"m 381 1196 b 498 1284 404 1256 450 1284 b 625 1187 551 1284 604 1249 b 945 84 731 878 845 395 b 856 1 959 43 906 1 b 783 60 825 1 795 18 l 674 445 l 320 445 b 210 53 279 296 221 92 b 126 4 202 23 163 4 b 58 99 83 4 41 31 b 381 1196 99 260 323 1044 m 532 1590 b 570 1605 543 1600 556 1605 b 644 1477 627 1605 694 1523 l 477 1322 b 435 1306 465 1312 450 1306 b 362 1431 374 1306 307 1379 l 532 1590 m 499 1059 b 363 601 498 1051 425 807 l 635 601 l 499 1059 "},"Â":{"ha":1002,"x_min":0,"x_max":0,"o":"m 381 1196 b 498 1284 404 1256 450 1284 b 625 1187 551 1284 604 1249 b 945 84 731 878 845 395 b 856 1 959 43 906 1 b 783 60 825 1 795 18 l 674 445 l 320 445 b 210 53 279 296 221 92 b 126 4 202 23 163 4 b 58 99 83 4 41 31 b 381 1196 99 260 323 1044 m 380 1550 b 503 1634 406 1606 456 1634 b 614 1563 547 1634 590 1611 l 704 1388 b 624 1299 731 1333 675 1299 b 552 1337 593 1299 563 1310 l 494 1472 l 429 1324 b 374 1298 420 1306 399 1298 b 297 1375 328 1298 274 1328 m 499 1059 b 363 601 498 1051 425 807 l 635 601 l 499 1059 "},"Ã":{"ha":1002,"x_min":0,"x_max":0,"o":"m 381 1196 b 498 1284 404 1256 450 1284 b 625 1187 551 1284 604 1249 b 945 84 731 878 845 395 b 856 1 959 43 906 1 b 783 60 825 1 795 18 l 674 445 l 320 445 b 210 53 279 296 221 92 b 126 4 202 23 163 4 b 58 99 83 4 41 31 b 381 1196 99 260 323 1044 m 210 1301 b 127 1377 165 1301 126 1331 b 359 1565 129 1482 263 1565 b 629 1477 468 1565 536 1463 b 795 1610 728 1491 713 1610 b 861 1572 825 1610 848 1594 b 844 1439 887 1533 873 1487 b 608 1305 792 1358 707 1305 b 359 1398 496 1305 454 1398 b 210 1301 269 1398 285 1301 m 499 1059 b 363 601 498 1051 425 807 l 635 601 l 499 1059 "},"Ä":{"ha":1002,"x_min":0,"x_max":0,"o":"m 381 1196 b 498 1284 404 1256 450 1284 b 625 1187 551 1284 604 1249 b 945 84 731 878 845 395 b 856 1 959 43 906 1 b 783 60 825 1 795 18 l 674 445 l 320 445 b 210 53 279 296 221 92 b 126 4 202 23 163 4 b 58 99 83 4 41 31 b 381 1196 99 260 323 1044 m 336 1529 b 354 1530 343 1530 349 1530 b 366 1324 475 1530 505 1352 b 342 1321 358 1322 350 1321 b 336 1529 225 1321 198 1510 m 637 1529 b 655 1530 644 1530 650 1530 b 667 1324 776 1530 806 1352 b 643 1321 659 1322 651 1321 b 637 1529 526 1321 499 1510 m 499 1059 b 363 601 498 1051 425 807 l 635 601 l 499 1059 "},"Å":{"ha":1002,"x_min":0,"x_max":0,"o":"m 305 1427 b 503 1607 309 1548 407 1607 b 699 1428 601 1607 699 1546 b 572 1260 699 1340 642 1283 b 625 1187 595 1244 614 1218 b 945 84 731 878 845 395 b 856 1 959 43 906 1 b 783 60 825 1 795 18 l 674 445 l 320 445 b 210 53 279 296 221 92 b 126 4 202 23 163 4 b 58 99 83 4 41 31 b 381 1196 99 260 323 1044 b 425 1259 392 1223 407 1244 b 305 1427 358 1280 305 1336 m 499 1059 b 363 601 498 1051 425 807 l 635 601 l 499 1059 m 444 1426 b 496 1385 442 1398 468 1385 b 557 1424 525 1385 556 1400 b 496 1472 559 1454 528 1472 b 444 1426 471 1472 445 1458 "},"Æ":{"ha":1389,"x_min":0,"x_max":0,"o":"m 595 1192 b 811 1283 646 1279 724 1284 b 1255 1279 898 1283 1042 1279 b 1265 1122 1362 1279 1356 1123 b 845 1124 1149 1120 880 1126 l 845 720 l 1131 720 b 1135 560 1222 720 1200 555 b 845 560 1118 562 1027 562 l 845 161 b 1261 161 868 160 1172 161 b 1255 5 1358 161 1360 8 b 819 1 1109 1 964 1 b 692 187 692 1 693 43 l 690 441 l 392 441 b 209 50 324 293 224 91 b 119 -7 195 12 156 -7 b 65 95 75 -7 34 26 b 595 1192 137 256 509 1040 m 689 597 l 685 1051 b 465 597 667 1013 559 789 "},"Ç":{"ha":876,"x_min":0,"x_max":0,"o":"m 463 -19 b 433 -380 705 -31 674 -388 b 420 -266 363 -380 362 -262 b 427 -141 551 -275 541 -130 b 354 5 361 -146 355 -121 b 54 627 148 53 50 336 b 434 1275 60 928 174 1234 b 483 1279 450 1278 467 1279 b 803 977 640 1279 776 1157 b 719 879 811 917 764 879 b 652 930 690 879 662 895 b 484 1114 614 1062 555 1114 b 221 616 274 1114 224 769 b 418 167 218 388 288 164 b 686 384 540 170 621 262 b 732 411 696 403 713 411 b 818 305 780 411 837 361 b 464 1 768 149 627 22 l 463 -19 "},"È":{"ha":760,"x_min":0,"x_max":0,"o":"m 625 5 b 190 1 480 1 335 1 b 62 187 62 1 64 43 l 56 1119 b 182 1283 54 1240 90 1284 b 625 1279 269 1283 412 1279 b 636 1122 732 1279 727 1123 b 216 1124 519 1120 251 1126 l 216 720 l 502 720 b 506 560 593 720 571 555 b 216 560 488 562 397 562 l 216 161 b 632 161 239 160 543 161 b 625 5 728 161 731 8 m 237 1477 b 312 1605 187 1523 255 1605 b 350 1590 326 1605 339 1600 l 519 1431 b 446 1306 575 1379 506 1306 b 404 1322 431 1306 416 1312 l 237 1477 "},"É":{"ha":760,"x_min":0,"x_max":0,"o":"m 625 5 b 190 1 480 1 335 1 b 62 187 62 1 64 43 l 56 1119 b 182 1283 54 1240 90 1284 b 625 1279 269 1283 412 1279 b 636 1122 732 1279 727 1123 b 216 1124 519 1120 251 1126 l 216 720 l 502 720 b 506 560 593 720 571 555 b 216 560 488 562 397 562 l 216 161 b 632 161 239 160 543 161 b 625 5 728 161 731 8 m 410 1590 b 448 1605 420 1600 434 1605 b 522 1477 505 1605 572 1523 l 355 1322 b 313 1306 343 1312 328 1306 b 240 1431 254 1306 184 1379 l 410 1590 "},"Ê":{"ha":760,"x_min":0,"x_max":0,"o":"m 625 5 b 190 1 480 1 335 1 b 62 187 62 1 64 43 l 56 1119 b 182 1283 54 1240 90 1284 b 625 1279 269 1283 412 1279 b 636 1122 732 1279 727 1123 b 216 1124 519 1120 251 1126 l 216 720 l 502 720 b 506 560 593 720 571 555 b 216 560 488 562 397 562 l 216 161 b 632 161 239 160 543 161 b 625 5 728 161 731 8 m 258 1550 b 381 1634 283 1606 334 1634 b 492 1563 425 1634 468 1611 l 582 1388 b 502 1299 609 1333 553 1299 b 430 1337 471 1299 441 1310 l 372 1472 l 307 1324 b 252 1298 298 1306 277 1298 b 175 1375 208 1298 153 1328 "},"Ë":{"ha":760,"x_min":0,"x_max":0,"o":"m 625 5 b 190 1 480 1 335 1 b 62 187 62 1 64 43 l 56 1119 b 182 1283 54 1240 90 1284 b 625 1279 269 1283 412 1279 b 636 1122 732 1279 727 1123 b 216 1124 519 1120 251 1126 l 216 720 l 502 720 b 506 560 593 720 571 555 b 216 560 488 562 397 562 l 216 161 b 632 161 239 160 543 161 b 625 5 728 161 731 8 m 216 1529 b 233 1530 222 1530 228 1530 b 245 1324 354 1530 384 1352 b 221 1321 237 1322 229 1321 b 216 1529 104 1321 77 1510 m 517 1529 b 534 1530 524 1530 529 1530 b 547 1324 655 1530 685 1352 b 522 1321 538 1322 530 1321 b 517 1529 406 1321 378 1510 "},"Ì":{"ha":882,"x_min":0,"x_max":0,"o":"m 141 0 b 137 157 30 0 26 157 l 359 157 l 363 1122 l 141 1122 b 137 1279 30 1122 26 1279 l 747 1279 b 745 1122 860 1279 849 1122 l 524 1122 l 521 157 l 747 157 b 745 0 860 157 849 0 l 141 0 m 298 1477 b 373 1605 248 1523 316 1605 b 411 1590 387 1605 400 1600 l 581 1431 b 507 1306 636 1379 567 1306 b 465 1322 492 1306 477 1312 l 298 1477 "},"Í":{"ha":882,"x_min":0,"x_max":0,"o":"m 141 0 b 137 157 30 0 26 157 l 359 157 l 363 1122 l 141 1122 b 137 1279 30 1122 26 1279 l 747 1279 b 745 1122 860 1279 849 1122 l 524 1122 l 521 157 l 747 157 b 745 0 860 157 849 0 l 141 0 m 471 1590 b 509 1605 481 1600 495 1605 b 583 1477 566 1605 633 1523 l 416 1322 b 374 1306 404 1312 389 1306 b 301 1431 315 1306 245 1379 l 471 1590 "},"Î":{"ha":882,"x_min":0,"x_max":0,"o":"m 141 0 b 137 157 30 0 26 157 l 359 157 l 363 1122 l 141 1122 b 137 1279 30 1122 26 1279 l 747 1279 b 745 1122 860 1279 849 1122 l 524 1122 l 521 157 l 747 157 b 745 0 860 157 849 0 l 141 0 m 319 1550 b 442 1634 345 1606 395 1634 b 553 1563 486 1634 529 1611 l 643 1388 b 563 1299 670 1333 614 1299 b 491 1337 532 1299 502 1310 l 433 1472 l 368 1324 b 313 1298 359 1306 338 1298 b 236 1375 269 1298 214 1328 "},"Ï":{"ha":882,"x_min":0,"x_max":0,"o":"m 141 0 b 137 157 30 0 26 157 l 359 157 l 363 1122 l 141 1122 b 137 1279 30 1122 26 1279 l 747 1279 b 745 1122 860 1279 849 1122 l 524 1122 l 521 157 l 747 157 b 745 0 860 157 849 0 l 141 0 m 277 1529 b 294 1530 283 1530 289 1530 b 307 1324 415 1530 445 1352 b 282 1321 298 1322 290 1321 b 277 1529 165 1321 138 1510 m 578 1529 b 595 1530 585 1530 590 1530 b 608 1324 716 1530 746 1352 b 583 1321 600 1322 591 1321 b 578 1529 467 1321 439 1510 "},"Ð":{"ha":1016,"x_min":0,"x_max":0,"o":"m 119 606 b 119 765 28 606 38 765 l 198 765 l 202 1133 b 321 1283 203 1230 210 1293 b 425 1274 357 1280 391 1278 b 960 738 720 1233 944 1085 b 463 22 978 345 746 85 b 313 5 414 9 363 5 b 190 160 206 5 189 33 l 195 606 l 119 606 m 372 765 l 601 765 b 595 606 697 765 689 606 l 369 606 l 362 160 b 799 699 578 180 799 376 b 377 1118 799 952 643 1107 "},"Ñ":{"ha":936,"x_min":0,"x_max":0,"o":"m 214 81 b 130 3 216 31 172 3 b 58 77 94 3 58 26 l 54 1153 b 184 1276 54 1229 118 1276 b 315 1187 235 1276 286 1249 l 719 281 l 707 1184 b 787 1280 707 1249 746 1280 b 871 1184 829 1280 871 1248 l 880 99 b 757 0 882 42 819 0 b 646 72 713 0 669 22 l 212 1031 b 214 81 205 917 210 258 m 176 1301 b 95 1377 133 1301 94 1331 b 326 1565 96 1482 231 1565 b 595 1477 434 1565 502 1463 b 761 1610 694 1491 680 1610 b 827 1572 791 1610 814 1594 b 810 1439 853 1533 841 1487 b 574 1305 760 1358 673 1305 b 326 1398 463 1305 420 1398 b 176 1301 235 1398 251 1301 "},"Ò":{"ha":935,"x_min":0,"x_max":0,"o":"m 473 0 b 56 587 220 3 56 266 b 463 1275 56 924 187 1275 b 879 604 783 1275 878 854 b 473 0 882 298 724 -3 m 324 1477 b 399 1605 274 1523 342 1605 b 437 1590 412 1605 426 1600 l 606 1431 b 533 1306 662 1379 594 1306 b 491 1322 518 1306 503 1312 l 324 1477 m 473 1107 b 220 597 311 1103 220 837 b 476 155 220 377 288 155 b 719 593 650 155 719 407 b 473 1107 719 796 650 1111 "},"Ó":{"ha":935,"x_min":0,"x_max":0,"o":"m 473 0 b 56 587 220 3 56 266 b 463 1275 56 924 187 1275 b 879 604 783 1275 878 854 b 473 0 882 298 724 -3 m 498 1590 b 536 1605 509 1600 522 1605 b 610 1477 593 1605 661 1523 l 444 1322 b 401 1306 431 1312 416 1306 b 328 1431 340 1306 273 1379 l 498 1590 m 473 1107 b 220 597 311 1103 220 837 b 476 155 220 377 288 155 b 719 593 650 155 719 407 b 473 1107 719 796 650 1111 "},"Ô":{"ha":935,"x_min":0,"x_max":0,"o":"m 473 0 b 56 587 220 3 56 266 b 463 1275 56 924 187 1275 b 879 604 783 1275 878 854 b 473 0 882 298 724 -3 m 346 1550 b 469 1634 372 1606 422 1634 b 581 1563 513 1634 556 1611 l 670 1388 b 590 1299 697 1333 642 1299 b 518 1337 559 1299 529 1310 l 460 1472 l 395 1324 b 340 1298 387 1306 365 1298 b 263 1375 294 1298 240 1328 m 473 1107 b 220 597 311 1103 220 837 b 476 155 220 377 288 155 b 719 593 650 155 719 407 b 473 1107 719 796 650 1111 "},"Õ":{"ha":935,"x_min":0,"x_max":0,"o":"m 473 0 b 56 587 220 3 56 266 b 463 1275 56 924 187 1275 b 879 604 783 1275 878 854 b 473 0 882 298 724 -3 m 176 1301 b 94 1377 132 1301 92 1331 b 326 1565 95 1482 229 1565 b 595 1477 434 1565 502 1463 b 761 1610 694 1491 680 1610 b 827 1572 791 1610 814 1594 b 810 1439 853 1533 840 1487 b 574 1305 758 1358 673 1305 b 326 1398 463 1305 420 1398 b 176 1301 235 1398 251 1301 m 473 1107 b 220 597 311 1103 220 837 b 476 155 220 377 288 155 b 719 593 650 155 719 407 b 473 1107 719 796 650 1111 "},"Ö":{"ha":935,"x_min":0,"x_max":0,"o":"m 473 0 b 56 587 220 3 56 266 b 463 1275 56 924 187 1275 b 879 604 783 1275 878 854 b 473 0 882 298 724 -3 m 302 1529 b 320 1530 309 1530 315 1530 b 332 1324 441 1530 471 1352 b 308 1321 324 1322 316 1321 b 302 1529 191 1321 164 1510 m 604 1529 b 621 1530 610 1530 616 1530 b 633 1324 742 1530 772 1352 b 609 1321 625 1322 617 1321 b 604 1529 492 1321 465 1510 m 473 1107 b 220 597 311 1103 220 837 b 476 155 220 377 288 155 b 719 593 650 155 719 407 b 473 1107 719 796 650 1111 "},"×":{"ha":602,"x_min":0,"x_max":0,"o":"m 187 263 b 145 244 174 250 160 244 b 76 376 87 244 30 330 l 190 490 l 76 604 b 142 732 22 656 83 732 b 191 712 160 732 176 727 l 301 601 l 416 716 b 463 736 430 730 446 736 b 524 600 521 736 576 651 l 414 490 l 528 376 b 457 247 579 324 514 247 b 416 263 442 247 429 251 l 301 377 l 187 263 "},"Ø":{"ha":935,"x_min":0,"x_max":0,"o":"m 850 1180 b 783 1051 827 1137 804 1095 b 879 604 845 928 878 769 b 473 0 882 298 724 -3 b 255 80 391 1 316 30 b 218 20 243 60 231 41 b 175 -5 208 3 191 -5 b 85 104 123 -5 62 61 l 145 213 b 56 587 88 315 56 445 b 463 1275 56 924 187 1275 b 678 1190 544 1275 618 1245 l 709 1246 b 755 1274 720 1265 738 1274 b 850 1180 807 1274 871 1218 m 473 1107 b 220 597 311 1103 220 837 b 243 392 220 526 227 456 l 598 1043 b 477 1107 566 1082 526 1107 b 473 1107 476 1107 475 1107 m 719 593 b 684 861 719 674 708 772 b 334 212 571 643 457 423 b 476 155 370 176 418 155 b 719 593 650 155 719 407 "},"Ù":{"ha":837,"x_min":0,"x_max":0,"o":"m 779 1190 b 416 -1 779 883 845 -1 b 61 1195 -9 -1 56 883 b 142 1279 62 1252 102 1279 b 222 1195 182 1279 222 1251 b 406 168 222 1006 178 171 b 616 1194 682 163 612 990 b 696 1276 617 1249 656 1276 b 779 1190 736 1276 779 1246 m 275 1477 b 350 1605 225 1523 293 1605 b 388 1590 363 1605 377 1600 l 557 1431 b 484 1306 613 1379 545 1306 b 442 1322 469 1306 454 1312 l 275 1477 "},"Ú":{"ha":837,"x_min":0,"x_max":0,"o":"m 779 1190 b 416 -1 779 883 845 -1 b 61 1195 -9 -1 56 883 b 142 1279 62 1252 102 1279 b 222 1195 182 1279 222 1251 b 406 168 222 1006 178 171 b 616 1194 682 163 612 990 b 696 1276 617 1249 656 1276 b 779 1190 736 1276 779 1246 m 449 1590 b 487 1605 460 1600 473 1605 b 562 1477 544 1605 612 1523 l 395 1322 b 353 1306 382 1312 368 1306 b 279 1431 292 1306 224 1379 l 449 1590 "},"Û":{"ha":837,"x_min":0,"x_max":0,"o":"m 779 1190 b 416 -1 779 883 845 -1 b 61 1195 -9 -1 56 883 b 142 1279 62 1252 102 1279 b 222 1195 182 1279 222 1251 b 406 168 222 1006 178 171 b 616 1194 682 163 612 990 b 696 1276 617 1249 656 1276 b 779 1190 736 1276 779 1246 m 297 1550 b 420 1634 323 1606 373 1634 b 532 1563 464 1634 507 1611 l 621 1388 b 541 1299 648 1333 593 1299 b 469 1337 510 1299 480 1310 l 411 1472 l 346 1324 b 292 1298 338 1306 316 1298 b 214 1375 245 1298 191 1328 "},"Ü":{"ha":837,"x_min":0,"x_max":0,"o":"m 779 1190 b 416 -1 779 883 845 -1 b 61 1195 -9 -1 56 883 b 142 1279 62 1252 102 1279 b 222 1195 182 1279 222 1251 b 406 168 222 1006 178 171 b 616 1194 682 163 612 990 b 696 1276 617 1249 656 1276 b 779 1190 736 1276 779 1246 m 254 1529 b 271 1530 260 1530 266 1530 b 283 1324 392 1530 422 1352 b 259 1321 275 1322 267 1321 b 254 1529 142 1321 115 1510 m 555 1529 b 572 1530 562 1530 567 1530 b 585 1324 693 1530 723 1352 b 560 1321 576 1322 568 1321 b 555 1529 444 1321 416 1510 "},"Ý":{"ha":949,"x_min":0,"x_max":0,"o":"m 563 85 b 472 1 563 31 517 1 b 384 85 427 1 384 30 l 387 625 l 68 1145 b 146 1279 30 1207 84 1279 b 231 1221 175 1279 208 1263 l 475 795 l 720 1221 b 804 1279 743 1263 776 1279 b 883 1145 867 1279 921 1207 l 564 625 m 505 1590 b 543 1605 515 1600 529 1605 b 617 1477 600 1605 667 1523 l 450 1322 b 408 1306 438 1312 423 1306 b 335 1431 349 1306 279 1379 l 505 1590 "},"Þ":{"ha":808,"x_min":0,"x_max":0,"o":"m 210 -224 b 123 -290 209 -262 164 -290 b 56 -218 88 -290 56 -270 l 57 1042 b 136 1143 57 1109 96 1143 b 217 1044 175 1143 216 1109 l 221 803 b 384 834 279 825 334 834 b 750 326 629 834 776 602 b 388 12 730 118 557 12 b 212 54 327 12 266 26 m 221 237 b 382 178 263 198 323 178 b 587 340 477 178 571 231 b 366 663 612 511 511 663 b 224 617 321 663 274 650 "},"ß":{"ha":864,"x_min":0,"x_max":0,"o":"m 302 1131 b 217 1009 217 1131 217 1076 l 216 -62 b 127 -98 216 -84 170 -98 b 56 -62 90 -98 56 -87 l 60 1010 b 275 1282 61 1226 152 1282 b 692 954 551 1282 692 1147 b 590 718 692 852 642 761 b 757 572 661 685 719 635 b 808 365 791 518 810 442 b 685 88 807 260 783 167 b 385 -7 612 28 528 -7 b 285 -1 354 -7 321 -4 b 288 142 240 3 228 146 b 648 368 472 132 648 165 b 297 597 648 597 449 604 b 301 738 271 595 250 728 b 544 958 420 761 536 804 b 302 1131 551 1093 412 1131 "},"à":{"ha":772,"x_min":0,"x_max":0,"o":"m 718 96 b 628 7 718 41 671 7 b 551 99 589 7 551 35 b 324 16 490 53 401 16 b 349 817 -47 16 -31 819 b 551 739 407 817 481 792 b 637 833 556 800 597 833 b 718 727 678 833 718 799 l 718 96 m 243 1032 b 317 1160 193 1078 260 1160 b 355 1145 331 1160 345 1156 l 525 986 b 452 861 581 935 513 861 b 410 878 437 861 422 867 l 243 1032 m 551 528 b 368 654 498 612 430 654 b 359 654 365 654 362 654 b 366 171 168 642 161 168 b 551 298 430 172 500 217 "},"á":{"ha":772,"x_min":0,"x_max":0,"o":"m 718 96 b 628 7 718 41 671 7 b 551 99 589 7 551 35 b 324 16 490 53 401 16 b 349 817 -47 16 -31 819 b 551 739 407 817 481 792 b 637 833 556 800 597 833 b 718 727 678 833 718 799 l 718 96 m 416 1145 b 454 1160 427 1156 441 1160 b 529 1032 511 1160 579 1078 l 362 878 b 320 861 350 867 335 861 b 247 986 259 861 191 935 l 416 1145 m 551 528 b 368 654 498 612 430 654 b 359 654 365 654 362 654 b 366 171 168 642 161 168 b 551 298 430 172 500 217 "},"â":{"ha":772,"x_min":0,"x_max":0,"o":"m 718 96 b 628 7 718 41 671 7 b 551 99 589 7 551 35 b 324 16 490 53 401 16 b 349 817 -47 16 -31 819 b 551 739 407 817 481 792 b 637 833 556 800 597 833 b 718 727 678 833 718 799 l 718 96 m 264 1105 b 388 1190 290 1161 340 1190 b 499 1118 431 1190 475 1166 l 589 943 b 509 854 616 888 560 854 b 437 892 477 854 448 865 l 378 1027 l 313 879 b 259 853 305 861 283 853 b 182 930 213 853 159 883 m 551 528 b 368 654 498 612 430 654 b 359 654 365 654 362 654 b 366 171 168 642 161 168 b 551 298 430 172 500 217 "},"ã":{"ha":772,"x_min":0,"x_max":0,"o":"m 718 96 b 628 7 718 41 671 7 b 551 99 589 7 551 35 b 324 16 490 53 401 16 b 349 817 -47 16 -31 819 b 551 739 407 817 481 792 b 637 833 556 800 597 833 b 718 727 678 833 718 799 l 718 96 m 95 856 b 12 932 50 856 11 886 b 244 1120 14 1038 148 1120 b 514 1032 353 1120 420 1019 b 680 1165 613 1046 598 1165 b 746 1127 709 1165 732 1149 b 728 994 772 1088 758 1042 b 492 860 677 913 591 860 b 244 954 381 860 339 954 b 95 856 153 954 170 856 m 551 528 b 368 654 498 612 430 654 b 359 654 365 654 362 654 b 366 171 168 642 161 168 b 551 298 430 172 500 217 "},"ä":{"ha":772,"x_min":0,"x_max":0,"o":"m 718 96 b 628 7 718 41 671 7 b 551 99 589 7 551 35 b 324 16 490 53 401 16 b 349 817 -47 16 -31 819 b 551 739 407 817 481 792 b 637 833 556 800 597 833 b 718 727 678 833 718 799 l 718 96 m 221 1084 b 239 1085 228 1085 233 1085 b 251 879 359 1085 389 907 b 227 876 243 878 235 876 b 221 1084 110 876 83 1065 m 522 1084 b 540 1085 529 1085 534 1085 b 552 879 661 1085 690 907 b 528 876 544 878 536 876 b 522 1084 411 876 384 1065 m 551 528 b 368 654 498 612 430 654 b 359 654 365 654 362 654 b 366 171 168 642 161 168 b 551 298 430 172 500 217 "},"å":{"ha":772,"x_min":0,"x_max":0,"o":"m 718 96 b 628 7 718 41 671 7 b 551 99 589 7 551 35 b 324 16 490 53 403 16 b 275 806 -22 16 -31 711 b 190 959 225 834 190 884 b 388 1139 194 1080 292 1139 b 583 960 486 1139 583 1078 b 460 792 583 873 528 817 b 551 739 490 780 521 762 b 637 833 556 800 597 833 b 718 727 678 833 718 799 l 718 96 m 551 528 b 368 654 498 612 430 654 b 359 654 365 654 362 654 b 366 171 168 642 161 168 b 551 298 430 172 500 217 m 328 958 b 381 917 327 930 353 917 b 442 956 410 917 441 932 b 381 1004 444 986 412 1004 b 328 958 355 1004 330 990 "},"æ":{"ha":1253,"x_min":0,"x_max":0,"o":"m 867 -7 b 715 33 808 -7 758 8 b 635 -18 704 1 670 -18 b 551 75 593 -18 551 9 b 324 -9 490 28 403 -9 b 349 791 -47 -9 -31 793 b 551 715 407 791 481 768 b 647 807 557 776 605 807 b 704 783 669 807 690 799 b 886 836 754 815 814 836 b 1188 511 1067 836 1188 682 b 1114 396 1188 467 1169 397 l 700 382 b 884 142 705 274 764 142 b 1063 250 963 142 1019 191 b 1127 285 1082 274 1105 285 b 1175 156 1183 285 1229 216 b 867 -7 1114 88 1024 -7 m 551 281 b 536 411 541 323 536 366 b 545 511 536 445 538 479 b 368 628 492 589 427 628 b 359 628 365 628 362 628 b 366 145 168 617 161 142 b 551 273 430 146 500 193 m 1023 557 b 892 690 1013 643 955 690 b 718 545 806 690 743 623 b 821 543 739 544 776 543 b 1023 557 884 543 962 545 "},"ç":{"ha":762,"x_min":0,"x_max":0,"o":"m 430 -14 b 400 -374 673 -26 642 -382 b 388 -260 331 -374 330 -256 b 395 -136 518 -270 509 -125 b 321 5 330 -141 323 -117 b 56 401 146 45 58 221 b 407 834 53 612 168 826 b 416 834 410 834 412 834 b 701 601 529 834 675 760 b 618 514 711 544 662 514 b 553 555 589 514 562 526 b 416 669 528 640 480 669 b 216 407 278 669 218 526 b 393 157 213 281 271 157 b 597 271 492 157 530 206 b 629 285 606 281 617 285 b 686 136 681 285 741 201 b 431 0 628 66 514 12 l 430 -14 "},"è":{"ha":772,"x_min":0,"x_max":0,"o":"m 385 -7 b 54 411 165 -7 54 202 b 404 836 54 623 170 836 b 707 511 586 836 707 682 b 632 396 707 467 688 397 l 218 382 b 403 142 224 274 282 142 b 582 250 481 142 537 191 b 646 285 601 274 624 285 b 693 156 701 285 747 216 b 385 -7 632 88 543 -7 m 243 1032 b 317 1160 193 1078 260 1160 b 355 1145 331 1160 345 1156 l 525 986 b 452 861 581 935 513 861 b 410 878 437 861 422 867 l 243 1032 m 541 557 b 411 690 532 643 473 690 b 236 545 324 690 262 623 b 339 543 258 544 294 543 b 541 557 403 543 480 545 "},"é":{"ha":772,"x_min":0,"x_max":0,"o":"m 385 -7 b 54 411 165 -7 54 202 b 404 836 54 623 170 836 b 707 511 586 836 707 682 b 632 396 707 467 688 397 l 218 382 b 403 142 224 274 282 142 b 582 250 481 142 537 191 b 646 285 601 274 624 285 b 693 156 701 285 747 216 b 385 -7 632 88 543 -7 m 416 1145 b 454 1160 427 1156 441 1160 b 529 1032 511 1160 579 1078 l 362 878 b 320 861 350 867 335 861 b 247 986 259 861 191 935 l 416 1145 m 541 557 b 411 690 532 643 473 690 b 236 545 324 690 262 623 b 339 543 258 544 294 543 b 541 557 403 543 480 545 "},"ê":{"ha":772,"x_min":0,"x_max":0,"o":"m 385 -7 b 54 411 165 -7 54 202 b 404 836 54 623 170 836 b 707 511 586 836 707 682 b 632 396 707 467 688 397 l 218 382 b 403 142 224 274 282 142 b 582 250 481 142 537 191 b 646 285 601 274 624 285 b 693 156 701 285 747 216 b 385 -7 632 88 543 -7 m 264 1105 b 388 1190 290 1161 340 1190 b 499 1118 431 1190 475 1166 l 589 943 b 509 854 616 888 560 854 b 437 892 477 854 448 865 l 378 1027 l 313 879 b 259 853 305 861 283 853 b 182 930 213 853 159 883 m 541 557 b 411 690 532 643 473 690 b 236 545 324 690 262 623 b 339 543 258 544 294 543 b 541 557 403 543 480 545 "},"ë":{"ha":772,"x_min":0,"x_max":0,"o":"m 385 -7 b 54 411 165 -7 54 202 b 404 836 54 623 170 836 b 707 511 586 836 707 682 b 632 396 707 467 688 397 l 218 382 b 403 142 224 274 282 142 b 582 250 481 142 537 191 b 646 285 601 274 624 285 b 693 156 701 285 747 216 b 385 -7 632 88 543 -7 m 221 1084 b 239 1085 228 1085 233 1085 b 251 879 359 1085 389 907 b 227 876 243 878 235 876 b 221 1084 110 876 83 1065 m 522 1084 b 540 1085 529 1085 534 1085 b 552 879 661 1085 690 907 b 528 876 544 878 536 876 b 522 1084 411 876 384 1065 m 541 557 b 411 690 532 643 473 690 b 236 545 324 690 262 623 b 339 543 258 544 294 543 b 541 557 403 543 480 545 "},"ì":{"ha":324,"x_min":0,"x_max":0,"o":"m 241 75 b 156 1 241 28 198 1 b 81 75 118 1 81 24 l 81 753 b 164 833 81 804 123 833 b 241 754 203 833 241 807 l 241 75 m 19 1032 b 94 1160 -31 1078 37 1160 b 132 1145 107 1160 121 1156 l 301 986 b 228 861 357 935 289 861 b 186 878 213 861 198 867 l 19 1032 "},"í":{"ha":324,"x_min":0,"x_max":0,"o":"m 241 75 b 156 1 241 28 198 1 b 81 75 118 1 81 24 l 81 753 b 164 833 81 804 123 833 b 241 754 203 833 241 807 l 241 75 m 193 1145 b 231 1160 203 1156 217 1160 b 305 1032 288 1160 355 1078 l 138 878 b 96 861 126 867 111 861 b 23 986 35 861 -33 935 l 193 1145 "},"î":{"ha":324,"x_min":0,"x_max":0,"o":"m 241 75 b 156 1 241 28 198 1 b 81 75 118 1 81 24 l 81 753 b 164 833 81 804 123 833 b 241 754 203 833 241 807 l 241 75 m 41 1105 b 164 1190 66 1161 117 1190 b 275 1118 208 1190 251 1166 l 365 943 b 285 854 392 888 336 854 b 213 892 254 854 224 865 l 155 1027 l 90 879 b 35 853 81 861 60 853 b -42 930 -11 853 -65 883 "},"ï":{"ha":324,"x_min":0,"x_max":0,"o":"m 241 75 b 156 1 241 28 198 1 b 81 75 118 1 81 24 l 81 753 b 164 833 81 804 123 833 b 241 754 203 833 241 807 l 241 75 m -3 1084 b 15 1085 4 1085 9 1085 b 27 879 136 1085 165 907 b 3 876 19 878 11 876 b -3 1084 -114 876 -141 1065 m 298 1084 b 316 1085 305 1085 311 1085 b 328 879 437 1085 467 907 b 304 876 320 878 312 876 b 298 1084 187 876 160 1065 "},"ð":{"ha":887,"x_min":0,"x_max":0,"o":"m 836 623 b 499 8 845 343 783 64 b 431 1 476 4 453 1 b 60 391 220 1 71 199 b 351 741 46 595 156 741 b 686 564 488 741 600 667 b 600 918 690 690 655 818 l 495 825 b 453 808 483 814 468 808 b 380 933 392 808 323 882 l 503 1043 b 361 1107 461 1077 418 1107 b 269 1081 331 1107 301 1099 b 222 1069 252 1073 237 1069 b 184 1223 149 1069 100 1162 b 350 1275 233 1259 292 1275 b 628 1156 456 1275 555 1229 l 666 1190 b 704 1203 677 1199 690 1203 b 779 1077 762 1203 829 1122 l 723 1028 b 836 623 793 906 830 757 m 635 355 b 368 567 608 472 487 567 b 220 358 271 567 194 506 b 435 157 243 231 340 157 b 635 355 524 157 609 218 "},"ñ":{"ha":741,"x_min":0,"x_max":0,"o":"m 500 480 b 376 659 488 553 471 659 b 217 574 312 659 263 618 l 217 91 b 130 -5 217 30 172 -5 b 56 91 92 -5 56 24 l 57 747 b 145 837 57 807 103 837 b 217 769 182 837 217 815 b 403 831 274 806 334 831 b 669 500 583 831 647 650 b 684 68 692 347 686 172 b 594 -4 682 22 636 -4 b 518 65 553 -4 517 18 b 500 480 521 122 524 330 m 79 856 b -3 932 35 856 -4 886 b 228 1120 -1 1038 133 1120 b 498 1032 336 1120 404 1019 b 663 1165 597 1046 582 1165 b 730 1127 693 1165 716 1149 b 712 994 755 1088 743 1042 b 476 860 662 913 575 860 b 228 954 365 860 323 954 b 79 856 137 954 153 856 "},"ò":{"ha":799,"x_min":0,"x_max":0,"o":"m 400 7 b 56 389 179 7 56 182 b 399 827 47 593 164 827 b 419 827 406 827 412 827 b 400 7 857 803 854 7 m 256 1032 b 331 1160 206 1078 274 1160 b 369 1145 345 1160 358 1156 l 538 986 b 465 861 594 935 526 861 b 423 878 450 861 435 867 l 256 1032 m 412 670 b 213 391 326 681 213 610 b 397 152 213 285 259 151 b 412 670 656 155 629 637 "},"ó":{"ha":799,"x_min":0,"x_max":0,"o":"m 400 7 b 56 389 179 7 56 182 b 399 827 47 593 164 827 b 419 827 406 827 412 827 b 400 7 857 803 854 7 m 430 1145 b 468 1160 441 1156 454 1160 b 543 1032 525 1160 593 1078 l 376 878 b 334 861 363 867 349 861 b 260 986 273 861 205 935 l 430 1145 m 412 670 b 213 391 326 681 213 610 b 397 152 213 285 259 151 b 412 670 656 155 629 637 "},"ô":{"ha":799,"x_min":0,"x_max":0,"o":"m 400 7 b 56 389 179 7 56 182 b 399 827 47 593 164 827 b 419 827 406 827 412 827 b 400 7 857 803 854 7 m 278 1105 b 401 1190 304 1161 354 1190 b 513 1118 445 1190 488 1166 l 602 943 b 522 854 629 888 574 854 b 450 892 491 854 461 865 l 392 1027 l 327 879 b 273 853 319 861 297 853 b 195 930 227 853 172 883 m 412 670 b 213 391 326 681 213 610 b 397 152 213 285 259 151 b 412 670 656 155 629 637 "},"õ":{"ha":799,"x_min":0,"x_max":0,"o":"m 400 7 b 56 389 179 7 56 182 b 399 827 47 593 164 827 b 419 827 406 827 412 827 b 400 7 857 803 854 7 m 109 856 b 26 932 64 856 24 886 b 258 1120 27 1038 161 1120 b 528 1032 366 1120 434 1019 b 693 1165 627 1046 612 1165 b 760 1127 723 1165 746 1149 b 742 994 785 1088 772 1042 b 506 860 690 913 605 860 b 258 954 395 860 353 954 b 109 856 167 954 183 856 m 412 670 b 213 391 326 681 213 610 b 397 152 213 285 259 151 b 412 670 656 155 629 637 "},"ö":{"ha":799,"x_min":0,"x_max":0,"o":"m 400 7 b 56 389 179 7 56 182 b 399 827 47 593 164 827 b 419 827 406 827 412 827 b 400 7 857 803 854 7 m 235 1084 b 252 1085 241 1085 247 1085 b 264 879 373 1085 403 907 b 240 876 256 878 248 876 b 235 1084 123 876 96 1065 m 536 1084 b 553 1085 543 1085 548 1085 b 566 879 674 1085 704 907 b 541 876 557 878 549 876 b 536 1084 425 876 397 1065 m 412 670 b 213 391 326 681 213 610 b 397 152 213 285 259 151 b 412 670 656 155 629 637 "},"÷":{"ha":724,"x_min":0,"x_max":0,"o":"m 119 411 b 119 570 28 411 38 570 l 601 570 b 595 411 697 570 689 411 l 119 411 m 354 368 b 372 369 361 369 366 369 b 384 163 492 369 522 191 b 359 160 376 161 368 160 b 354 368 243 160 216 349 m 342 821 b 359 822 349 822 354 822 b 372 616 480 822 510 644 b 347 613 363 614 355 613 b 342 821 231 613 203 802 "},"ø":{"ha":799,"x_min":0,"x_max":0,"o":"m 400 7 b 260 34 351 7 304 14 b 255 27 259 31 256 28 b 212 1 244 9 228 1 b 122 111 160 1 99 68 l 134 133 b 56 389 81 203 56 297 b 399 827 47 593 164 827 b 503 811 434 827 471 823 b 547 833 514 827 529 833 b 642 741 598 833 662 777 b 635 727 639 735 636 731 b 400 7 836 507 761 7 m 412 670 b 213 391 326 681 213 610 b 225 298 213 361 217 330 l 425 667 b 412 670 420 669 416 670 m 339 161 b 397 152 355 155 376 152 b 547 559 585 153 623 406 b 339 161 464 392 446 339 "},"ù":{"ha":785,"x_min":0,"x_max":0,"o":"m 731 96 b 644 5 731 41 686 5 b 572 79 610 5 578 27 b 377 8 514 35 445 7 b 60 761 35 20 47 444 b 141 837 62 811 102 837 b 218 768 179 837 216 814 b 217 491 221 715 212 604 b 372 174 225 335 266 171 b 571 453 507 176 571 316 l 571 753 b 654 836 571 806 613 836 b 731 754 693 836 731 808 l 731 96 m 250 1032 b 324 1160 199 1078 267 1160 b 362 1145 338 1160 351 1156 l 532 986 b 458 861 587 935 519 861 b 416 878 444 861 429 867 l 250 1032 "},"ú":{"ha":785,"x_min":0,"x_max":0,"o":"m 731 96 b 644 5 731 41 686 5 b 572 79 610 5 578 27 b 377 8 514 35 445 7 b 60 761 35 20 47 444 b 141 837 62 811 102 837 b 218 768 179 837 216 814 b 217 491 221 715 212 604 b 372 174 225 335 266 171 b 571 453 507 176 571 316 l 571 753 b 654 836 571 806 613 836 b 731 754 693 836 731 808 l 731 96 m 423 1145 b 461 1160 434 1156 448 1160 b 536 1032 518 1160 586 1078 l 369 878 b 327 861 357 867 342 861 b 254 986 266 861 198 935 l 423 1145 "},"û":{"ha":785,"x_min":0,"x_max":0,"o":"m 731 96 b 644 5 731 41 686 5 b 572 79 610 5 578 27 b 377 8 514 35 445 7 b 60 761 35 20 47 444 b 141 837 62 811 102 837 b 218 768 179 837 216 814 b 217 491 221 715 212 604 b 372 174 225 335 266 171 b 571 453 507 176 571 316 l 571 753 b 654 836 571 806 613 836 b 731 754 693 836 731 808 l 731 96 m 271 1105 b 395 1190 297 1161 347 1190 b 506 1118 438 1190 481 1166 l 595 943 b 515 854 623 888 567 854 b 444 892 484 854 454 865 l 385 1027 l 320 879 b 266 853 312 861 290 853 b 189 930 220 853 165 883 "},"ü":{"ha":785,"x_min":0,"x_max":0,"o":"m 731 96 b 644 5 731 41 686 5 b 572 79 610 5 578 27 b 377 8 514 35 445 7 b 60 761 35 20 47 444 b 141 837 62 811 102 837 b 218 768 179 837 216 814 b 217 491 221 715 212 604 b 372 174 225 335 266 171 b 571 453 507 176 571 316 l 571 753 b 654 836 571 806 613 836 b 731 754 693 836 731 808 l 731 96 m 228 1084 b 245 1085 235 1085 240 1085 b 258 879 366 1085 396 907 b 233 876 250 878 241 876 b 228 1084 117 876 90 1065 m 529 1084 b 547 1085 536 1085 541 1085 b 559 879 667 1085 697 907 b 534 876 551 878 543 876 b 529 1084 418 876 391 1065 "},"ý":{"ha":856,"x_min":0,"x_max":0,"o":"m 463 -285 b 387 -345 449 -328 418 -345 b 300 -251 335 -345 283 -301 l 397 62 l 64 716 b 138 836 33 777 85 836 b 205 791 164 836 189 822 l 468 275 l 636 787 b 707 840 648 825 677 840 b 798 739 758 840 815 792 l 463 -285 m 458 1145 b 496 1160 469 1156 483 1160 b 571 1032 553 1160 621 1078 l 404 878 b 362 861 392 867 377 861 b 289 986 301 861 233 935 l 458 1145 "},"þ":{"ha":808,"x_min":0,"x_max":0,"o":"m 210 -224 b 123 -290 209 -262 164 -290 b 56 -218 88 -290 56 -270 l 57 1042 b 136 1143 57 1109 96 1143 b 217 1044 175 1143 216 1109 l 221 803 b 384 834 279 825 334 834 b 750 326 629 834 776 602 b 388 12 730 118 557 12 b 212 54 327 12 266 26 m 221 237 b 382 178 263 198 323 178 b 587 340 477 178 571 231 b 366 663 612 511 511 663 b 224 617 321 663 274 650 "},"ÿ":{"ha":856,"x_min":0,"x_max":0,"o":"m 463 -285 b 387 -345 449 -328 418 -345 b 300 -251 335 -345 283 -301 l 397 62 l 64 716 b 138 836 33 777 85 836 b 205 791 164 836 189 822 l 468 275 l 636 787 b 707 840 648 825 677 840 b 798 739 758 840 815 792 l 463 -285 m 263 1084 b 281 1085 270 1085 275 1085 b 293 879 401 1085 431 907 b 269 876 285 878 277 876 b 263 1084 152 876 125 1065 m 564 1084 b 582 1085 571 1085 576 1085 b 594 879 703 1085 732 907 b 570 876 586 878 578 876 b 564 1084 453 876 426 1065 "},"Ā":{"ha":1002,"x_min":0,"x_max":0,"o":"m 381 1196 b 498 1284 404 1256 450 1284 b 625 1187 551 1284 604 1249 b 945 84 731 878 845 395 b 856 1 959 43 906 1 b 783 60 825 1 795 18 l 674 445 l 320 445 b 210 53 279 296 221 92 b 126 4 202 23 163 4 b 58 99 83 4 41 31 b 381 1196 99 260 323 1044 m 259 1335 b 259 1493 168 1335 176 1493 l 741 1493 b 735 1335 837 1493 827 1335 l 259 1335 m 499 1059 b 363 601 498 1051 425 807 l 635 601 l 499 1059 "},"ā":{"ha":772,"x_min":0,"x_max":0,"o":"m 718 96 b 628 7 718 41 671 7 b 551 99 589 7 551 35 b 324 16 490 53 401 16 b 349 817 -47 16 -31 819 b 551 739 407 817 481 792 b 637 833 556 800 597 833 b 718 727 678 833 718 799 l 718 96 m 144 890 b 144 1048 53 890 61 1048 l 625 1048 b 620 890 722 1048 712 890 l 144 890 m 551 528 b 368 654 498 612 430 654 b 359 654 365 654 362 654 b 366 171 168 642 161 168 b 551 298 430 172 500 217 "},"Ă":{"ha":1002,"x_min":0,"x_max":0,"o":"m 381 1196 b 498 1284 404 1256 450 1284 b 625 1187 551 1284 604 1249 b 945 84 731 878 845 395 b 856 1 959 43 906 1 b 783 60 825 1 795 18 l 674 445 l 320 445 b 210 53 279 296 221 92 b 126 4 202 23 163 4 b 58 99 83 4 41 31 b 381 1196 99 260 323 1044 m 239 1495 b 298 1557 231 1535 263 1557 b 366 1511 327 1557 355 1542 b 480 1420 388 1447 431 1420 b 635 1525 551 1420 617 1451 b 699 1568 642 1554 670 1568 b 762 1497 735 1568 773 1544 b 483 1301 732 1367 610 1301 b 239 1495 358 1301 262 1379 m 499 1059 b 363 601 498 1051 425 807 l 635 601 l 499 1059 "},"ă":{"ha":772,"x_min":0,"x_max":0,"o":"m 718 96 b 628 7 718 41 671 7 b 551 99 589 7 551 35 b 324 16 490 53 401 16 b 349 817 -47 16 -31 819 b 551 739 407 817 481 792 b 637 833 556 800 597 833 b 718 727 678 833 718 799 l 718 96 m 123 1050 b 183 1112 115 1090 148 1112 b 251 1066 212 1112 240 1097 b 365 975 273 1002 316 975 b 519 1080 435 975 502 1006 b 583 1123 526 1109 555 1123 b 647 1053 620 1123 658 1099 b 368 856 617 922 495 856 b 123 1050 243 856 146 935 m 551 528 b 368 654 498 612 430 654 b 359 654 365 654 362 654 b 366 171 168 642 161 168 b 551 298 430 172 500 217 "},"Ą":{"ha":1002,"x_min":0,"x_max":0,"o":"m 381 1196 b 498 1284 404 1256 450 1284 b 625 1187 551 1284 604 1249 b 945 84 731 878 845 395 b 845 3 960 41 898 -4 b 926 -156 825 -54 868 -125 b 878 -263 974 -182 932 -263 b 849 -255 868 -263 859 -260 b 780 68 753 -201 713 -57 l 674 445 l 320 445 b 210 53 279 296 221 92 b 126 4 202 23 163 4 b 58 99 83 4 41 31 b 381 1196 99 260 323 1044 m 499 1059 b 363 601 498 1051 425 807 l 635 601 l 499 1059 "},"ą":{"ha":772,"x_min":0,"x_max":0,"o":"m 718 96 b 617 8 718 37 663 1 b 697 -156 591 -50 636 -125 b 648 -263 745 -182 703 -263 b 620 -255 639 -263 629 -260 b 553 72 522 -201 483 -53 b 551 99 552 80 551 90 b 324 16 490 53 401 16 b 349 817 -47 16 -31 819 b 551 739 407 817 481 792 b 637 833 556 800 597 833 b 718 727 678 833 718 799 l 718 96 m 551 528 b 368 654 498 612 430 654 b 359 654 365 654 362 654 b 366 171 168 642 161 168 b 551 298 430 172 500 217 "},"Ć":{"ha":876,"x_min":0,"x_max":0,"o":"m 818 305 b 418 -1 762 134 601 -1 b 54 627 167 -1 50 308 b 434 1275 60 928 174 1234 b 483 1279 450 1278 467 1279 b 803 977 640 1279 776 1157 b 719 879 811 917 764 879 b 652 930 690 879 662 895 b 484 1114 614 1062 555 1114 b 221 616 274 1114 224 769 b 418 167 218 388 288 164 b 686 384 540 170 621 262 b 732 411 696 403 713 411 b 818 305 780 411 837 361 m 468 1590 b 506 1605 479 1600 492 1605 b 581 1477 563 1605 631 1523 l 414 1322 b 372 1306 401 1312 387 1306 b 298 1431 312 1306 243 1379 l 468 1590 "},"ć":{"ha":762,"x_min":0,"x_max":0,"o":"m 397 -3 b 56 401 171 -3 58 197 b 407 834 53 612 168 826 b 416 834 410 834 412 834 b 701 601 529 834 675 760 b 618 514 711 544 662 514 b 553 555 589 514 562 526 b 416 669 528 640 480 669 b 216 407 278 669 218 526 b 393 157 213 281 271 157 b 597 271 492 157 530 206 b 629 285 606 281 617 285 b 686 136 681 285 741 201 b 397 -3 620 57 481 -3 m 411 1145 b 449 1160 422 1156 435 1160 b 524 1032 506 1160 574 1078 l 357 878 b 315 861 345 867 330 861 b 241 986 255 861 186 935 l 411 1145 "},"Ĉ":{"ha":876,"x_min":0,"x_max":0,"o":"m 818 305 b 418 -1 762 134 601 -1 b 54 627 167 -1 50 308 b 434 1275 60 928 174 1234 b 483 1279 450 1278 467 1279 b 803 977 640 1279 776 1157 b 719 879 811 917 764 879 b 652 930 690 879 662 895 b 484 1114 614 1062 555 1114 b 221 616 274 1114 224 769 b 418 167 218 388 288 164 b 686 384 540 170 621 262 b 732 411 696 403 713 411 b 818 305 780 411 837 361 m 316 1550 b 439 1634 342 1606 392 1634 b 551 1563 483 1634 526 1611 l 640 1388 b 560 1299 667 1333 612 1299 b 488 1337 529 1299 499 1310 l 430 1472 l 365 1324 b 311 1298 357 1306 335 1298 b 233 1375 266 1298 212 1328 "},"ĉ":{"ha":762,"x_min":0,"x_max":0,"o":"m 397 -3 b 56 401 171 -3 58 197 b 407 834 53 612 168 826 b 416 834 410 834 412 834 b 701 601 529 834 675 760 b 618 514 711 544 662 514 b 553 555 589 514 562 526 b 416 669 528 640 480 669 b 216 407 278 669 218 526 b 393 157 213 281 271 157 b 597 271 492 157 530 206 b 629 285 606 281 617 285 b 686 136 681 285 741 201 b 397 -3 620 57 481 -3 m 259 1105 b 382 1190 285 1161 335 1190 b 494 1118 426 1190 469 1166 l 583 943 b 503 854 610 888 555 854 b 431 892 472 854 442 865 l 373 1027 l 308 879 b 254 853 300 861 278 853 b 176 930 209 853 155 883 "},"Ċ":{"ha":876,"x_min":0,"x_max":0,"o":"m 818 305 b 418 -1 762 134 601 -1 b 54 627 167 -1 50 308 b 434 1275 60 928 174 1234 b 483 1279 450 1278 467 1279 b 803 977 640 1279 776 1157 b 719 879 811 917 764 879 b 652 930 690 879 662 895 b 484 1114 614 1062 555 1114 b 221 616 274 1114 224 769 b 418 167 218 388 288 164 b 686 384 540 170 621 262 b 732 411 696 403 713 411 b 818 305 780 411 837 361 m 454 1318 b 430 1316 446 1317 438 1316 b 425 1523 313 1316 286 1504 b 442 1525 431 1525 437 1525 b 454 1318 563 1525 593 1347 "},"ċ":{"ha":762,"x_min":0,"x_max":0,"o":"m 397 -3 b 56 401 171 -3 58 197 b 407 834 53 612 168 826 b 416 834 410 834 412 834 b 701 601 529 834 675 760 b 618 514 711 544 662 514 b 553 555 589 514 562 526 b 416 669 528 640 480 669 b 216 407 278 669 218 526 b 393 157 213 281 271 157 b 597 271 492 157 530 206 b 629 285 606 281 617 285 b 686 136 681 285 741 201 b 397 -3 620 57 481 -3 m 397 873 b 373 871 389 872 381 871 b 368 1078 256 871 229 1059 b 385 1080 374 1080 380 1080 b 397 873 506 1080 536 902 "},"Č":{"ha":876,"x_min":0,"x_max":0,"o":"m 818 305 b 418 -1 762 134 601 -1 b 54 627 167 -1 50 308 b 434 1275 60 928 174 1234 b 483 1279 450 1278 467 1279 b 803 977 640 1279 776 1157 b 719 879 811 917 764 879 b 652 930 690 879 662 895 b 484 1114 614 1062 555 1114 b 221 616 274 1114 224 769 b 418 167 218 388 288 164 b 686 384 540 170 621 262 b 732 411 696 403 713 411 b 818 305 780 411 837 361 m 560 1382 b 437 1298 534 1326 484 1298 b 326 1370 393 1298 350 1321 l 236 1545 b 309 1640 209 1599 259 1640 b 380 1595 338 1640 366 1626 l 438 1461 l 503 1609 b 564 1645 515 1634 538 1645 b 643 1557 612 1645 665 1606 "},"č":{"ha":762,"x_min":0,"x_max":0,"o":"m 397 -3 b 56 401 171 -3 58 197 b 407 834 53 612 168 826 b 416 834 410 834 412 834 b 701 601 529 834 675 760 b 618 514 711 544 662 514 b 553 555 589 514 562 526 b 416 669 528 640 480 669 b 216 407 278 669 218 526 b 393 157 213 281 271 157 b 597 271 492 157 530 206 b 629 285 606 281 617 285 b 686 136 681 285 741 201 b 397 -3 620 57 481 -3 m 503 937 b 380 853 477 882 427 853 b 269 925 336 853 293 876 l 179 1100 b 252 1195 152 1154 202 1195 b 323 1150 281 1195 309 1181 l 381 1016 l 446 1164 b 507 1200 458 1190 481 1200 b 586 1112 555 1200 608 1161 "},"Ď":{"ha":882,"x_min":0,"x_max":0,"o":"m 328 22 b 179 5 279 9 229 5 b 56 160 72 5 54 33 l 68 1133 b 187 1283 69 1230 76 1293 b 290 1274 222 1280 256 1278 b 826 738 586 1233 810 1085 b 328 22 844 345 612 85 m 563 1382 b 439 1298 537 1326 487 1298 b 328 1370 396 1298 353 1321 l 239 1545 b 312 1640 212 1599 262 1640 b 382 1595 340 1640 369 1626 l 441 1461 l 506 1609 b 567 1645 518 1634 541 1645 b 646 1557 614 1645 667 1606 m 228 160 b 665 699 444 180 665 376 b 243 1118 665 952 509 1107 "},"ď":{"ha":1126,"x_min":0,"x_max":0,"o":"m 742 91 b 655 -4 742 31 697 -4 b 582 75 621 -4 587 20 b 365 9 510 31 435 9 b 56 354 195 9 54 134 b 431 796 57 604 214 796 b 579 768 479 796 528 787 l 582 1183 b 662 1284 582 1251 621 1284 b 742 1185 701 1284 742 1251 l 742 91 m 1042 1059 b 989 692 1085 966 1086 765 b 949 680 978 684 964 680 b 867 788 890 680 818 741 b 891 991 936 856 906 951 b 987 1086 871 1047 936 1086 b 1042 1059 1012 1086 1032 1078 m 218 358 b 388 182 218 232 298 182 b 579 263 458 182 534 214 l 579 568 b 435 632 532 613 481 632 b 218 358 316 632 218 507 "},"Đ":{"ha":1016,"x_min":0,"x_max":0,"o":"m 119 606 b 119 765 28 606 38 765 l 198 765 l 202 1133 b 321 1283 203 1230 210 1293 b 425 1274 357 1280 391 1278 b 960 738 720 1233 944 1085 b 463 22 978 345 746 85 b 313 5 414 9 363 5 b 190 160 206 5 189 33 l 195 606 l 119 606 m 372 765 l 601 765 b 595 606 697 765 689 606 l 369 606 l 362 160 b 799 699 578 180 799 376 b 377 1118 799 952 643 1107 "},"đ":{"ha":796,"x_min":0,"x_max":0,"o":"m 382 921 b 382 1080 292 921 301 1080 l 582 1080 l 582 1183 b 662 1284 582 1251 621 1284 b 742 1185 701 1284 742 1251 l 742 1080 l 864 1080 b 859 921 960 1080 952 921 l 742 921 l 742 91 b 655 -4 742 31 697 -4 b 582 75 621 -4 587 20 b 365 9 510 31 435 9 b 56 354 195 9 54 134 b 431 796 57 604 214 796 b 579 768 479 796 528 787 l 581 921 l 382 921 m 218 358 b 388 182 218 232 298 182 b 579 263 458 182 534 214 l 579 568 b 435 632 532 613 481 632 b 218 358 316 632 218 507 "},"Ē":{"ha":760,"x_min":0,"x_max":0,"o":"m 625 5 b 190 1 480 1 335 1 b 62 187 62 1 64 43 l 56 1119 b 182 1283 54 1240 90 1284 b 625 1279 269 1283 412 1279 b 636 1122 732 1279 727 1123 b 216 1124 519 1120 251 1126 l 216 720 l 502 720 b 506 560 593 720 571 555 b 216 560 488 562 397 562 l 216 161 b 632 161 239 160 543 161 b 625 5 728 161 731 8 m 137 1335 b 137 1493 46 1335 56 1493 l 618 1493 b 613 1335 715 1493 707 1335 l 137 1335 "},"ē":{"ha":772,"x_min":0,"x_max":0,"o":"m 385 -7 b 54 411 165 -7 54 202 b 404 836 54 623 170 836 b 707 511 586 836 707 682 b 632 396 707 467 688 397 l 218 382 b 403 142 224 274 282 142 b 582 250 481 142 537 191 b 646 285 601 274 624 285 b 693 156 701 285 747 216 b 385 -7 632 88 543 -7 m 144 890 b 144 1048 53 890 61 1048 l 625 1048 b 620 890 722 1048 712 890 l 144 890 m 541 557 b 411 690 532 643 473 690 b 236 545 324 690 262 623 b 339 543 258 544 294 543 b 541 557 403 543 480 545 "},"Ĕ":{"ha":760,"x_min":0,"x_max":0,"o":"m 625 5 b 190 1 480 1 335 1 b 62 187 62 1 64 43 l 56 1119 b 182 1283 54 1240 90 1284 b 625 1279 269 1283 412 1279 b 636 1122 732 1279 727 1123 b 216 1124 519 1120 251 1126 l 216 720 l 502 720 b 506 560 593 720 571 555 b 216 560 488 562 397 562 l 216 161 b 632 161 239 160 543 161 b 625 5 728 161 731 8 m 118 1495 b 178 1557 110 1535 142 1557 b 245 1511 205 1557 235 1542 b 359 1420 267 1447 311 1420 b 514 1525 430 1420 496 1451 b 578 1568 521 1554 549 1568 b 642 1497 614 1568 652 1544 b 362 1301 612 1367 490 1301 b 118 1495 237 1301 140 1379 "},"ĕ":{"ha":772,"x_min":0,"x_max":0,"o":"m 385 -7 b 54 411 165 -7 54 202 b 404 836 54 623 170 836 b 707 511 586 836 707 682 b 632 396 707 467 688 397 l 218 382 b 403 142 224 274 282 142 b 582 250 481 142 537 191 b 646 285 601 274 624 285 b 693 156 701 285 747 216 b 385 -7 632 88 543 -7 m 123 1050 b 183 1112 115 1090 148 1112 b 251 1066 212 1112 240 1097 b 365 975 273 1002 316 975 b 519 1080 435 975 502 1006 b 583 1123 526 1109 555 1123 b 647 1053 620 1123 658 1099 b 368 856 617 922 495 856 b 123 1050 243 856 146 935 m 541 557 b 411 690 532 643 473 690 b 236 545 324 690 262 623 b 339 543 258 544 294 543 b 541 557 403 543 480 545 "},"Ė":{"ha":760,"x_min":0,"x_max":0,"o":"m 625 5 b 190 1 480 1 335 1 b 62 187 62 1 64 43 l 56 1119 b 182 1283 54 1240 90 1284 b 625 1279 269 1283 412 1279 b 636 1122 732 1279 727 1123 b 216 1124 519 1120 251 1126 l 216 720 l 502 720 b 506 560 593 720 571 555 b 216 560 488 562 397 562 l 216 161 b 632 161 239 160 543 161 b 625 5 728 161 731 8 m 396 1318 b 372 1316 388 1317 380 1316 b 366 1523 255 1316 228 1504 b 384 1525 373 1525 378 1525 b 396 1318 505 1525 534 1347 "},"ė":{"ha":772,"x_min":0,"x_max":0,"o":"m 385 -7 b 54 411 165 -7 54 202 b 404 836 54 623 170 836 b 707 511 586 836 707 682 b 632 396 707 467 688 397 l 218 382 b 403 142 224 274 282 142 b 582 250 481 142 537 191 b 646 285 601 274 624 285 b 693 156 701 285 747 216 b 385 -7 632 88 543 -7 m 401 873 b 377 871 393 872 385 871 b 372 1078 260 871 233 1059 b 389 1080 378 1080 384 1080 b 401 873 510 1080 540 902 m 541 557 b 411 690 532 643 473 690 b 236 545 324 690 262 623 b 339 543 258 544 294 543 b 541 557 403 543 480 545 "},"Ę":{"ha":760,"x_min":0,"x_max":0,"o":"m 457 3 b 190 1 368 1 279 1 b 62 187 62 1 64 43 l 56 1119 b 182 1283 54 1240 90 1284 b 625 1279 269 1283 412 1279 b 636 1122 732 1279 727 1123 b 216 1124 519 1120 251 1126 l 216 720 l 502 720 b 506 560 593 720 571 555 b 216 560 488 562 397 562 l 216 161 b 632 161 239 160 543 161 b 625 5 728 161 731 8 b 547 4 598 4 571 4 b 632 -141 536 -50 578 -113 b 583 -248 680 -167 637 -248 b 555 -240 574 -248 564 -245 b 457 3 477 -198 437 -99 "},"ę":{"ha":772,"x_min":0,"x_max":0,"o":"m 385 -7 b 54 411 165 -7 54 202 b 404 836 54 623 170 836 b 707 511 586 836 707 682 b 632 396 707 467 688 397 l 218 382 b 403 142 224 274 282 142 b 582 250 481 142 537 191 b 646 285 601 274 624 285 b 693 156 701 285 747 216 b 564 42 661 119 620 75 b 632 -141 517 -18 564 -106 b 583 -248 680 -167 637 -248 b 555 -240 574 -248 564 -245 b 456 0 479 -198 438 -100 b 385 -7 434 -4 411 -7 m 541 557 b 411 690 532 643 473 690 b 236 545 324 690 262 623 b 339 543 258 544 294 543 b 541 557 403 543 480 545 "},"Ě":{"ha":760,"x_min":0,"x_max":0,"o":"m 625 5 b 190 1 480 1 335 1 b 62 187 62 1 64 43 l 56 1119 b 182 1283 54 1240 90 1284 b 625 1279 269 1283 412 1279 b 636 1122 732 1279 727 1123 b 216 1124 519 1120 251 1126 l 216 720 l 502 720 b 506 560 593 720 571 555 b 216 560 488 562 397 562 l 216 161 b 632 161 239 160 543 161 b 625 5 728 161 731 8 m 502 1382 b 378 1298 476 1326 426 1298 b 267 1370 335 1298 292 1321 l 178 1545 b 251 1640 151 1599 201 1640 b 321 1595 279 1640 308 1626 l 380 1461 l 445 1609 b 506 1645 457 1634 480 1645 b 585 1557 553 1645 606 1606 "},"ě":{"ha":772,"x_min":0,"x_max":0,"o":"m 385 -7 b 54 411 165 -7 54 202 b 404 836 54 623 170 836 b 707 511 586 836 707 682 b 632 396 707 467 688 397 l 218 382 b 403 142 224 274 282 142 b 582 250 481 142 537 191 b 646 285 601 274 624 285 b 693 156 701 285 747 216 b 385 -7 632 88 543 -7 m 507 937 b 384 853 481 882 433 853 b 273 925 340 853 297 876 l 183 1100 b 256 1195 156 1154 206 1195 b 327 1150 285 1195 313 1181 l 385 1016 l 450 1164 b 511 1200 463 1190 486 1200 b 590 1112 560 1200 613 1161 m 541 557 b 411 690 532 643 473 690 b 236 545 324 690 262 623 b 339 543 258 544 294 543 b 541 557 403 543 480 545 "},"Ĝ":{"ha":937,"x_min":0,"x_max":0,"o":"m 545 595 b 811 595 633 595 723 595 b 875 404 903 595 883 477 b 515 1 844 127 665 3 b 54 639 168 -1 46 350 b 519 1275 65 983 240 1264 b 532 1275 524 1275 528 1275 b 875 979 700 1275 857 1135 b 788 910 880 937 831 910 b 719 954 757 910 727 924 b 524 1115 696 1040 648 1115 b 214 636 349 1115 214 882 b 509 160 214 331 320 160 b 705 439 609 160 707 259 b 545 435 675 439 585 435 b 545 595 434 435 456 595 m 347 1550 b 471 1634 373 1606 423 1634 b 582 1563 514 1634 557 1611 l 671 1388 b 591 1299 699 1333 643 1299 b 519 1337 560 1299 530 1310 l 461 1472 l 396 1324 b 342 1298 388 1306 366 1298 b 264 1375 296 1298 241 1328 "},"ĝ":{"ha":781,"x_min":0,"x_max":0,"o":"m 563 100 b 363 15 502 41 423 16 b 350 817 -50 1 -42 819 b 552 739 408 817 483 792 b 639 833 557 800 598 833 b 719 727 680 833 719 799 b 712 0 720 484 739 217 b 358 -353 688 -190 562 -353 b 95 -189 248 -353 144 -292 b 184 -90 71 -137 130 -90 b 243 -121 208 -90 231 -98 b 357 -195 267 -163 294 -194 b 563 100 465 -195 562 -85 m 269 1105 b 392 1190 294 1161 345 1190 b 503 1118 435 1190 479 1166 l 593 943 b 513 854 620 888 564 854 b 441 892 481 854 452 865 l 382 1027 l 317 879 b 263 853 309 861 288 853 b 186 930 218 853 164 883 m 552 528 b 369 654 499 612 431 654 b 361 654 366 654 363 654 b 368 171 170 642 163 168 b 552 298 431 172 502 217 "},"Ğ":{"ha":937,"x_min":0,"x_max":0,"o":"m 545 595 b 811 595 633 595 723 595 b 875 404 903 595 883 477 b 515 1 844 127 665 3 b 54 639 168 -1 46 350 b 519 1275 65 983 240 1264 b 532 1275 524 1275 528 1275 b 875 979 700 1275 857 1135 b 788 910 880 937 831 910 b 719 954 757 910 727 924 b 524 1115 696 1040 648 1115 b 214 636 349 1115 214 882 b 509 160 214 331 320 160 b 705 439 609 160 707 259 b 545 435 675 439 585 435 b 545 595 434 435 456 595 m 206 1495 b 266 1557 198 1535 231 1557 b 334 1511 294 1557 323 1542 b 448 1420 355 1447 399 1420 b 602 1525 518 1420 585 1451 b 666 1568 609 1554 637 1568 b 730 1497 703 1568 741 1544 b 450 1301 700 1367 578 1301 b 206 1495 326 1301 229 1379 "},"ğ":{"ha":781,"x_min":0,"x_max":0,"o":"m 563 100 b 363 15 502 41 423 16 b 350 817 -50 1 -42 819 b 552 739 408 817 483 792 b 639 833 557 800 598 833 b 719 727 680 833 719 799 b 712 0 720 484 739 217 b 358 -353 688 -190 562 -353 b 95 -189 248 -353 144 -292 b 184 -90 71 -137 130 -90 b 243 -121 208 -90 231 -98 b 357 -195 267 -163 294 -194 b 563 100 465 -195 562 -85 m 129 1050 b 189 1112 121 1090 153 1112 b 256 1066 216 1112 245 1097 b 370 975 278 1002 321 975 b 525 1080 441 975 507 1006 b 589 1123 532 1109 560 1123 b 652 1053 625 1123 663 1099 b 373 856 623 922 500 856 b 129 1050 248 856 151 935 m 552 528 b 369 654 499 612 431 654 b 361 654 366 654 363 654 b 368 171 170 642 163 168 b 552 298 431 172 502 217 "},"Ġ":{"ha":937,"x_min":0,"x_max":0,"o":"m 545 595 b 811 595 633 595 723 595 b 875 404 903 595 883 477 b 515 1 844 127 665 3 b 54 639 168 -1 46 350 b 519 1275 65 983 240 1264 b 532 1275 524 1275 528 1275 b 875 979 700 1275 857 1135 b 788 910 880 937 831 910 b 719 954 757 910 727 924 b 524 1115 696 1040 648 1115 b 214 636 349 1115 214 882 b 509 160 214 331 320 160 b 705 439 609 160 707 259 b 545 435 675 439 585 435 b 545 595 434 435 456 595 m 484 1318 b 460 1316 476 1317 468 1316 b 454 1523 343 1316 316 1504 b 472 1525 461 1525 467 1525 b 484 1318 593 1525 623 1347 "},"ġ":{"ha":781,"x_min":0,"x_max":0,"o":"m 563 100 b 363 15 502 41 423 16 b 350 817 -50 1 -42 819 b 552 739 408 817 483 792 b 639 833 557 800 598 833 b 719 727 680 833 719 799 b 712 0 720 484 739 217 b 358 -353 688 -190 562 -353 b 95 -189 248 -353 144 -292 b 184 -90 71 -137 130 -90 b 243 -121 208 -90 231 -98 b 357 -195 267 -163 294 -194 b 563 100 465 -195 562 -85 m 407 873 b 382 871 399 872 391 871 b 377 1078 266 871 239 1059 b 395 1080 384 1080 389 1080 b 407 873 515 1080 545 902 m 552 528 b 369 654 499 612 431 654 b 361 654 366 654 363 654 b 368 171 170 642 163 168 b 552 298 431 172 502 217 "},"Ģ":{"ha":937,"x_min":0,"x_max":0,"o":"m 545 595 b 811 595 633 595 723 595 b 875 404 903 595 883 477 b 515 1 844 127 665 3 b 54 639 168 -1 46 350 b 519 1275 65 983 240 1264 b 532 1275 524 1275 528 1275 b 875 979 700 1275 857 1135 b 788 910 880 937 831 910 b 719 954 757 910 727 924 b 524 1115 696 1040 648 1115 b 214 636 349 1115 214 882 b 509 160 214 331 320 160 b 705 439 609 160 707 259 b 545 435 675 439 585 435 b 545 595 434 435 456 595 m 571 -73 b 518 -441 614 -167 616 -366 b 480 -453 507 -449 494 -453 b 396 -345 420 -453 347 -392 b 420 -141 465 -277 435 -182 b 517 -46 400 -85 465 -46 b 571 -73 541 -46 562 -54 "},"ģ":{"ha":781,"x_min":0,"x_max":0,"o":"m 563 100 b 363 15 502 41 423 16 b 350 817 -50 1 -42 819 b 552 739 408 817 483 792 b 639 833 557 800 598 833 b 719 727 680 833 719 799 b 712 0 720 484 739 217 b 358 -353 688 -190 562 -353 b 95 -189 248 -353 144 -292 b 184 -90 71 -137 130 -90 b 243 -121 208 -90 231 -98 b 357 -195 267 -163 294 -194 b 563 100 465 -195 562 -85 m 309 899 b 362 1267 266 991 264 1192 b 400 1278 373 1275 387 1278 b 484 1171 460 1278 533 1218 b 460 967 415 1103 445 1008 b 363 871 480 911 415 871 b 309 899 339 871 319 879 m 552 528 b 369 654 499 612 431 654 b 361 654 366 654 363 654 b 368 171 170 642 163 168 b 552 298 431 172 502 217 "},"Ĥ":{"ha":823,"x_min":0,"x_max":0,"o":"m 217 91 b 130 -5 217 30 172 -5 b 56 91 92 -5 56 24 l 57 1183 b 137 1284 57 1251 96 1284 b 217 1185 176 1284 217 1251 l 217 711 l 609 711 l 609 1183 b 689 1284 609 1251 648 1284 b 769 1185 728 1284 769 1251 l 769 91 b 682 -5 769 30 724 -5 b 608 91 644 -5 608 24 l 608 560 l 217 560 l 217 91 m 290 1550 b 414 1634 316 1606 366 1634 b 525 1563 457 1634 500 1611 l 614 1388 b 534 1299 642 1333 586 1299 b 463 1337 503 1299 473 1310 l 404 1472 l 339 1324 b 285 1298 331 1306 309 1298 b 208 1375 239 1298 184 1328 "},"ĥ":{"ha":750,"x_min":0,"x_max":0,"o":"m 457 642 b 380 670 437 662 410 670 b 217 585 315 670 263 629 l 217 91 b 130 -5 217 30 172 -5 b 56 91 92 -5 56 24 l 57 1183 b 137 1284 57 1251 96 1284 b 217 1185 176 1284 217 1251 l 217 780 b 407 842 274 817 339 842 b 581 765 477 842 532 812 b 693 68 709 639 699 244 b 604 -4 692 22 646 -4 b 528 65 563 -4 526 18 b 457 642 532 148 536 566 m 14 1550 b 137 1634 41 1606 90 1634 b 248 1563 180 1634 224 1611 l 338 1388 b 258 1298 365 1333 309 1298 b 186 1337 227 1298 197 1310 l 127 1472 l 62 1324 b 8 1298 54 1306 33 1298 b -69 1375 -38 1298 -91 1328 "},"Ħ":{"ha":823,"x_min":0,"x_max":0,"o":"m 217 91 b 130 -5 217 30 172 -5 b 56 91 92 -5 56 24 l 57 779 l 20 779 b 20 937 -71 779 -61 937 l 57 937 l 57 1183 b 137 1284 57 1251 96 1284 b 217 1185 176 1284 217 1251 l 217 937 l 609 937 l 609 1183 b 689 1284 609 1251 648 1284 b 769 1185 728 1284 769 1251 l 769 937 l 808 937 b 803 779 905 937 895 779 l 769 779 l 769 91 b 682 -5 769 30 724 -5 b 608 91 644 -5 608 24 l 608 560 l 217 560 l 217 91 m 609 779 l 217 779 l 217 711 l 609 711 "},"ħ":{"ha":750,"x_min":0,"x_max":0,"o":"m 16 890 b 16 1048 -75 890 -65 1048 l 57 1048 l 57 1183 b 137 1284 57 1251 96 1284 b 217 1185 176 1284 217 1251 l 217 1048 l 498 1048 b 492 890 594 1048 586 890 l 217 890 l 217 780 b 407 842 274 817 339 842 b 581 765 477 842 532 812 b 693 68 709 639 699 244 b 604 -4 692 22 646 -4 b 528 65 563 -4 526 18 b 457 642 532 148 536 566 b 380 670 437 662 410 670 b 217 585 315 670 263 629 l 217 91 b 130 -5 217 30 172 -5 b 56 91 92 -5 56 24 l 57 890 l 16 890 "},"Ĩ":{"ha":882,"x_min":0,"x_max":0,"o":"m 141 0 b 137 157 30 0 26 157 l 359 157 l 363 1122 l 141 1122 b 137 1279 30 1122 26 1279 l 747 1279 b 745 1122 860 1279 849 1122 l 524 1122 l 521 157 l 747 157 b 745 0 860 157 849 0 l 141 0 m 149 1301 b 68 1377 106 1301 66 1331 b 298 1565 69 1482 203 1565 b 568 1477 407 1565 475 1463 b 734 1610 667 1491 652 1610 b 800 1572 764 1610 787 1594 b 783 1439 826 1533 814 1487 b 547 1305 732 1358 646 1305 b 298 1398 435 1305 393 1398 b 149 1301 208 1398 224 1301 "},"ĩ":{"ha":324,"x_min":0,"x_max":0,"o":"m 241 75 b 156 1 241 28 198 1 b 81 75 118 1 81 24 l 81 753 b 164 833 81 804 123 833 b 241 754 203 833 241 807 l 241 75 m -129 856 b -212 932 -174 856 -213 886 b 20 1120 -210 1038 -76 1120 b 290 1032 129 1120 197 1019 b 456 1165 389 1046 374 1165 b 522 1127 486 1165 509 1149 b 505 994 548 1088 534 1042 b 269 860 453 913 368 860 b 20 954 157 860 115 954 b -129 856 -71 954 -54 856 "},"Ī":{"ha":882,"x_min":0,"x_max":0,"o":"m 141 0 b 137 157 30 0 26 157 l 359 157 l 363 1122 l 141 1122 b 137 1279 30 1122 26 1279 l 747 1279 b 745 1122 860 1279 849 1122 l 524 1122 l 521 157 l 747 157 b 745 0 860 157 849 0 l 141 0 m 198 1335 b 198 1493 107 1335 117 1493 l 680 1493 b 674 1335 776 1493 768 1335 l 198 1335 "},"ī":{"ha":324,"x_min":0,"x_max":0,"o":"m 241 75 b 156 1 241 28 198 1 b 81 75 118 1 81 24 l 81 753 b 164 833 81 804 123 833 b 241 754 203 833 241 807 l 241 75 m -80 890 b -80 1048 -171 890 -163 1048 l 401 1048 b 396 890 498 1048 488 890 l -80 890 "},"Į":{"ha":882,"x_min":0,"x_max":0,"o":"m 141 0 b 137 157 30 0 26 157 l 359 157 l 363 1122 l 141 1122 b 137 1279 30 1122 26 1279 l 747 1279 b 745 1122 860 1279 849 1122 l 524 1122 l 521 157 l 747 157 b 745 0 860 157 849 0 l 724 0 b 807 -156 705 -57 749 -126 b 758 -263 854 -182 812 -263 b 730 -255 749 -263 739 -260 b 635 0 650 -210 609 -106 l 141 0 "},"į":{"ha":324,"x_min":0,"x_max":0,"o":"m 241 75 b 160 1 241 30 201 3 b 241 -156 140 -56 183 -126 b 193 -263 289 -182 247 -263 b 164 -255 183 -263 174 -260 b 85 47 73 -203 33 -72 b 81 75 83 56 81 65 l 81 753 b 164 833 81 804 123 833 b 241 754 203 833 241 807 l 241 75 m 161 1114 b 171 906 307 1116 302 909 b 161 1114 42 903 23 1111 "},"İ":{"ha":882,"x_min":0,"x_max":0,"o":"m 141 0 b 137 157 30 0 26 157 l 359 157 l 363 1122 l 141 1122 b 137 1279 30 1122 26 1279 l 747 1279 b 745 1122 860 1279 849 1122 l 524 1122 l 521 157 l 747 157 b 745 0 860 157 849 0 l 141 0 m 457 1318 b 433 1316 449 1317 441 1316 b 427 1523 316 1316 289 1504 b 445 1525 434 1525 439 1525 b 457 1318 566 1525 595 1347 "},"ı":{"ha":324,"x_min":0,"x_max":0,"o":"m 241 75 b 156 1 241 28 198 1 b 81 75 118 1 81 24 l 81 753 b 164 833 81 804 123 833 b 241 754 203 833 241 807 l 241 75 "},"Ĵ":{"ha":1084,"x_min":0,"x_max":0,"o":"m 56 365 b 136 444 54 415 95 444 b 214 370 172 444 209 420 b 393 160 224 286 267 152 b 564 1122 602 174 576 860 l 343 1122 b 339 1279 232 1122 228 1279 l 949 1279 b 947 1122 1062 1279 1051 1122 l 724 1122 b 382 0 739 777 787 0 b 56 365 224 0 60 152 m 499 1558 b 623 1643 526 1614 575 1643 b 734 1571 666 1643 709 1619 l 823 1396 b 743 1306 850 1341 795 1306 b 671 1345 712 1306 682 1318 l 613 1480 l 548 1332 b 494 1306 540 1314 518 1306 b 416 1383 448 1306 395 1336 "},"ĵ":{"ha":326,"x_min":0,"x_max":0,"o":"m 96 762 b 183 836 94 806 140 836 b 256 762 220 836 254 814 b 259 31 269 519 279 274 b -7 -342 243 -153 186 -342 b -243 -155 -126 -342 -224 -273 b -160 -77 -251 -109 -203 -77 b -90 -129 -129 -77 -99 -94 b -20 -183 -81 -164 -50 -183 b 102 47 76 -183 95 -22 b 96 762 123 266 106 544 m 41 1105 b 164 1190 66 1161 117 1190 b 275 1118 208 1190 251 1166 l 365 943 b 285 854 392 888 336 854 b 213 892 254 854 224 865 l 155 1027 l 90 879 b 35 853 81 861 60 853 b -42 930 -9 853 -64 883 "},"Ķ":{"ha":883,"x_min":0,"x_max":0,"o":"m 817 123 b 741 -5 854 65 796 -5 b 678 37 718 -5 694 7 l 369 600 l 232 448 l 232 92 b 142 1 232 33 187 1 b 56 94 99 1 56 31 l 60 1192 b 144 1282 60 1251 102 1282 b 224 1192 184 1282 224 1252 b 227 675 224 1053 224 815 l 694 1251 b 753 1283 713 1274 734 1283 b 808 1145 808 1283 850 1199 l 480 735 b 817 123 480 727 671 345 m 522 -47 b 469 -415 567 -141 568 -342 b 431 -427 458 -423 445 -427 b 347 -319 372 -427 300 -366 b 372 -115 418 -251 387 -156 b 468 -20 351 -60 416 -20 b 522 -47 492 -20 513 -28 "},"ķ":{"ha":711,"x_min":0,"x_max":0,"o":"m 643 141 b 576 1 680 65 632 1 b 492 65 547 1 515 20 l 267 518 l 231 494 b 228 71 229 363 231 109 b 140 -5 224 20 180 -5 b 61 65 100 -5 62 18 b 61 1191 56 315 52 853 b 140 1283 62 1253 100 1283 b 225 1191 180 1283 222 1249 b 228 680 231 1051 225 819 l 448 827 b 530 857 479 849 507 857 b 563 712 608 857 629 757 l 414 612 b 643 141 414 604 559 319 m 437 -47 b 384 -415 480 -141 481 -342 b 345 -427 373 -423 359 -427 b 262 -319 285 -427 213 -366 b 286 -115 331 -251 301 -156 b 382 -20 266 -60 331 -20 b 437 -47 407 -20 427 -28 "},"ĸ":{"ha":713,"x_min":0,"x_max":0,"o":"m 639 141 b 581 7 688 71 642 7 b 488 65 549 7 515 24 l 263 410 l 227 372 b 224 71 225 241 227 109 b 136 -5 220 20 176 -5 b 57 65 96 -5 58 18 b 57 852 52 315 60 578 b 133 944 57 914 94 944 b 221 852 175 944 218 910 b 224 571 224 774 224 598 l 506 879 b 568 910 526 901 548 910 b 621 764 632 910 677 819 l 382 519 b 639 141 382 511 525 307 "},"Ĺ":{"ha":787,"x_min":0,"x_max":0,"o":"m 658 163 b 658 3 747 163 764 3 l 190 3 b 54 140 68 3 54 76 l 56 1180 b 136 1282 56 1248 95 1282 b 216 1183 175 1282 216 1248 l 216 163 l 658 163 m 423 1590 b 461 1605 434 1600 448 1605 b 536 1477 518 1605 586 1523 l 369 1322 b 327 1306 357 1312 342 1306 b 254 1431 267 1306 198 1379 l 423 1590 "},"ĺ":{"ha":270,"x_min":0,"x_max":0,"o":"m 216 91 b 129 -5 216 30 171 -5 b 54 91 91 -5 54 24 l 56 1183 b 136 1284 56 1251 95 1284 b 216 1185 175 1284 216 1251 l 216 91 m 157 1586 b 195 1600 168 1596 182 1600 b 270 1473 252 1600 320 1519 l 103 1318 b 61 1302 91 1308 76 1302 b -12 1427 1 1302 -68 1375 l 157 1586 "},"Ļ":{"ha":787,"x_min":0,"x_max":0,"o":"m 658 163 b 658 3 747 163 764 3 l 190 3 b 54 140 68 3 54 76 l 56 1180 b 136 1282 56 1248 95 1282 b 216 1183 175 1282 216 1248 l 216 163 l 658 163 m 475 -47 b 422 -415 518 -141 519 -342 b 382 -427 411 -423 397 -427 b 300 -319 323 -427 251 -366 b 324 -115 369 -251 339 -156 b 420 -20 304 -60 369 -20 b 475 -47 445 -20 465 -28 "},"ļ":{"ha":270,"x_min":0,"x_max":0,"o":"m 216 91 b 129 -5 216 30 171 -5 b 54 91 91 -5 54 24 l 56 1183 b 136 1284 56 1251 95 1284 b 216 1185 175 1284 216 1251 l 216 91 m 216 -47 b 163 -415 260 -141 262 -342 b 125 -427 152 -423 138 -427 b 41 -319 65 -427 -7 -366 b 65 -115 111 -251 80 -156 b 161 -20 45 -60 110 -20 b 216 -47 186 -20 206 -28 "},"Ľ":{"ha":787,"x_min":0,"x_max":0,"o":"m 658 163 b 658 3 747 163 764 3 l 190 3 b 54 140 68 3 54 76 l 56 1180 b 136 1282 56 1248 95 1282 b 216 1183 175 1282 216 1248 l 216 163 l 658 163 m 538 1034 b 486 666 582 940 583 741 b 446 654 475 658 461 654 b 363 762 388 654 315 715 b 388 966 433 830 403 925 b 484 1062 368 1021 433 1062 b 538 1034 509 1062 529 1054 "},"ľ":{"ha":600,"x_min":0,"x_max":0,"o":"m 216 91 b 129 -5 216 30 171 -5 b 54 91 91 -5 54 24 l 56 1183 b 136 1284 56 1251 95 1284 b 216 1185 175 1284 216 1251 l 216 91 m 515 1059 b 463 692 559 966 560 765 b 423 680 452 684 438 680 b 340 788 363 680 292 741 b 365 991 410 856 380 951 b 461 1086 345 1047 410 1086 b 515 1059 486 1086 506 1078 "},"Ŀ":{"ha":787,"x_min":0,"x_max":0,"o":"m 380 587 b 397 589 387 589 392 589 b 410 382 518 589 548 411 b 385 380 401 381 393 380 b 380 587 269 380 241 568 m 658 163 b 658 3 747 163 764 3 l 190 3 b 54 140 68 3 54 76 l 56 1180 b 136 1282 56 1248 95 1282 b 216 1183 175 1282 216 1248 l 216 163 l 658 163 "},"ŀ":{"ha":594,"x_min":0,"x_max":0,"o":"m 216 91 b 129 -5 216 30 171 -5 b 54 91 91 -5 54 24 l 56 1183 b 136 1284 56 1251 95 1284 b 216 1185 175 1284 216 1251 l 216 91 m 418 587 b 435 589 425 589 430 589 b 448 382 556 589 586 411 b 423 380 439 381 431 380 b 418 587 307 380 279 568 "},"Ł":{"ha":914,"x_min":0,"x_max":0,"o":"m 182 302 b 140 285 168 290 155 285 b 72 416 83 285 26 372 l 182 522 l 183 1180 b 263 1282 183 1248 222 1282 b 343 1183 302 1282 343 1248 l 343 675 l 420 750 b 465 769 434 764 450 769 b 526 631 525 769 579 682 l 343 456 l 343 163 l 785 163 b 785 3 875 163 891 3 l 317 3 b 182 140 195 3 182 76 l 182 302 "},"ł":{"ha":659,"x_min":0,"x_max":0,"o":"m 165 419 b 133 410 155 412 144 410 b 83 555 69 410 22 518 l 237 650 l 237 1183 b 317 1284 237 1251 277 1284 b 397 1185 357 1284 397 1251 l 397 749 l 492 807 b 528 818 505 814 517 818 b 571 669 594 818 637 711 l 397 562 l 397 91 b 311 -5 397 30 353 -5 b 236 91 273 -5 236 24 l 236 463 l 165 419 "},"Ń":{"ha":936,"x_min":0,"x_max":0,"o":"m 214 81 b 130 3 216 31 172 3 b 58 77 94 3 58 26 l 54 1153 b 184 1276 54 1229 118 1276 b 315 1187 235 1276 286 1249 l 719 281 l 707 1184 b 787 1280 707 1249 746 1280 b 871 1184 829 1280 871 1248 l 880 99 b 757 0 882 42 819 0 b 646 72 713 0 669 22 l 212 1031 b 214 81 205 917 210 258 m 498 1590 b 536 1605 509 1600 522 1605 b 610 1477 593 1605 661 1523 l 444 1322 b 401 1306 431 1312 416 1306 b 328 1431 342 1306 273 1379 l 498 1590 "},"ń":{"ha":741,"x_min":0,"x_max":0,"o":"m 500 480 b 376 659 488 553 471 659 b 217 574 312 659 263 618 l 217 91 b 130 -5 217 30 172 -5 b 56 91 92 -5 56 24 l 57 747 b 145 837 57 807 103 837 b 217 769 182 837 217 815 b 403 831 274 806 334 831 b 669 500 583 831 647 650 b 684 68 692 347 686 172 b 594 -4 682 22 636 -4 b 518 65 553 -4 517 18 b 500 480 521 122 524 330 m 400 1145 b 438 1160 411 1156 425 1160 b 513 1032 495 1160 563 1078 l 346 878 b 304 861 334 867 319 861 b 231 986 244 861 175 935 l 400 1145 "},"Ņ":{"ha":936,"x_min":0,"x_max":0,"o":"m 214 81 b 130 3 216 31 172 3 b 58 77 94 3 58 26 l 54 1153 b 184 1276 54 1229 118 1276 b 315 1187 235 1276 286 1249 l 719 281 l 707 1184 b 787 1280 707 1249 746 1280 b 871 1184 829 1280 871 1248 l 880 99 b 757 0 882 42 819 0 b 646 72 713 0 669 22 l 212 1031 b 214 81 205 917 210 258 m 549 -47 b 496 -415 593 -141 594 -342 b 457 -427 486 -423 472 -427 b 374 -319 397 -427 326 -366 b 399 -115 444 -251 414 -156 b 495 -20 378 -60 444 -20 b 549 -47 519 -20 540 -28 "},"ņ":{"ha":741,"x_min":0,"x_max":0,"o":"m 500 480 b 376 659 488 553 471 659 b 217 574 312 659 263 618 l 217 91 b 130 -5 217 30 172 -5 b 56 91 92 -5 56 24 l 57 747 b 145 837 57 807 103 837 b 217 769 182 837 217 815 b 403 831 274 806 334 831 b 669 500 583 831 647 650 b 684 68 692 347 686 172 b 594 -4 682 22 636 -4 b 518 65 553 -4 517 18 b 500 480 521 122 524 330 m 452 -47 b 399 -415 495 -141 496 -342 b 359 -427 388 -423 374 -427 b 277 -319 300 -427 228 -366 b 301 -115 346 -251 316 -156 b 397 -20 281 -60 346 -20 b 452 -47 422 -20 442 -28 "},"Ň":{"ha":936,"x_min":0,"x_max":0,"o":"m 214 81 b 130 3 216 31 172 3 b 58 77 94 3 58 26 l 54 1153 b 184 1276 54 1229 118 1276 b 315 1187 235 1276 286 1249 l 719 281 l 707 1184 b 787 1280 707 1249 746 1280 b 871 1184 829 1280 871 1248 l 880 99 b 757 0 882 42 819 0 b 646 72 713 0 669 22 l 212 1031 b 214 81 205 917 210 258 m 590 1382 b 467 1298 564 1326 514 1298 b 355 1370 423 1298 380 1321 l 266 1545 b 339 1640 239 1599 289 1640 b 410 1595 368 1640 396 1626 l 468 1461 l 533 1609 b 594 1645 545 1634 568 1645 b 673 1557 642 1645 694 1606 "},"ň":{"ha":741,"x_min":0,"x_max":0,"o":"m 500 480 b 376 659 488 553 471 659 b 217 574 312 659 263 618 l 217 91 b 130 -5 217 30 172 -5 b 56 91 92 -5 56 24 l 57 747 b 145 837 57 807 103 837 b 217 769 182 837 217 815 b 403 831 274 806 334 831 b 669 500 583 831 647 650 b 684 68 692 347 686 172 b 594 -4 682 22 636 -4 b 518 65 553 -4 517 18 b 500 480 521 122 524 330 m 492 937 b 369 853 467 882 416 853 b 258 925 326 853 282 876 l 168 1100 b 241 1195 141 1154 191 1195 b 312 1150 270 1195 298 1181 l 370 1016 l 435 1164 b 496 1200 448 1190 471 1200 b 575 1112 544 1200 597 1161 "},"ŉ":{"ha":741,"x_min":0,"x_max":0,"o":"m 500 480 b 376 659 488 553 471 659 b 217 574 312 659 263 618 l 217 91 b 130 -5 217 30 172 -5 b 56 91 92 -5 56 24 l 57 747 b 145 837 57 807 103 837 b 217 769 182 837 217 815 b 403 831 274 806 334 831 b 669 500 583 831 647 650 b 684 68 692 347 686 172 b 594 -4 682 22 636 -4 b 518 65 553 -4 517 18 b 500 480 521 122 524 330 m 247 1261 b 194 894 290 1168 292 967 b 155 882 183 886 170 882 b 72 990 95 882 23 943 b 96 1194 141 1058 111 1153 b 193 1289 76 1249 140 1289 b 247 1261 216 1289 237 1280 "},"Ō":{"ha":935,"x_min":0,"x_max":0,"o":"m 473 0 b 56 587 220 3 56 266 b 463 1275 56 924 187 1275 b 879 604 783 1275 878 854 b 473 0 882 298 724 -3 m 225 1335 b 225 1493 134 1335 142 1493 l 707 1493 b 701 1335 803 1493 793 1335 l 225 1335 m 473 1107 b 220 597 311 1103 220 837 b 476 155 220 377 288 155 b 719 593 650 155 719 407 b 473 1107 719 796 650 1111 "},"ō":{"ha":799,"x_min":0,"x_max":0,"o":"m 400 7 b 56 389 179 7 56 182 b 399 827 47 593 164 827 b 419 827 406 827 412 827 b 400 7 857 803 854 7 m 157 890 b 157 1048 66 890 75 1048 l 639 1048 b 633 890 735 1048 726 890 l 157 890 m 412 670 b 213 391 326 681 213 610 b 397 152 213 285 259 151 b 412 670 656 155 629 637 "},"Ŏ":{"ha":935,"x_min":0,"x_max":0,"o":"m 473 0 b 56 587 220 3 56 266 b 463 1275 56 924 187 1275 b 879 604 783 1275 878 854 b 473 0 882 298 724 -3 m 205 1495 b 264 1557 197 1535 229 1557 b 332 1511 293 1557 321 1542 b 446 1420 354 1447 397 1420 b 601 1525 517 1420 583 1451 b 665 1568 608 1554 636 1568 b 728 1497 701 1568 739 1544 b 449 1301 699 1367 576 1301 b 205 1495 324 1301 228 1379 m 473 1107 b 220 597 311 1103 220 837 b 476 155 220 377 288 155 b 719 593 650 155 719 407 b 473 1107 719 796 650 1111 "},"ŏ":{"ha":799,"x_min":0,"x_max":0,"o":"m 400 7 b 56 389 179 7 56 182 b 399 827 47 593 164 827 b 419 827 406 827 412 827 b 400 7 857 803 854 7 m 137 1050 b 197 1112 129 1090 161 1112 b 264 1066 225 1112 254 1097 b 378 975 286 1002 330 975 b 533 1080 449 975 515 1006 b 597 1123 540 1109 568 1123 b 661 1053 633 1123 671 1099 b 381 856 631 922 509 856 b 137 1050 256 856 160 935 m 412 670 b 213 391 326 681 213 610 b 397 152 213 285 259 151 b 412 670 656 155 629 637 "},"Ő":{"ha":935,"x_min":0,"x_max":0,"o":"m 473 0 b 56 587 220 3 56 266 b 463 1275 56 924 187 1275 b 879 604 783 1275 878 854 b 473 0 882 298 724 -3 m 363 1590 b 401 1605 374 1600 388 1605 b 476 1477 458 1605 526 1523 l 309 1322 b 267 1306 297 1312 282 1306 b 194 1431 208 1306 138 1379 l 363 1590 m 631 1572 b 669 1587 642 1583 655 1587 b 743 1459 726 1587 793 1506 l 576 1305 b 534 1289 564 1294 549 1289 b 461 1413 475 1289 406 1362 l 631 1572 m 473 1107 b 220 597 311 1103 220 837 b 476 155 220 377 288 155 b 719 593 650 155 719 407 b 473 1107 719 796 650 1111 "},"ő":{"ha":799,"x_min":0,"x_max":0,"o":"m 400 7 b 56 389 179 7 56 182 b 399 827 47 593 164 827 b 419 827 406 827 412 827 b 400 7 857 803 854 7 m 296 1145 b 334 1160 307 1156 320 1160 b 408 1032 391 1160 458 1078 l 241 878 b 199 861 229 867 214 861 b 126 986 140 861 71 935 l 296 1145 m 563 1127 b 601 1142 574 1138 587 1142 b 675 1015 658 1142 726 1061 l 509 860 b 467 844 496 849 481 844 b 393 968 407 844 338 917 l 563 1127 m 412 670 b 213 391 326 681 213 610 b 397 152 213 285 259 151 b 412 670 656 155 629 637 "},"Œ":{"ha":1164,"x_min":0,"x_max":0,"o":"m 1029 5 b 472 -3 844 0 571 -3 b 54 587 218 -3 54 266 b 476 1275 54 930 191 1264 b 1029 1279 646 1282 845 1279 b 1040 1122 1137 1279 1131 1123 b 620 1124 924 1120 655 1126 l 620 720 l 906 720 b 910 560 997 720 975 555 b 620 560 892 562 802 562 l 620 161 b 1036 161 643 160 947 161 b 1029 5 1133 161 1135 8 m 467 155 b 467 187 467 165 467 176 l 460 1105 b 218 597 305 1089 218 831 b 467 155 218 380 285 161 "},"œ":{"ha":1166,"x_min":0,"x_max":0,"o":"m 780 -7 b 586 64 701 -7 636 20 b 397 4 536 27 472 4 b 54 389 178 4 54 183 b 397 827 54 593 163 827 b 593 764 468 827 537 807 b 799 836 647 808 715 836 b 1101 511 981 836 1101 682 b 1027 396 1101 467 1082 397 l 613 382 b 798 142 618 274 677 142 b 977 250 876 142 932 191 b 1040 285 996 274 1019 285 b 1088 156 1096 285 1142 216 b 780 -7 1027 88 937 -7 m 496 184 b 449 411 465 252 449 332 b 494 629 449 487 464 563 b 411 670 469 654 450 670 b 212 391 324 670 212 610 b 396 152 212 285 258 151 b 496 184 437 152 469 164 m 936 557 b 806 690 926 643 868 690 b 631 545 719 690 656 623 b 734 543 652 544 689 543 b 936 557 798 543 875 545 "},"Ŕ":{"ha":830,"x_min":0,"x_max":0,"o":"m 217 91 b 130 -5 217 30 172 -5 b 56 91 92 -5 56 24 l 57 1149 b 267 1280 57 1274 171 1280 b 768 888 518 1280 784 1187 b 414 515 755 673 597 555 l 758 127 b 692 -5 804 76 751 -5 b 639 20 674 -5 655 1 l 217 495 l 217 91 m 445 1590 b 483 1605 456 1600 469 1605 b 557 1477 540 1605 608 1523 l 391 1322 b 349 1306 378 1312 363 1306 b 275 1431 289 1306 220 1379 l 445 1590 m 217 666 b 285 659 239 661 262 659 b 609 901 431 659 606 746 b 300 1120 612 1073 450 1120 b 217 1116 271 1120 243 1119 l 217 666 "},"ŕ":{"ha":661,"x_min":0,"x_max":0,"o":"m 217 96 b 129 5 217 41 171 5 b 54 96 90 5 54 33 l 54 726 b 140 833 54 796 96 833 b 212 781 168 833 197 817 l 212 783 b 378 833 256 817 323 833 b 391 833 382 833 387 833 b 605 571 534 829 613 709 b 528 518 604 537 564 518 b 463 567 495 518 464 533 b 380 678 458 629 442 677 b 220 505 304 680 231 597 b 217 96 202 368 217 203 m 361 1145 b 399 1160 372 1156 385 1160 b 473 1032 456 1160 524 1078 l 307 878 b 264 861 294 867 279 861 b 191 986 203 861 136 935 l 361 1145 "},"Ŗ":{"ha":830,"x_min":0,"x_max":0,"o":"m 217 91 b 130 -5 217 30 172 -5 b 56 91 92 -5 56 24 l 57 1149 b 267 1280 57 1274 171 1280 b 768 888 518 1280 784 1187 b 414 515 755 673 597 555 l 758 127 b 692 -5 804 76 751 -5 b 639 20 674 -5 655 1 l 217 495 l 217 91 m 496 -47 b 444 -415 540 -141 541 -342 b 404 -427 433 -423 419 -427 b 321 -319 345 -427 273 -366 b 346 -115 391 -251 361 -156 b 442 -20 326 -60 391 -20 b 496 -47 467 -20 487 -28 m 217 666 b 285 659 239 661 262 659 b 609 901 431 659 606 746 b 300 1120 612 1073 450 1120 b 217 1116 271 1120 243 1119 l 217 666 "},"ŗ":{"ha":661,"x_min":0,"x_max":0,"o":"m 217 96 b 129 5 217 41 171 5 b 54 96 90 5 54 33 l 54 726 b 140 833 54 796 96 833 b 212 781 168 833 197 817 l 212 783 b 378 833 256 817 323 833 b 391 833 382 833 387 833 b 605 571 534 829 613 709 b 528 518 604 537 564 518 b 463 567 495 518 464 533 b 380 678 458 629 442 677 b 220 505 304 680 231 597 b 217 96 202 368 217 203 m 411 -47 b 358 -415 456 -141 457 -342 b 320 -427 347 -423 334 -427 b 236 -319 260 -427 189 -366 b 260 -115 307 -251 275 -156 b 357 -20 240 -60 305 -20 b 411 -47 381 -20 401 -28 "},"Ř":{"ha":830,"x_min":0,"x_max":0,"o":"m 217 91 b 130 -5 217 30 172 -5 b 56 91 92 -5 56 24 l 57 1149 b 267 1280 57 1274 171 1280 b 768 888 518 1280 784 1187 b 414 515 755 673 597 555 l 758 127 b 692 -5 804 76 751 -5 b 639 20 674 -5 655 1 l 217 495 l 217 91 m 537 1382 b 414 1298 511 1326 461 1298 b 302 1370 370 1298 327 1321 l 213 1545 b 286 1640 186 1599 236 1640 b 357 1595 315 1640 343 1626 l 415 1461 l 480 1609 b 541 1645 492 1634 515 1645 b 620 1557 589 1645 642 1606 m 217 666 b 285 659 239 661 262 659 b 609 901 431 659 606 746 b 300 1120 612 1073 450 1120 b 217 1116 271 1120 243 1119 l 217 666 "},"ř":{"ha":661,"x_min":0,"x_max":0,"o":"m 217 96 b 129 5 217 41 171 5 b 54 96 90 5 54 33 l 54 726 b 140 833 54 796 96 833 b 212 781 168 833 197 817 l 212 783 b 378 833 256 817 323 833 b 391 833 382 833 387 833 b 605 571 534 829 613 709 b 528 518 604 537 564 518 b 463 567 495 518 464 533 b 380 678 458 629 442 677 b 220 505 304 680 231 597 b 217 96 202 368 217 203 m 452 937 b 328 853 426 882 377 853 b 217 925 285 853 241 876 l 127 1100 b 201 1195 100 1154 151 1195 b 271 1150 229 1195 258 1181 l 330 1016 l 395 1164 b 456 1200 407 1190 430 1200 b 534 1112 505 1200 557 1161 "},"Ś":{"ha":888,"x_min":0,"x_max":0,"o":"m 477 -3 b 71 275 285 -3 163 118 b 138 412 35 336 85 412 b 195 373 157 412 179 400 b 469 153 296 208 384 167 b 492 152 477 152 486 152 b 671 331 586 152 670 239 b 522 536 671 414 613 496 b 54 954 328 623 61 703 b 433 1279 50 1153 251 1279 b 783 1062 568 1279 738 1199 b 716 929 811 975 764 929 b 640 986 685 929 654 948 b 431 1119 612 1073 518 1119 b 218 954 338 1119 206 1062 b 574 688 236 800 458 741 b 833 317 765 600 844 486 b 477 -3 819 132 670 -3 m 475 1590 b 513 1605 486 1600 499 1605 b 587 1477 570 1605 637 1523 l 420 1322 b 378 1306 408 1312 393 1306 b 305 1431 317 1306 250 1379 l 475 1590 "},"ś":{"ha":716,"x_min":0,"x_max":0,"o":"m 213 600 b 659 259 218 438 694 627 b 368 0 646 130 545 0 b 87 107 270 0 159 43 b 122 262 33 155 62 262 b 168 240 136 262 152 255 b 350 156 216 198 298 156 b 503 270 444 156 498 214 b 56 609 519 464 39 245 b 347 834 64 769 203 834 b 555 785 416 834 494 818 b 509 636 678 719 612 586 b 342 675 456 661 400 675 b 213 600 271 675 210 658 m 388 1145 b 426 1160 399 1156 412 1160 b 500 1032 483 1160 551 1078 l 334 878 b 292 861 321 867 307 861 b 218 986 232 861 163 935 l 388 1145 "},"Ŝ":{"ha":888,"x_min":0,"x_max":0,"o":"m 477 -3 b 71 275 285 -3 163 118 b 138 412 35 336 85 412 b 195 373 157 412 179 400 b 469 153 296 208 384 167 b 492 152 477 152 486 152 b 671 331 586 152 670 239 b 522 536 671 414 613 496 b 54 954 328 623 61 703 b 433 1279 50 1153 251 1279 b 783 1062 568 1279 738 1199 b 716 929 811 975 764 929 b 640 986 685 929 654 948 b 431 1119 612 1073 518 1119 b 218 954 338 1119 206 1062 b 574 688 236 800 458 741 b 833 317 765 600 844 486 b 477 -3 819 132 670 -3 m 323 1550 b 446 1634 349 1606 399 1634 b 557 1563 490 1634 533 1611 l 647 1388 b 567 1299 674 1333 618 1299 b 495 1337 536 1299 506 1310 l 437 1472 l 372 1324 b 317 1298 363 1306 342 1298 b 240 1375 271 1298 217 1328 "},"ŝ":{"ha":716,"x_min":0,"x_max":0,"o":"m 213 600 b 659 259 218 438 694 627 b 368 0 646 130 545 0 b 87 107 270 0 159 43 b 122 262 33 155 62 262 b 168 240 136 262 152 255 b 350 156 216 198 298 156 b 503 270 444 156 498 214 b 56 609 519 464 39 245 b 347 834 64 769 203 834 b 555 785 416 834 494 818 b 509 636 678 719 612 586 b 342 675 456 661 400 675 b 213 600 271 675 210 658 m 236 1105 b 359 1190 262 1161 312 1190 b 471 1118 403 1190 446 1166 l 560 943 b 480 854 587 888 532 854 b 408 892 449 854 419 865 l 350 1027 l 285 879 b 231 853 277 861 255 853 b 153 930 186 853 132 883 "},"Ş":{"ha":888,"x_min":0,"x_max":0,"o":"m 415 -12 b 385 -373 658 -24 627 -381 b 373 -259 316 -373 315 -255 b 380 -134 503 -269 494 -123 b 307 34 309 -141 307 -111 b 71 275 210 80 136 164 b 138 412 35 336 85 412 b 195 373 157 412 179 400 b 469 153 296 208 384 167 b 492 152 477 152 486 152 b 671 331 586 152 670 239 b 522 536 671 414 613 496 b 54 954 328 623 61 703 b 433 1279 50 1153 251 1279 b 783 1062 568 1279 738 1199 b 716 929 811 975 764 929 b 640 986 685 929 654 948 b 431 1119 612 1073 518 1119 b 218 954 338 1119 206 1062 b 574 688 236 800 458 741 b 833 317 765 600 844 486 b 477 -3 819 132 670 -3 b 415 1 457 -3 435 -1 l 415 -12 "},"ş":{"ha":716,"x_min":0,"x_max":0,"o":"m 328 -12 b 298 -373 571 -24 540 -381 b 286 -259 229 -373 228 -255 b 293 -134 416 -269 407 -123 b 220 28 224 -141 220 -113 b 87 107 170 47 123 75 b 122 262 33 155 62 262 b 168 240 136 262 152 255 b 350 156 216 198 298 156 b 503 270 444 156 498 214 b 56 609 519 464 39 245 b 347 834 64 769 203 834 b 555 785 416 834 494 818 b 509 636 678 719 612 586 b 342 675 456 661 400 675 b 213 600 271 675 210 658 b 659 259 218 438 694 627 b 368 0 646 130 545 0 b 330 3 355 0 342 1 l 328 -12 "},"Š":{"ha":888,"x_min":0,"x_max":0,"o":"m 477 -3 b 71 275 285 -3 163 118 b 138 412 35 336 85 412 b 195 373 157 412 179 400 b 469 153 296 208 384 167 b 492 152 477 152 486 152 b 671 331 586 152 670 239 b 522 536 671 414 613 496 b 54 954 328 623 61 703 b 433 1279 50 1153 251 1279 b 783 1062 568 1279 738 1199 b 716 929 811 975 764 929 b 640 986 685 929 654 948 b 431 1119 612 1073 518 1119 b 218 954 338 1119 206 1062 b 574 688 236 800 458 741 b 833 317 765 600 844 486 b 477 -3 819 132 670 -3 m 566 1382 b 442 1298 540 1326 491 1298 b 331 1370 399 1298 355 1321 l 241 1545 b 315 1640 214 1599 264 1640 b 385 1595 343 1640 372 1626 l 444 1461 l 509 1609 b 570 1645 521 1634 544 1645 b 648 1557 618 1645 671 1606 "},"š":{"ha":716,"x_min":0,"x_max":0,"o":"m 213 600 b 659 259 218 438 694 627 b 368 0 646 130 545 0 b 87 107 270 0 159 43 b 122 262 33 155 62 262 b 168 240 136 262 152 255 b 350 156 216 198 298 156 b 503 270 444 156 498 214 b 56 609 519 464 39 245 b 347 834 64 769 203 834 b 555 785 416 834 494 818 b 509 636 678 719 612 586 b 342 675 456 661 400 675 b 213 600 271 675 210 658 m 480 937 b 357 853 454 882 404 853 b 245 925 313 853 270 876 l 156 1100 b 229 1195 129 1154 179 1195 b 300 1150 258 1195 286 1181 l 358 1016 l 423 1164 b 484 1200 435 1190 458 1200 b 563 1112 532 1200 585 1161 "},"Ţ":{"ha":882,"x_min":0,"x_max":0,"o":"m 495 -12 b 465 -373 738 -24 707 -380 b 453 -259 396 -372 395 -255 b 460 -134 583 -269 574 -123 b 387 23 391 -141 387 -113 b 359 98 370 39 359 64 l 363 1122 l 141 1122 b 137 1279 30 1122 26 1279 l 747 1279 b 745 1122 860 1279 849 1122 l 524 1122 l 521 98 b 496 28 521 68 511 45 l 495 -12 "},"ţ":{"ha":651,"x_min":0,"x_max":0,"o":"m 378 -12 b 349 -373 621 -24 590 -380 b 336 -259 279 -372 278 -255 b 343 -134 467 -269 457 -123 b 270 15 275 -141 270 -114 b 244 91 255 31 244 56 l 245 644 l 95 644 b 94 804 -7 644 -16 804 l 245 804 l 245 1183 b 326 1284 245 1251 285 1284 b 406 1185 365 1284 406 1251 l 406 804 l 563 804 b 563 644 652 804 669 644 l 406 644 l 406 91 b 380 22 406 61 395 38 l 378 -12 "},"Ť":{"ha":882,"x_min":0,"x_max":0,"o":"m 363 1122 l 141 1122 b 137 1279 30 1122 26 1279 l 747 1279 b 745 1122 860 1279 849 1122 l 524 1122 l 521 98 b 439 3 521 35 480 3 b 359 98 399 3 359 34 m 563 1382 b 439 1298 537 1326 487 1298 b 328 1370 396 1298 353 1321 l 239 1545 b 312 1640 212 1599 262 1640 b 382 1595 340 1640 369 1626 l 441 1461 l 506 1609 b 567 1645 518 1634 541 1645 b 646 1557 614 1645 667 1606 "},"ť":{"ha":981,"x_min":0,"x_max":0,"o":"m 406 91 b 319 -5 406 30 361 -5 b 244 91 281 -5 244 24 l 245 644 l 95 644 b 94 804 -7 644 -16 804 l 245 804 l 245 1183 b 326 1284 245 1251 285 1284 b 406 1185 365 1284 406 1251 l 406 804 l 563 804 b 563 644 652 804 669 644 l 406 644 l 406 91 m 897 1059 b 844 692 940 966 941 765 b 804 680 833 684 819 680 b 722 788 745 680 673 741 b 746 991 791 856 761 951 b 842 1086 726 1047 791 1086 b 897 1059 867 1086 887 1078 "},"Ŧ":{"ha":882,"x_min":0,"x_max":0,"o":"m 199 738 b 199 897 107 738 117 897 l 362 897 l 363 1122 l 141 1122 b 137 1279 30 1122 26 1279 l 747 1279 b 745 1122 860 1279 849 1122 l 524 1122 l 524 897 l 681 897 b 675 738 777 897 768 738 l 522 738 l 521 98 b 439 3 521 35 480 3 b 359 98 399 3 359 34 l 362 738 l 199 738 "},"ŧ":{"ha":651,"x_min":0,"x_max":0,"o":"m 406 91 b 319 -5 406 30 361 -5 b 244 91 281 -5 244 24 l 245 644 l 95 644 b 94 804 -7 644 -16 804 l 245 804 l 245 890 l 83 890 b 83 1048 -8 890 1 1048 l 245 1048 l 245 1183 b 326 1284 245 1251 285 1284 b 406 1185 365 1284 406 1251 l 406 1048 l 564 1048 b 559 890 661 1048 652 890 l 406 890 l 406 804 l 563 804 b 563 644 652 804 669 644 l 406 644 l 406 91 "},"Ũ":{"ha":837,"x_min":0,"x_max":0,"o":"m 779 1190 b 416 -1 779 883 845 -1 b 61 1195 -9 -1 56 883 b 142 1279 62 1252 102 1279 b 222 1195 182 1279 222 1251 b 406 168 222 1006 178 171 b 616 1194 682 163 612 990 b 696 1276 617 1249 656 1276 b 779 1190 736 1276 779 1246 m 127 1301 b 45 1377 83 1301 43 1331 b 277 1565 46 1482 180 1565 b 547 1477 385 1565 453 1463 b 712 1610 646 1491 631 1610 b 779 1572 742 1610 765 1594 b 761 1439 804 1533 791 1487 b 525 1305 709 1358 624 1305 b 277 1398 414 1305 372 1398 b 127 1301 186 1398 202 1301 "},"ũ":{"ha":785,"x_min":0,"x_max":0,"o":"m 731 96 b 644 5 731 41 686 5 b 572 79 610 5 578 27 b 377 8 514 35 445 7 b 60 761 35 20 47 444 b 141 837 62 811 102 837 b 218 768 179 837 216 814 b 217 491 221 715 212 604 b 372 174 225 335 266 171 b 571 453 507 176 571 316 l 571 753 b 654 836 571 806 613 836 b 731 754 693 836 731 808 l 731 96 m 102 856 b 19 932 57 856 18 886 b 251 1120 20 1038 155 1120 b 521 1032 359 1120 427 1019 b 686 1165 620 1046 605 1165 b 753 1127 716 1165 739 1149 b 735 994 779 1088 765 1042 b 499 860 684 913 598 860 b 251 954 388 860 346 954 b 102 856 160 954 176 856 "},"Ū":{"ha":837,"x_min":0,"x_max":0,"o":"m 779 1190 b 416 -1 779 883 845 -1 b 61 1195 -9 -1 56 883 b 142 1279 62 1252 102 1279 b 222 1195 182 1279 222 1251 b 406 168 222 1006 178 171 b 616 1194 682 163 612 990 b 696 1276 617 1249 656 1276 b 779 1190 736 1276 779 1246 m 176 1335 b 176 1493 85 1335 94 1493 l 658 1493 b 652 1335 754 1493 745 1335 l 176 1335 "},"ū":{"ha":785,"x_min":0,"x_max":0,"o":"m 731 96 b 644 5 731 41 686 5 b 572 79 610 5 578 27 b 377 8 514 35 445 7 b 60 761 35 20 47 444 b 141 837 62 811 102 837 b 218 768 179 837 216 814 b 217 491 221 715 212 604 b 372 174 225 335 266 171 b 571 453 507 176 571 316 l 571 753 b 654 836 571 806 613 836 b 731 754 693 836 731 808 l 731 96 m 151 890 b 151 1048 60 890 68 1048 l 632 1048 b 627 890 728 1048 719 890 l 151 890 "},"Ŭ":{"ha":837,"x_min":0,"x_max":0,"o":"m 779 1190 b 416 -1 779 883 845 -1 b 61 1195 -9 -1 56 883 b 142 1279 62 1252 102 1279 b 222 1195 182 1279 222 1251 b 406 168 222 1006 178 171 b 616 1194 682 163 612 990 b 696 1276 617 1249 656 1276 b 779 1190 736 1276 779 1246 m 156 1495 b 216 1557 148 1535 180 1557 b 283 1511 244 1557 273 1542 b 397 1420 305 1447 349 1420 b 552 1525 468 1420 534 1451 b 616 1568 559 1554 587 1568 b 680 1497 652 1568 690 1544 b 400 1301 650 1367 528 1301 b 156 1495 275 1301 179 1379 "},"ŭ":{"ha":785,"x_min":0,"x_max":0,"o":"m 731 96 b 644 5 731 41 686 5 b 572 79 610 5 578 27 b 377 8 514 35 445 7 b 60 761 35 20 47 444 b 141 837 62 811 102 837 b 218 768 179 837 216 814 b 217 491 221 715 212 604 b 372 174 225 335 266 171 b 571 453 507 176 571 316 l 571 753 b 654 836 571 806 613 836 b 731 754 693 836 731 808 l 731 96 m 130 1050 b 190 1112 122 1090 155 1112 b 258 1066 218 1112 247 1097 b 372 975 279 1002 323 975 b 526 1080 442 975 509 1006 b 590 1123 533 1109 562 1123 b 654 1053 627 1123 665 1099 b 374 856 624 922 502 856 b 130 1050 250 856 153 935 "},"Ů":{"ha":837,"x_min":0,"x_max":0,"o":"m 779 1190 b 416 -1 779 883 845 -1 b 61 1195 -9 -1 56 883 b 142 1279 62 1252 102 1279 b 222 1195 182 1279 222 1251 b 406 168 222 1006 178 171 b 616 1194 682 163 612 990 b 696 1276 617 1249 656 1276 b 779 1190 736 1276 779 1246 m 222 1477 b 420 1657 227 1598 324 1657 b 616 1478 518 1657 616 1596 b 414 1298 616 1360 514 1298 b 222 1477 317 1298 222 1356 m 361 1476 b 414 1435 359 1449 385 1435 b 475 1474 442 1435 473 1450 b 414 1522 476 1504 445 1522 b 361 1476 388 1522 362 1508 "},"ů":{"ha":785,"x_min":0,"x_max":0,"o":"m 731 96 b 644 5 731 41 686 5 b 572 79 610 5 578 27 b 377 8 514 35 445 7 b 60 761 35 20 47 444 b 141 837 62 811 102 837 b 218 768 179 837 216 814 b 217 491 221 715 212 604 b 372 174 225 335 266 171 b 571 453 507 176 571 316 l 571 753 b 654 836 571 806 613 836 b 731 754 693 836 731 808 l 731 96 m 197 1032 b 395 1213 201 1153 298 1213 b 590 1034 492 1213 590 1152 b 388 853 590 916 488 853 b 197 1032 292 853 197 911 m 335 1031 b 388 990 334 1004 359 990 b 449 1029 416 990 448 1005 b 388 1077 450 1059 419 1077 b 335 1031 362 1077 336 1063 "},"Ű":{"ha":837,"x_min":0,"x_max":0,"o":"m 779 1190 b 416 -1 779 883 845 -1 b 61 1195 -9 -1 56 883 b 142 1279 62 1252 102 1279 b 222 1195 182 1279 222 1251 b 406 168 222 1006 178 171 b 616 1194 682 163 612 990 b 696 1276 617 1249 656 1276 b 779 1190 736 1276 779 1246 m 315 1590 b 353 1605 326 1600 339 1605 b 427 1477 410 1605 477 1523 l 260 1322 b 218 1306 248 1312 233 1306 b 145 1431 159 1306 90 1379 l 315 1590 m 582 1572 b 620 1587 593 1583 606 1587 b 694 1459 677 1587 745 1506 l 528 1305 b 486 1289 515 1294 500 1289 b 412 1413 426 1289 357 1362 l 582 1572 "},"ű":{"ha":785,"x_min":0,"x_max":0,"o":"m 731 96 b 644 5 731 41 686 5 b 572 79 610 5 578 27 b 377 8 514 35 445 7 b 60 761 35 20 47 444 b 141 837 62 811 102 837 b 218 768 179 837 216 814 b 217 491 221 715 212 604 b 372 174 225 335 266 171 b 571 453 507 176 571 316 l 571 753 b 654 836 571 806 613 836 b 731 754 693 836 731 808 l 731 96 m 289 1145 b 327 1160 300 1156 313 1160 b 401 1032 384 1160 452 1078 l 235 878 b 193 861 222 867 208 861 b 119 986 133 861 64 935 l 289 1145 m 556 1127 b 594 1142 567 1138 581 1142 b 669 1015 651 1142 719 1061 l 502 860 b 460 844 490 849 475 844 b 387 968 400 844 331 917 l 556 1127 "},"Ų":{"ha":837,"x_min":0,"x_max":0,"o":"m 779 1190 b 563 42 779 925 829 225 b 631 -141 515 -18 563 -106 b 582 -248 678 -167 636 -248 b 553 -240 572 -248 563 -245 b 456 1 477 -197 437 -99 b 416 -1 444 0 430 -1 b 61 1195 -9 -1 56 883 b 142 1279 62 1252 102 1279 b 222 1195 182 1279 222 1251 b 406 168 222 1006 178 171 b 616 1194 682 163 612 990 b 696 1276 617 1249 656 1276 b 779 1190 736 1276 779 1246 "},"ų":{"ha":785,"x_min":0,"x_max":0,"o":"m 731 96 b 631 7 731 35 675 -1 b 711 -156 606 -52 650 -125 b 662 -263 758 -182 716 -263 b 633 -255 652 -263 643 -260 b 570 77 534 -199 495 -50 b 377 8 513 35 444 7 b 60 761 35 20 47 444 b 141 837 62 811 102 837 b 218 768 179 837 216 814 b 217 491 221 715 212 604 b 372 174 225 335 266 171 b 571 453 507 176 571 316 l 571 753 b 654 836 571 806 613 836 b 731 754 693 836 731 808 l 731 96 "},"Ŵ":{"ha":1411,"x_min":0,"x_max":0,"o":"m 589 81 b 472 0 574 28 522 0 b 366 66 427 0 384 22 b 61 1175 305 216 106 1032 b 130 1280 39 1245 84 1280 b 208 1225 163 1280 197 1263 b 469 233 239 1118 465 248 l 628 826 b 705 890 639 869 671 890 b 783 827 738 890 772 868 l 941 233 b 1203 1225 945 248 1173 1118 b 1282 1280 1214 1263 1248 1280 b 1350 1175 1328 1280 1371 1245 b 1044 66 1305 1032 1105 216 b 939 0 1027 22 983 0 b 822 81 888 0 837 28 l 705 517 l 589 81 m 583 1550 b 707 1634 609 1606 659 1634 b 818 1563 750 1634 793 1611 l 907 1388 b 827 1299 935 1333 879 1299 b 755 1337 796 1299 766 1310 l 697 1472 l 632 1324 b 578 1298 624 1306 602 1298 b 500 1375 533 1298 479 1328 "},"ŵ":{"ha":1238,"x_min":0,"x_max":0,"o":"m 509 85 b 392 0 490 28 441 0 b 283 72 347 0 302 24 b 60 718 221 224 106 568 b 136 838 39 785 87 838 b 206 781 163 838 191 822 b 391 235 244 680 387 250 l 530 670 b 620 758 544 712 571 758 b 708 670 670 758 694 712 l 848 235 b 1032 781 852 250 994 680 b 1103 838 1047 822 1076 838 b 1179 718 1152 838 1199 785 b 955 72 1133 568 1017 224 b 846 0 936 24 891 0 b 730 85 798 0 749 28 l 618 414 l 509 85 m 498 1105 b 621 1190 524 1161 574 1190 b 732 1118 665 1190 708 1166 l 822 943 b 742 854 849 888 793 854 b 670 892 711 854 681 865 l 612 1027 l 547 879 b 492 853 538 861 517 853 b 415 930 446 853 392 883 "},"Ŷ":{"ha":949,"x_min":0,"x_max":0,"o":"m 563 85 b 472 1 563 31 517 1 b 384 85 427 1 384 30 l 387 625 l 68 1145 b 146 1279 30 1207 84 1279 b 231 1221 175 1279 208 1263 l 475 795 l 720 1221 b 804 1279 743 1263 776 1279 b 883 1145 867 1279 921 1207 l 564 625 m 353 1550 b 476 1634 378 1606 429 1634 b 587 1563 519 1634 563 1611 l 677 1388 b 597 1299 704 1333 648 1299 b 525 1337 566 1299 536 1310 l 467 1472 l 401 1324 b 347 1298 393 1306 372 1298 b 270 1375 302 1298 248 1328 "},"ŷ":{"ha":856,"x_min":0,"x_max":0,"o":"m 463 -285 b 387 -345 449 -328 418 -345 b 300 -251 335 -345 283 -301 l 397 62 l 64 716 b 138 836 33 777 85 836 b 205 791 164 836 189 822 l 468 275 l 636 787 b 707 840 648 825 677 840 b 798 739 758 840 815 792 l 463 -285 m 307 1105 b 430 1190 332 1161 382 1190 b 541 1118 473 1190 517 1166 l 631 943 b 551 854 658 888 602 854 b 479 892 519 854 490 865 l 420 1027 l 355 879 b 301 853 347 861 326 853 b 224 930 255 853 201 883 "},"Ÿ":{"ha":949,"x_min":0,"x_max":0,"o":"m 563 85 b 472 1 563 31 517 1 b 384 85 427 1 384 30 l 387 625 l 68 1145 b 146 1279 30 1207 84 1279 b 231 1221 175 1279 208 1263 l 475 795 l 720 1221 b 804 1279 743 1263 776 1279 b 883 1145 867 1279 921 1207 l 564 625 m 311 1529 b 328 1530 317 1530 323 1530 b 340 1324 449 1530 479 1352 b 316 1321 332 1322 324 1321 b 311 1529 199 1321 172 1510 m 612 1529 b 629 1530 618 1530 624 1530 b 642 1324 750 1530 780 1352 b 617 1321 633 1322 625 1321 b 612 1529 500 1321 473 1510 "},"Ź":{"ha":948,"x_min":0,"x_max":0,"o":"m 167 5 b 83 190 20 5 47 134 l 658 1107 l 141 1105 b 130 1272 34 1105 30 1268 b 773 1278 296 1279 610 1275 b 854 1065 907 1280 921 1165 l 273 174 l 793 171 b 793 5 929 170 922 5 m 505 1590 b 543 1605 515 1600 529 1605 b 617 1477 600 1605 667 1523 l 450 1322 b 408 1306 438 1312 423 1306 b 335 1431 347 1306 279 1379 l 505 1590 "},"ź":{"ha":726,"x_min":0,"x_max":0,"o":"m 170 -1 b 85 190 23 -3 45 137 l 465 677 l 149 670 b 138 827 38 667 26 825 b 544 829 292 830 381 826 b 625 616 678 831 707 720 l 267 156 l 568 159 b 568 3 692 160 696 4 m 393 1145 b 431 1160 404 1156 418 1160 b 506 1032 488 1160 556 1078 l 339 878 b 297 861 327 867 312 861 b 224 986 236 861 168 935 l 393 1145 "},"Ż":{"ha":948,"x_min":0,"x_max":0,"o":"m 167 5 b 83 190 20 5 47 134 l 658 1107 l 141 1105 b 130 1272 34 1105 30 1268 b 773 1278 296 1279 610 1275 b 854 1065 907 1280 921 1165 l 273 174 l 793 171 b 793 5 929 170 922 5 m 490 1318 b 465 1316 481 1317 473 1316 b 460 1523 349 1316 321 1504 b 477 1525 467 1525 472 1525 b 490 1318 598 1525 628 1347 "},"ż":{"ha":726,"x_min":0,"x_max":0,"o":"m 170 -1 b 85 190 23 -3 45 137 l 465 677 l 149 670 b 138 827 38 667 26 825 b 544 829 292 830 381 826 b 625 616 678 831 707 720 l 267 156 l 568 159 b 568 3 692 160 696 4 m 378 873 b 354 871 370 872 362 871 b 349 1078 237 871 210 1059 b 366 1080 355 1080 361 1080 b 378 873 487 1080 517 902 "},"Ž":{"ha":948,"x_min":0,"x_max":0,"o":"m 167 5 b 83 190 20 5 47 134 l 658 1107 l 141 1105 b 130 1272 34 1105 30 1268 b 773 1278 296 1279 610 1275 b 854 1065 907 1280 921 1165 l 273 174 l 793 171 b 793 5 929 170 922 5 m 595 1382 b 472 1298 570 1326 521 1298 b 361 1370 429 1298 385 1321 l 271 1545 b 345 1640 244 1599 294 1640 b 415 1595 373 1640 401 1626 l 473 1461 l 538 1609 b 600 1645 551 1634 574 1645 b 678 1557 648 1645 701 1606 "},"ž":{"ha":726,"x_min":0,"x_max":0,"o":"m 170 -1 b 85 190 23 -3 45 137 l 465 677 l 149 670 b 138 827 38 667 26 825 b 544 829 292 830 381 826 b 625 616 678 831 707 720 l 267 156 l 568 159 b 568 3 692 160 696 4 m 484 937 b 361 853 458 882 410 853 b 250 925 317 853 274 876 l 160 1100 b 233 1195 133 1154 183 1195 b 304 1150 262 1195 290 1181 l 362 1016 l 427 1164 b 488 1200 439 1190 463 1200 b 567 1112 537 1200 590 1161 "},"ƒ":{"ha":741,"x_min":0,"x_max":0,"o":"m 365 406 b 92 -323 365 224 358 -323 b -134 -134 -23 -323 -115 -251 b -52 -58 -142 -90 -95 -58 b 19 -110 -20 -58 9 -73 b 96 -164 28 -148 64 -168 b 209 395 199 -151 208 288 b 208 644 209 477 208 562 l 144 644 b 142 804 42 644 33 804 l 206 804 b 472 1278 209 1016 243 1278 b 685 1013 614 1278 694 1179 b 608 960 684 979 644 960 b 543 1009 575 960 544 975 b 484 1119 540 1063 528 1119 b 363 804 370 1119 365 880 l 494 804 b 494 644 583 804 600 644 l 365 644 b 365 406 365 566 365 486 "},"Ș":{"ha":888,"x_min":0,"x_max":0,"o":"m 477 -3 b 71 275 285 -3 163 118 b 138 412 35 336 85 412 b 195 373 157 412 179 400 b 469 153 296 208 384 167 b 492 152 477 152 486 152 b 671 331 586 152 670 239 b 522 536 671 414 613 496 b 54 954 328 623 61 703 b 433 1279 50 1153 251 1279 b 783 1062 568 1279 738 1199 b 716 929 811 975 764 929 b 640 986 685 929 654 948 b 431 1119 612 1073 518 1119 b 218 954 338 1119 206 1062 b 574 688 236 800 458 741 b 833 317 765 600 844 486 b 477 -3 819 132 670 -3 m 525 -47 b 472 -415 570 -141 571 -342 b 434 -427 461 -423 448 -427 b 350 -319 374 -427 302 -366 b 374 -115 420 -251 389 -156 b 471 -20 354 -60 419 -20 b 525 -47 495 -20 515 -28 "},"ș":{"ha":716,"x_min":0,"x_max":0,"o":"m 213 600 b 659 259 218 438 694 627 b 368 0 646 130 545 0 b 87 107 270 0 159 43 b 122 262 33 155 62 262 b 168 240 136 262 152 255 b 350 156 216 198 298 156 b 503 270 444 156 498 214 b 56 609 519 464 39 245 b 347 834 64 769 203 834 b 555 785 416 834 494 818 b 509 636 678 719 612 586 b 342 675 456 661 400 675 b 213 600 271 675 210 658 m 439 -47 b 387 -415 483 -141 484 -342 b 347 -427 376 -423 362 -427 b 264 -319 288 -427 216 -366 b 289 -115 334 -251 304 -156 b 385 -20 269 -60 334 -20 b 439 -47 410 -20 430 -28 "},"Ț":{"ha":882,"x_min":0,"x_max":0,"o":"m 363 1122 l 141 1122 b 137 1279 30 1122 26 1279 l 747 1279 b 745 1122 860 1279 849 1122 l 524 1122 l 521 98 b 439 3 521 35 480 3 b 359 98 399 3 359 34 m 522 -47 b 469 -415 566 -141 567 -342 b 430 -427 458 -423 445 -427 b 347 -319 370 -427 298 -366 b 372 -115 416 -251 387 -156 b 468 -20 351 -60 416 -20 b 522 -47 492 -20 513 -28 "},"ț":{"ha":651,"x_min":0,"x_max":0,"o":"m 406 91 b 319 -5 406 30 361 -5 b 244 91 281 -5 244 24 l 245 644 l 95 644 b 94 804 -7 644 -16 804 l 245 804 l 245 1183 b 326 1284 245 1251 285 1284 b 406 1185 365 1284 406 1251 l 406 804 l 563 804 b 563 644 652 804 669 644 l 406 644 l 406 91 m 407 -47 b 354 -415 450 -141 452 -342 b 315 -427 343 -423 330 -427 b 232 -319 255 -427 183 -366 b 256 -115 301 -251 271 -156 b 353 -20 236 -60 301 -20 b 407 -47 377 -20 397 -28 "},"ȷ":{"ha":326,"x_min":0,"x_max":0,"o":"m 96 762 b 183 836 94 806 140 836 b 256 762 220 836 254 814 b 259 31 269 519 279 274 b -7 -342 243 -153 186 -342 b -243 -155 -126 -342 -224 -273 b -160 -77 -251 -109 -203 -77 b -90 -129 -129 -77 -99 -94 b -20 -183 -81 -164 -50 -183 b 102 47 76 -183 95 -22 b 96 762 123 266 106 544 "},"ˆ":{"ha":529,"x_min":0,"x_max":0,"o":"m 142 1105 b 266 1190 168 1161 218 1190 b 377 1118 309 1190 353 1166 l 467 943 b 387 854 494 888 438 854 b 315 892 355 854 326 865 l 256 1027 l 191 879 b 137 853 183 861 161 853 b 60 930 91 853 38 883 "},"ˇ":{"ha":529,"x_min":0,"x_max":0,"o":"m 387 937 b 263 853 361 882 311 853 b 152 925 220 853 176 876 l 62 1100 b 136 1195 35 1154 85 1195 b 206 1150 164 1195 193 1181 l 264 1016 l 330 1164 b 391 1200 342 1190 365 1200 b 469 1112 438 1200 491 1161 "},"˘":{"ha":636,"x_min":0,"x_max":0,"o":"m 56 1050 b 115 1112 47 1090 80 1112 b 183 1066 144 1112 172 1097 b 297 975 205 1002 248 975 b 452 1080 368 975 434 1006 b 515 1123 458 1109 487 1123 b 579 1053 552 1123 590 1099 b 300 856 549 922 427 856 b 56 1050 175 856 77 935 "},"˙":{"ha":324,"x_min":0,"x_max":0,"o":"m 178 873 b 153 871 170 872 161 871 b 148 1078 37 871 9 1059 b 165 1080 155 1080 160 1080 b 178 873 286 1080 316 902 "},"˚":{"ha":502,"x_min":0,"x_max":0,"o":"m 54 1032 b 252 1213 58 1153 156 1213 b 448 1034 350 1213 448 1152 b 245 853 448 916 346 853 b 54 1032 149 853 54 911 m 193 1031 b 245 990 191 1004 218 990 b 307 1029 275 990 305 1005 b 247 1077 308 1059 277 1077 b 193 1031 221 1077 194 1063 "},"˛":{"ha":311,"x_min":0,"x_max":0,"o":"m 100 87 b 144 118 114 109 130 118 b 167 27 176 118 198 66 b 235 -156 119 -33 167 -121 b 186 -263 282 -182 240 -263 b 157 -255 176 -263 167 -260 b 100 87 56 -198 18 -42 "},"˜":{"ha":857,"x_min":0,"x_max":0,"o":"m 137 856 b 54 932 92 856 54 886 b 286 1120 57 1038 190 1120 b 556 1032 395 1120 463 1019 b 722 1165 655 1046 640 1165 b 788 1127 751 1165 774 1149 b 770 994 814 1088 800 1042 b 534 860 719 913 633 860 b 286 954 423 860 381 954 b 137 856 195 954 212 856 "},"˝":{"ha":697,"x_min":0,"x_max":0,"o":"m 245 1145 b 283 1160 256 1156 270 1160 b 358 1032 340 1160 408 1078 l 191 878 b 149 861 179 867 164 861 b 76 986 90 861 20 935 l 245 1145 m 513 1127 b 551 1142 524 1138 537 1142 b 625 1015 608 1142 675 1061 l 458 860 b 416 844 446 849 431 844 b 343 968 357 844 288 917 l 513 1127 "},"̦":{"ha":330,"x_min":0,"x_max":0,"o":"m 233 -47 b 180 -415 277 -141 278 -342 b 141 -427 170 -423 156 -427 b 58 -319 81 -427 9 -366 b 83 -115 127 -251 98 -156 b 179 -20 62 -60 127 -20 b 233 -47 203 -20 224 -28 "},"Ẁ":{"ha":1411,"x_min":0,"x_max":0,"o":"m 589 81 b 472 0 574 28 522 0 b 366 66 427 0 384 22 b 61 1175 305 216 106 1032 b 130 1280 39 1245 84 1280 b 208 1225 163 1280 197 1263 b 469 233 239 1118 465 248 l 628 826 b 705 890 639 869 671 890 b 783 827 738 890 772 868 l 941 233 b 1203 1225 945 248 1173 1118 b 1282 1280 1214 1263 1248 1280 b 1350 1175 1328 1280 1371 1245 b 1044 66 1305 1032 1105 216 b 939 0 1027 22 983 0 b 822 81 888 0 837 28 l 705 517 l 589 81 m 563 1477 b 637 1605 513 1523 581 1605 b 675 1590 651 1605 665 1600 l 845 1431 b 772 1306 901 1379 831 1306 b 730 1322 757 1306 742 1312 l 563 1477 "},"ẁ":{"ha":1238,"x_min":0,"x_max":0,"o":"m 509 85 b 392 0 490 28 441 0 b 283 72 347 0 302 24 b 60 718 221 224 106 568 b 136 838 39 785 87 838 b 206 781 163 838 191 822 b 391 235 244 680 387 250 l 530 670 b 620 758 544 712 571 758 b 708 670 670 758 694 712 l 848 235 b 1032 781 852 250 994 680 b 1103 838 1047 822 1076 838 b 1179 718 1152 838 1199 785 b 955 72 1133 568 1017 224 b 846 0 936 24 891 0 b 730 85 798 0 749 28 l 618 414 l 509 85 m 476 1032 b 551 1160 426 1078 494 1160 b 589 1145 564 1160 578 1156 l 758 986 b 685 861 814 935 746 861 b 643 878 670 861 655 867 l 476 1032 "},"Ẃ":{"ha":1411,"x_min":0,"x_max":0,"o":"m 589 81 b 472 0 574 28 522 0 b 366 66 427 0 384 22 b 61 1175 305 216 106 1032 b 130 1280 39 1245 84 1280 b 208 1225 163 1280 197 1263 b 469 233 239 1118 465 248 l 628 826 b 705 890 639 869 671 890 b 783 827 738 890 772 868 l 941 233 b 1203 1225 945 248 1173 1118 b 1282 1280 1214 1263 1248 1280 b 1350 1175 1328 1280 1371 1245 b 1044 66 1305 1032 1105 216 b 939 0 1027 22 983 0 b 822 81 888 0 837 28 l 705 517 l 589 81 m 735 1590 b 773 1605 746 1600 760 1605 b 848 1477 830 1605 898 1523 l 681 1322 b 639 1306 669 1312 654 1306 b 566 1431 579 1306 510 1379 l 735 1590 "},"ẃ":{"ha":1238,"x_min":0,"x_max":0,"o":"m 509 85 b 392 0 490 28 441 0 b 283 72 347 0 302 24 b 60 718 221 224 106 568 b 136 838 39 785 87 838 b 206 781 163 838 191 822 b 391 235 244 680 387 250 l 530 670 b 620 758 544 712 571 758 b 708 670 670 758 694 712 l 848 235 b 1032 781 852 250 994 680 b 1103 838 1047 822 1076 838 b 1179 718 1152 838 1199 785 b 955 72 1133 568 1017 224 b 846 0 936 24 891 0 b 730 85 798 0 749 28 l 618 414 l 509 85 m 650 1145 b 688 1160 661 1156 674 1160 b 762 1032 745 1160 812 1078 l 595 878 b 553 861 583 867 568 861 b 480 986 492 861 425 935 l 650 1145 "},"Ẅ":{"ha":1411,"x_min":0,"x_max":0,"o":"m 589 81 b 472 0 574 28 522 0 b 366 66 427 0 384 22 b 61 1175 305 216 106 1032 b 130 1280 39 1245 84 1280 b 208 1225 163 1280 197 1263 b 469 233 239 1118 465 248 l 628 826 b 705 890 639 869 671 890 b 783 827 738 890 772 868 l 941 233 b 1203 1225 945 248 1173 1118 b 1282 1280 1214 1263 1248 1280 b 1350 1175 1328 1280 1371 1245 b 1044 66 1305 1032 1105 216 b 939 0 1027 22 983 0 b 822 81 888 0 837 28 l 705 517 l 589 81 m 541 1529 b 559 1530 548 1530 553 1530 b 571 1324 680 1530 709 1352 b 547 1321 563 1322 555 1321 b 541 1529 430 1321 403 1510 m 842 1529 b 860 1530 849 1530 854 1530 b 872 1324 981 1530 1010 1352 b 848 1321 864 1322 856 1321 b 842 1529 731 1321 704 1510 "},"ẅ":{"ha":1238,"x_min":0,"x_max":0,"o":"m 509 85 b 392 0 490 28 441 0 b 283 72 347 0 302 24 b 60 718 221 224 106 568 b 136 838 39 785 87 838 b 206 781 163 838 191 822 b 391 235 244 680 387 250 l 530 670 b 620 758 544 712 571 758 b 708 670 670 758 694 712 l 848 235 b 1032 781 852 250 994 680 b 1103 838 1047 822 1076 838 b 1179 718 1152 838 1199 785 b 955 72 1133 568 1017 224 b 846 0 936 24 891 0 b 730 85 798 0 749 28 l 618 414 l 509 85 m 454 1084 b 472 1085 461 1085 467 1085 b 484 879 593 1085 623 907 b 460 876 476 878 468 876 b 454 1084 343 876 316 1065 m 755 1084 b 773 1085 762 1085 768 1085 b 785 879 894 1085 924 907 b 761 876 777 878 769 876 b 755 1084 644 876 617 1065 "},"–":{"ha":724,"x_min":0,"x_max":0,"o":"m 119 411 b 119 570 28 411 38 570 l 601 570 b 595 411 697 570 688 411 l 119 411 "},"—":{"ha":955,"x_min":0,"x_max":0,"o":"m 119 411 b 119 570 28 411 38 570 l 831 570 b 826 411 928 570 918 411 l 119 411 "},"‘":{"ha":330,"x_min":0,"x_max":0,"o":"m 84 711 b 137 1078 39 804 38 1004 b 175 1090 148 1086 161 1090 b 259 982 235 1090 307 1029 b 235 779 189 914 220 819 b 138 684 255 723 190 684 b 84 711 114 684 94 692 "},"’":{"ha":330,"x_min":0,"x_max":0,"o":"m 245 1059 b 193 692 289 966 290 765 b 153 680 182 684 168 680 b 71 788 94 680 22 741 b 95 991 140 856 110 951 b 191 1086 75 1047 140 1086 b 245 1059 216 1086 236 1078 "},"‚":{"ha":330,"x_min":0,"x_max":0,"o":"m 245 271 b 193 -96 290 178 290 -22 b 155 -109 182 -104 168 -109 b 71 0 95 -109 23 -47 b 95 203 141 68 110 163 b 191 298 75 259 140 298 b 245 271 216 298 236 290 "},"“":{"ha":583,"x_min":0,"x_max":0,"o":"m 84 711 b 137 1078 39 804 38 1004 b 175 1090 148 1086 161 1090 b 259 982 235 1090 307 1029 b 235 779 189 914 220 819 b 138 684 255 723 190 684 b 84 711 114 684 94 692 m 338 711 b 391 1078 293 804 292 1004 b 429 1090 401 1086 415 1090 b 513 982 488 1090 560 1029 b 488 779 442 914 473 819 b 392 684 509 723 444 684 b 338 711 368 684 347 692 "},"”":{"ha":583,"x_min":0,"x_max":0,"o":"m 245 1059 b 193 692 289 966 290 765 b 153 680 182 684 168 680 b 71 788 94 680 22 741 b 95 991 140 856 110 951 b 191 1086 75 1047 140 1086 b 245 1059 216 1086 236 1078 m 499 1059 b 446 692 543 966 544 765 b 407 680 435 684 422 680 b 324 788 347 680 275 741 b 349 991 393 856 363 951 b 445 1086 328 1047 393 1086 b 499 1059 469 1086 490 1078 "},"„":{"ha":583,"x_min":0,"x_max":0,"o":"m 245 271 b 193 -96 290 178 290 -22 b 155 -109 182 -104 168 -109 b 71 0 95 -109 23 -47 b 95 203 141 68 110 163 b 191 298 75 259 140 298 b 245 271 216 298 236 290 m 499 271 b 446 -96 544 178 544 -22 b 408 -109 435 -104 422 -109 b 324 0 349 -109 277 -47 b 349 203 395 68 363 163 b 445 298 328 259 393 298 b 499 271 469 298 490 290 "},"•":{"ha":728,"x_min":0,"x_max":0,"o":"m 670 586 b 484 467 699 492 528 456 b 623 258 567 442 709 357 b 555 224 602 235 578 224 b 393 384 481 224 404 313 b 269 187 415 244 335 187 b 213 206 247 187 227 194 b 297 431 134 275 191 368 b 164 408 252 418 205 408 b 56 510 99 408 50 433 b 157 602 60 581 106 602 b 294 560 216 602 279 574 b 347 795 182 700 247 795 b 418 572 469 795 410 585 b 570 670 475 643 526 670 b 670 586 618 670 655 633 m 319 488 b 378 430 319 456 346 430 b 437 488 411 430 437 456 b 378 548 437 521 411 548 b 319 488 346 548 319 521 "},"…":{"ha":943,"x_min":0,"x_max":0,"o":"m 263 141 b 195 8 285 81 251 27 b 155 1 182 4 168 1 b 62 65 114 1 79 22 b 148 209 41 122 62 197 b 263 141 208 217 250 184 m 572 141 b 503 8 593 81 560 27 b 464 1 490 4 476 1 b 370 65 423 1 388 22 b 456 209 349 122 372 197 b 572 141 517 217 557 184 m 882 141 b 812 8 902 81 869 27 b 773 1 799 4 785 1 b 680 65 732 1 697 22 b 765 209 658 122 681 197 b 882 141 826 217 867 184 "},"‹":{"ha":538,"x_min":0,"x_max":0,"o":"m 91 179 b 121 401 35 209 45 363 l 388 533 b 416 540 399 538 408 540 b 448 385 483 540 510 416 l 227 278 l 444 170 b 400 19 519 132 463 19 b 374 26 391 19 382 22 "},"›":{"ha":537,"x_min":0,"x_max":0,"o":"m 164 26 b 138 19 156 22 148 19 b 95 170 76 19 19 132 l 312 278 l 91 385 b 122 540 27 416 54 540 b 151 533 130 540 140 538 l 418 401 b 448 179 494 363 502 209 l 164 26 "},"⁄":{"ha":883,"x_min":0,"x_max":0,"o":"m 825 1180 b 193 20 620 798 425 388 b 149 -5 182 3 165 -5 b 60 104 98 -5 37 61 l 684 1246 b 730 1274 694 1265 712 1274 b 825 1180 781 1274 845 1218 "},"€":{"ha":1027,"x_min":0,"x_max":0,"o":"m 968 305 b 568 -1 913 134 751 -1 b 232 358 391 -1 279 155 l 119 358 b 119 517 28 358 38 517 l 209 517 b 205 627 206 552 205 589 b 206 644 206 632 206 637 l 119 644 b 119 803 28 644 38 803 l 221 803 b 633 1279 258 1020 378 1279 b 954 977 791 1279 926 1157 b 869 879 962 917 914 879 b 803 930 841 879 812 895 b 635 1114 765 1062 705 1114 b 391 803 483 1114 415 925 l 601 803 b 595 644 697 803 689 644 l 373 644 b 372 616 373 635 372 625 b 376 517 372 583 373 549 l 601 517 b 595 358 697 517 689 358 l 403 358 b 568 167 434 244 490 165 b 837 384 690 170 772 262 b 883 411 846 403 864 411 b 968 305 930 411 987 361 "},"™":{"ha":981,"x_min":0,"x_max":0,"o":"m 209 1161 l 98 1161 b 95 1240 42 1161 39 1240 l 431 1240 b 552 1188 481 1240 530 1241 l 670 901 l 789 1198 b 857 1242 800 1227 829 1242 b 917 1188 886 1242 914 1225 b 925 642 921 1119 922 712 b 887 601 926 614 906 601 b 846 640 867 601 845 614 b 844 1108 846 693 845 1061 l 711 781 b 670 755 704 765 688 755 b 629 781 654 755 637 765 l 496 1108 b 495 640 496 1061 494 693 b 453 601 495 614 473 601 b 415 642 433 601 414 614 b 423 1161 419 705 419 1047 l 289 1161 l 288 650 b 247 602 288 618 267 602 b 206 650 227 602 206 618 "},"−":{"ha":724,"x_min":0,"x_max":0,"o":"m 119 411 b 119 570 28 411 38 570 l 601 570 b 595 411 697 570 688 411 l 119 411 "}}}
